<svg width="119" height="119" viewBox="0 0 119 119" fill="none" xmlns="http://www.w3.org/2000/svg">
<g id="Vector">
<mask id="path-1-inside-1_133_463" fill="white">
<path d="M58.9352 0H60.0857C72.9131 0.411387 83.9973 7.21205 90.0844 18.3404C92.2428 22.2838 93.5607 26.6534 94.0379 31.449C94.1572 32.6622 94.2138 34.534 94.2076 37.0643C94.2076 37.1542 94.2517 37.2007 94.34 37.2038C99.7276 37.4525 103.925 41.4315 104.099 46.84C104.143 48.1632 104.147 49.8258 104.111 51.8278C104.011 57.4919 100.067 61.708 94.3191 61.966C94.2308 61.9691 94.1859 62.0156 94.1843 62.1054C94.0263 72.9061 87.9136 82.361 78.0961 86.8491C73.7521 88.834 68.9061 89.4708 64.3832 89.2337C63.6286 89.195 63.0212 88.8928 62.561 88.3273C61.8568 87.465 62.1403 86.3424 61.5593 85.4336C60.7225 84.1251 58.7284 83.9508 57.7406 85.0548C56.7667 86.1402 56.8248 87.7671 57.9962 88.6945C58.8562 89.3732 59.9672 89.0943 60.8666 89.6893C62.3588 90.6771 62.2612 93.1128 60.7109 93.8752C60.1345 94.1587 59.39 94.2385 58.4773 94.1146C54.1566 93.5266 51.3234 89.3406 52.2763 85.0827C53.1944 80.9874 57.4221 78.5377 61.4547 79.6324C63.7138 80.2444 65.388 81.7389 66.4773 84.1158C66.5269 84.2227 66.6113 84.2762 66.7306 84.2762C78.2704 84.2483 87.8183 75.8648 89.0989 64.3716C89.1996 63.4667 89.2492 61.9203 89.2477 59.7324C89.2477 56.6846 89.2508 53.636 89.257 50.5866C89.2585 49.5376 89.3709 48.8055 89.594 48.3902C90.5516 46.5983 93.2384 46.7819 93.9821 48.6366C94.1293 49.0054 94.2037 49.6314 94.2052 50.5146C94.2068 52.6374 94.2076 54.7586 94.2076 56.8783C94.2076 56.9604 94.2486 57.0007 94.3307 56.9991C97.057 56.9387 99.0907 54.7632 99.1326 52.0602C99.1628 50.0335 99.4138 47.2444 98.8955 45.5826C98.2006 43.3629 96.3621 42.2729 94.0751 42.1637C92.4109 42.0846 90.3122 42.5518 89.4987 40.6576C89.3391 40.2857 89.2585 39.6667 89.257 38.8005C89.2539 37.3502 89.2438 35.9022 89.2268 34.4565C88.9874 14.2846 69.443 0.339336 50.31 6.44273C39.1422 10.0034 31.012 20.1742 29.9011 31.8441C29.8081 32.8094 29.7601 34.3574 29.757 36.4879C29.7461 43.7209 29.7446 50.9538 29.7523 58.1868C29.7523 60.2019 29.5176 61.794 27.2538 61.966C25.3596 62.1101 23.0377 61.9706 21.2736 61.3082C17.5083 59.8998 15.0191 56.267 14.9006 52.2926C14.8587 50.8872 14.8456 49.2231 14.8611 47.3002C14.9006 42.7261 17.7756 38.754 22.2753 37.5361C23.0098 37.3386 23.8581 37.2898 24.6739 37.1945C24.7591 37.1852 24.801 37.1371 24.7994 37.0504C24.787 36.1377 24.7886 35.2344 24.8041 34.3403C25.1248 15.4328 40.0997 0.485762 58.9352 0ZM24.7948 56.9875V42.1962C24.7948 42.1931 24.7942 42.1901 24.793 42.1873C24.7918 42.1845 24.7901 42.1819 24.788 42.1798C24.7858 42.1776 24.7832 42.1759 24.7804 42.1747C24.7776 42.1735 24.7746 42.1729 24.7715 42.1729H24.732C23.4295 42.1729 22.1804 42.7114 21.2594 43.6699C20.3384 44.6284 19.8209 45.9284 19.8209 47.2839V51.8998C19.8209 53.2553 20.3384 54.5553 21.2594 55.5138C22.1804 56.4723 23.4295 57.0108 24.732 57.0108H24.7715C24.7746 57.0108 24.7776 57.0102 24.7804 57.009C24.7832 57.0078 24.7858 57.0061 24.788 57.004C24.7901 57.0018 24.7918 56.9992 24.793 56.9964C24.7942 56.9936 24.7948 56.9906 24.7948 56.9875Z"/>
<path d="M51.7278 16.4624C44.6761 19.3979 40.1044 26.3055 39.693 33.8569C39.6465 34.72 39.5722 35.2902 39.4699 35.5675C38.9493 36.9899 37.3455 37.5292 36.0277 36.8621C34.8493 36.2625 34.6959 35.1515 34.7424 33.8429C35.1073 23.3723 42.1288 14.1312 52.1531 11.0563C67.7115 6.28236 83.6835 17.4758 84.2599 33.8406C84.2862 34.5906 84.2343 35.1546 84.1042 35.5327C83.3674 37.6895 80.2948 37.6802 79.5208 35.5489C79.417 35.2654 79.3465 34.7068 79.3093 33.8732C78.6771 19.9627 64.4808 11.1562 51.7278 16.4624Z"/>
<path d="M0 94.4702V24.4996C0.232422 21.0427 1.71527 18.3884 4.44855 16.5368C6.56127 15.1051 8.65074 14.8936 11.4677 14.882C14.7464 14.868 18.0259 14.868 21.3061 14.882C22.3567 14.8851 23.0888 14.9966 23.5025 15.2167C25.2643 16.151 25.1271 18.7936 23.3212 19.5792C22.9493 19.7404 22.3435 19.8225 21.5037 19.8256C18.2993 19.838 15.095 19.838 11.8907 19.8256C10.1553 19.8178 8.94282 19.9302 8.2533 20.1626C6.79059 20.6553 5.809 21.6315 5.30852 23.0911C5.07145 23.7822 4.95291 24.9807 4.95291 26.6867C4.95911 48.477 4.95988 70.2666 4.95523 92.0553C4.95368 93.9906 5.06835 95.2845 5.29922 95.9368C5.93373 97.7334 7.55139 98.942 9.53395 99.1117C10.1568 99.1659 10.5806 99.2449 10.8053 99.3487C11.9147 99.8554 12.4392 100.654 12.3788 101.745C12.323 102.738 11.8977 103.425 11.1028 103.804C9.27828 104.674 5.95465 103.49 4.42066 102.445C1.69513 100.584 0.221576 97.9255 0 94.4702Z"/>
<path d="M119 24.5275V94.5027C118.623 100.086 114.417 104.111 108.829 104.113C84.507 104.121 60.1818 104.126 35.8534 104.127C35.7759 104.127 35.7093 104.154 35.6535 104.209C30.9663 108.891 26.2885 113.568 21.6199 118.24C21.2294 118.63 20.6809 118.884 19.9743 119H19.6815C18.1336 118.724 17.3588 117.716 17.3573 115.976C17.3557 111.458 17.3557 106.938 17.3573 102.417C17.3573 101.592 17.4619 100.967 17.671 100.541C18.7936 98.2563 22.3032 99.1117 22.3079 101.626C22.3125 104.55 22.314 107.472 22.3125 110.391C22.3121 110.404 22.3155 110.416 22.3222 110.427C22.3289 110.437 22.3387 110.446 22.3502 110.451C22.3617 110.456 22.3745 110.457 22.3868 110.455C22.3991 110.452 22.4105 110.446 22.4194 110.438C25.9011 106.948 29.3843 103.463 32.8691 99.9809C33.5013 99.3487 34.245 99.1698 35.2003 99.1698C59.2776 99.1775 83.3558 99.1791 107.435 99.1744C108.987 99.1744 110.099 99.059 110.77 98.8281C112.22 98.3261 113.196 97.3522 113.698 95.9066C113.931 95.2356 114.047 94.1161 114.047 92.5481C114.041 70.595 114.041 48.642 114.047 26.689C114.049 24.9784 113.93 23.7775 113.691 23.0865C113.188 21.6284 112.201 20.6522 110.73 20.1579C110.05 19.9302 108.887 19.8194 107.242 19.8256C103.94 19.838 100.638 19.8372 97.336 19.8233C96.6093 19.8202 96.0708 19.745 95.7206 19.5978C93.7288 18.7588 93.766 15.8791 95.7787 15.0865C96.1196 14.9517 96.6573 14.8835 97.3917 14.882C101.205 14.8696 105.017 14.8673 108.829 14.875C114.424 14.8889 118.64 18.9331 119 24.5275Z"/>
</mask>
<path d="M58.9352 0H60.0857C72.9131 0.411387 83.9973 7.21205 90.0844 18.3404C92.2428 22.2838 93.5607 26.6534 94.0379 31.449C94.1572 32.6622 94.2138 34.534 94.2076 37.0643C94.2076 37.1542 94.2517 37.2007 94.34 37.2038C99.7276 37.4525 103.925 41.4315 104.099 46.84C104.143 48.1632 104.147 49.8258 104.111 51.8278C104.011 57.4919 100.067 61.708 94.3191 61.966C94.2308 61.9691 94.1859 62.0156 94.1843 62.1054C94.0263 72.9061 87.9136 82.361 78.0961 86.8491C73.7521 88.834 68.9061 89.4708 64.3832 89.2337C63.6286 89.195 63.0212 88.8928 62.561 88.3273C61.8568 87.465 62.1403 86.3424 61.5593 85.4336C60.7225 84.1251 58.7284 83.9508 57.7406 85.0548C56.7667 86.1402 56.8248 87.7671 57.9962 88.6945C58.8562 89.3732 59.9672 89.0943 60.8666 89.6893C62.3588 90.6771 62.2612 93.1128 60.7109 93.8752C60.1345 94.1587 59.39 94.2385 58.4773 94.1146C54.1566 93.5266 51.3234 89.3406 52.2763 85.0827C53.1944 80.9874 57.4221 78.5377 61.4547 79.6324C63.7138 80.2444 65.388 81.7389 66.4773 84.1158C66.5269 84.2227 66.6113 84.2762 66.7306 84.2762C78.2704 84.2483 87.8183 75.8648 89.0989 64.3716C89.1996 63.4667 89.2492 61.9203 89.2477 59.7324C89.2477 56.6846 89.2508 53.636 89.257 50.5866C89.2585 49.5376 89.3709 48.8055 89.594 48.3902C90.5516 46.5983 93.2384 46.7819 93.9821 48.6366C94.1293 49.0054 94.2037 49.6314 94.2052 50.5146C94.2068 52.6374 94.2076 54.7586 94.2076 56.8783C94.2076 56.9604 94.2486 57.0007 94.3307 56.9991C97.057 56.9387 99.0907 54.7632 99.1326 52.0602C99.1628 50.0335 99.4138 47.2444 98.8955 45.5826C98.2006 43.3629 96.3621 42.2729 94.0751 42.1637C92.4109 42.0846 90.3122 42.5518 89.4987 40.6576C89.3391 40.2857 89.2585 39.6667 89.257 38.8005C89.2539 37.3502 89.2438 35.9022 89.2268 34.4565C88.9874 14.2846 69.443 0.339336 50.31 6.44273C39.1422 10.0034 31.012 20.1742 29.9011 31.8441C29.8081 32.8094 29.7601 34.3574 29.757 36.4879C29.7461 43.7209 29.7446 50.9538 29.7523 58.1868C29.7523 60.2019 29.5176 61.794 27.2538 61.966C25.3596 62.1101 23.0377 61.9706 21.2736 61.3082C17.5083 59.8998 15.0191 56.267 14.9006 52.2926C14.8587 50.8872 14.8456 49.2231 14.8611 47.3002C14.9006 42.7261 17.7756 38.754 22.2753 37.5361C23.0098 37.3386 23.8581 37.2898 24.6739 37.1945C24.7591 37.1852 24.801 37.1371 24.7994 37.0504C24.787 36.1377 24.7886 35.2344 24.8041 34.3403C25.1248 15.4328 40.0997 0.485762 58.9352 0ZM24.7948 56.9875V42.1962C24.7948 42.1931 24.7942 42.1901 24.793 42.1873C24.7918 42.1845 24.7901 42.1819 24.788 42.1798C24.7858 42.1776 24.7832 42.1759 24.7804 42.1747C24.7776 42.1735 24.7746 42.1729 24.7715 42.1729H24.732C23.4295 42.1729 22.1804 42.7114 21.2594 43.6699C20.3384 44.6284 19.8209 45.9284 19.8209 47.2839V51.8998C19.8209 53.2553 20.3384 54.5553 21.2594 55.5138C22.1804 56.4723 23.4295 57.0108 24.732 57.0108H24.7715C24.7746 57.0108 24.7776 57.0102 24.7804 57.009C24.7832 57.0078 24.7858 57.0061 24.788 57.004C24.7901 57.0018 24.7918 56.9992 24.793 56.9964C24.7942 56.9936 24.7948 56.9906 24.7948 56.9875Z" fill="#E5B56C"/>
<path d="M51.7278 16.4624C44.6761 19.3979 40.1044 26.3055 39.693 33.8569C39.6465 34.72 39.5722 35.2902 39.4699 35.5675C38.9493 36.9899 37.3455 37.5292 36.0277 36.8621C34.8493 36.2625 34.6959 35.1515 34.7424 33.8429C35.1073 23.3723 42.1288 14.1312 52.1531 11.0563C67.7115 6.28236 83.6835 17.4758 84.2599 33.8406C84.2862 34.5906 84.2343 35.1546 84.1042 35.5327C83.3674 37.6895 80.2948 37.6802 79.5208 35.5489C79.417 35.2654 79.3465 34.7068 79.3093 33.8732C78.6771 19.9627 64.4808 11.1562 51.7278 16.4624Z" fill="#E5B56C"/>
<path d="M0 94.4702V24.4996C0.232422 21.0427 1.71527 18.3884 4.44855 16.5368C6.56127 15.1051 8.65074 14.8936 11.4677 14.882C14.7464 14.868 18.0259 14.868 21.3061 14.882C22.3567 14.8851 23.0888 14.9966 23.5025 15.2167C25.2643 16.151 25.1271 18.7936 23.3212 19.5792C22.9493 19.7404 22.3435 19.8225 21.5037 19.8256C18.2993 19.838 15.095 19.838 11.8907 19.8256C10.1553 19.8178 8.94282 19.9302 8.2533 20.1626C6.79059 20.6553 5.809 21.6315 5.30852 23.0911C5.07145 23.7822 4.95291 24.9807 4.95291 26.6867C4.95911 48.477 4.95988 70.2666 4.95523 92.0553C4.95368 93.9906 5.06835 95.2845 5.29922 95.9368C5.93373 97.7334 7.55139 98.942 9.53395 99.1117C10.1568 99.1659 10.5806 99.2449 10.8053 99.3487C11.9147 99.8554 12.4392 100.654 12.3788 101.745C12.323 102.738 11.8977 103.425 11.1028 103.804C9.27828 104.674 5.95465 103.49 4.42066 102.445C1.69513 100.584 0.221576 97.9255 0 94.4702Z" fill="#E5B56C"/>
<path d="M119 24.5275V94.5027C118.623 100.086 114.417 104.111 108.829 104.113C84.507 104.121 60.1818 104.126 35.8534 104.127C35.7759 104.127 35.7093 104.154 35.6535 104.209C30.9663 108.891 26.2885 113.568 21.6199 118.24C21.2294 118.63 20.6809 118.884 19.9743 119H19.6815C18.1336 118.724 17.3588 117.716 17.3573 115.976C17.3557 111.458 17.3557 106.938 17.3573 102.417C17.3573 101.592 17.4619 100.967 17.671 100.541C18.7936 98.2563 22.3032 99.1117 22.3079 101.626C22.3125 104.55 22.314 107.472 22.3125 110.391C22.3121 110.404 22.3155 110.416 22.3222 110.427C22.3289 110.437 22.3387 110.446 22.3502 110.451C22.3617 110.456 22.3745 110.457 22.3868 110.455C22.3991 110.452 22.4105 110.446 22.4194 110.438C25.9011 106.948 29.3843 103.463 32.8691 99.9809C33.5013 99.3487 34.245 99.1698 35.2003 99.1698C59.2776 99.1775 83.3558 99.1791 107.435 99.1744C108.987 99.1744 110.099 99.059 110.77 98.8281C112.22 98.3261 113.196 97.3522 113.698 95.9066C113.931 95.2356 114.047 94.1161 114.047 92.5481C114.041 70.595 114.041 48.642 114.047 26.689C114.049 24.9784 113.93 23.7775 113.691 23.0865C113.188 21.6284 112.201 20.6522 110.73 20.1579C110.05 19.9302 108.887 19.8194 107.242 19.8256C103.94 19.838 100.638 19.8372 97.336 19.8233C96.6093 19.8202 96.0708 19.745 95.7206 19.5978C93.7288 18.7588 93.766 15.8791 95.7787 15.0865C96.1196 14.9517 96.6573 14.8835 97.3917 14.882C101.205 14.8696 105.017 14.8673 108.829 14.875C114.424 14.8889 118.64 18.9331 119 24.5275Z" fill="#E5B56C"/>
<path d="M58.9352 0H60.0857C72.9131 0.411387 83.9973 7.21205 90.0844 18.3404C92.2428 22.2838 93.5607 26.6534 94.0379 31.449C94.1572 32.6622 94.2138 34.534 94.2076 37.0643C94.2076 37.1542 94.2517 37.2007 94.34 37.2038C99.7276 37.4525 103.925 41.4315 104.099 46.84C104.143 48.1632 104.147 49.8258 104.111 51.8278C104.011 57.4919 100.067 61.708 94.3191 61.966C94.2308 61.9691 94.1859 62.0156 94.1843 62.1054C94.0263 72.9061 87.9136 82.361 78.0961 86.8491C73.7521 88.834 68.9061 89.4708 64.3832 89.2337C63.6286 89.195 63.0212 88.8928 62.561 88.3273C61.8568 87.465 62.1403 86.3424 61.5593 85.4336C60.7225 84.1251 58.7284 83.9508 57.7406 85.0548C56.7667 86.1402 56.8248 87.7671 57.9962 88.6945C58.8562 89.3732 59.9672 89.0943 60.8666 89.6893C62.3588 90.6771 62.2612 93.1128 60.7109 93.8752C60.1345 94.1587 59.39 94.2385 58.4773 94.1146C54.1566 93.5266 51.3234 89.3406 52.2763 85.0827C53.1944 80.9874 57.4221 78.5377 61.4547 79.6324C63.7138 80.2444 65.388 81.7389 66.4773 84.1158C66.5269 84.2227 66.6113 84.2762 66.7306 84.2762C78.2704 84.2483 87.8183 75.8648 89.0989 64.3716C89.1996 63.4667 89.2492 61.9203 89.2477 59.7324C89.2477 56.6846 89.2508 53.636 89.257 50.5866C89.2585 49.5376 89.3709 48.8055 89.594 48.3902C90.5516 46.5983 93.2384 46.7819 93.9821 48.6366C94.1293 49.0054 94.2037 49.6314 94.2052 50.5146C94.2068 52.6374 94.2076 54.7586 94.2076 56.8783C94.2076 56.9604 94.2486 57.0007 94.3307 56.9991C97.057 56.9387 99.0907 54.7632 99.1326 52.0602C99.1628 50.0335 99.4138 47.2444 98.8955 45.5826C98.2006 43.3629 96.3621 42.2729 94.0751 42.1637C92.4109 42.0846 90.3122 42.5518 89.4987 40.6576C89.3391 40.2857 89.2585 39.6667 89.257 38.8005C89.2539 37.3502 89.2438 35.9022 89.2268 34.4565C88.9874 14.2846 69.443 0.339336 50.31 6.44273C39.1422 10.0034 31.012 20.1742 29.9011 31.8441C29.8081 32.8094 29.7601 34.3574 29.757 36.4879C29.7461 43.7209 29.7446 50.9538 29.7523 58.1868C29.7523 60.2019 29.5176 61.794 27.2538 61.966C25.3596 62.1101 23.0377 61.9706 21.2736 61.3082C17.5083 59.8998 15.0191 56.267 14.9006 52.2926C14.8587 50.8872 14.8456 49.2231 14.8611 47.3002C14.9006 42.7261 17.7756 38.754 22.2753 37.5361C23.0098 37.3386 23.8581 37.2898 24.6739 37.1945C24.7591 37.1852 24.801 37.1371 24.7994 37.0504C24.787 36.1377 24.7886 35.2344 24.8041 34.3403C25.1248 15.4328 40.0997 0.485762 58.9352 0ZM24.7948 56.9875V42.1962C24.7948 42.1931 24.7942 42.1901 24.793 42.1873C24.7918 42.1845 24.7901 42.1819 24.788 42.1798C24.7858 42.1776 24.7832 42.1759 24.7804 42.1747C24.7776 42.1735 24.7746 42.1729 24.7715 42.1729H24.732C23.4295 42.1729 22.1804 42.7114 21.2594 43.6699C20.3384 44.6284 19.8209 45.9284 19.8209 47.2839V51.8998C19.8209 53.2553 20.3384 54.5553 21.2594 55.5138C22.1804 56.4723 23.4295 57.0108 24.732 57.0108H24.7715C24.7746 57.0108 24.7776 57.0102 24.7804 57.009C24.7832 57.0078 24.7858 57.0061 24.788 57.004C24.7901 57.0018 24.7918 56.9992 24.793 56.9964C24.7942 56.9936 24.7948 56.9906 24.7948 56.9875Z" stroke="#F9F1E8" mask="url(#path-1-inside-1_133_463)"/>
<path d="M51.7278 16.4624C44.6761 19.3979 40.1044 26.3055 39.693 33.8569C39.6465 34.72 39.5722 35.2902 39.4699 35.5675C38.9493 36.9899 37.3455 37.5292 36.0277 36.8621C34.8493 36.2625 34.6959 35.1515 34.7424 33.8429C35.1073 23.3723 42.1288 14.1312 52.1531 11.0563C67.7115 6.28236 83.6835 17.4758 84.2599 33.8406C84.2862 34.5906 84.2343 35.1546 84.1042 35.5327C83.3674 37.6895 80.2948 37.6802 79.5208 35.5489C79.417 35.2654 79.3465 34.7068 79.3093 33.8732C78.6771 19.9627 64.4808 11.1562 51.7278 16.4624Z" stroke="#F9F1E8" mask="url(#path-1-inside-1_133_463)"/>
<path d="M0 94.4702V24.4996C0.232422 21.0427 1.71527 18.3884 4.44855 16.5368C6.56127 15.1051 8.65074 14.8936 11.4677 14.882C14.7464 14.868 18.0259 14.868 21.3061 14.882C22.3567 14.8851 23.0888 14.9966 23.5025 15.2167C25.2643 16.151 25.1271 18.7936 23.3212 19.5792C22.9493 19.7404 22.3435 19.8225 21.5037 19.8256C18.2993 19.838 15.095 19.838 11.8907 19.8256C10.1553 19.8178 8.94282 19.9302 8.2533 20.1626C6.79059 20.6553 5.809 21.6315 5.30852 23.0911C5.07145 23.7822 4.95291 24.9807 4.95291 26.6867C4.95911 48.477 4.95988 70.2666 4.95523 92.0553C4.95368 93.9906 5.06835 95.2845 5.29922 95.9368C5.93373 97.7334 7.55139 98.942 9.53395 99.1117C10.1568 99.1659 10.5806 99.2449 10.8053 99.3487C11.9147 99.8554 12.4392 100.654 12.3788 101.745C12.323 102.738 11.8977 103.425 11.1028 103.804C9.27828 104.674 5.95465 103.49 4.42066 102.445C1.69513 100.584 0.221576 97.9255 0 94.4702Z" stroke="#F9F1E8" mask="url(#path-1-inside-1_133_463)"/>
<path d="M119 24.5275V94.5027C118.623 100.086 114.417 104.111 108.829 104.113C84.507 104.121 60.1818 104.126 35.8534 104.127C35.7759 104.127 35.7093 104.154 35.6535 104.209C30.9663 108.891 26.2885 113.568 21.6199 118.24C21.2294 118.63 20.6809 118.884 19.9743 119H19.6815C18.1336 118.724 17.3588 117.716 17.3573 115.976C17.3557 111.458 17.3557 106.938 17.3573 102.417C17.3573 101.592 17.4619 100.967 17.671 100.541C18.7936 98.2563 22.3032 99.1117 22.3079 101.626C22.3125 104.55 22.314 107.472 22.3125 110.391C22.3121 110.404 22.3155 110.416 22.3222 110.427C22.3289 110.437 22.3387 110.446 22.3502 110.451C22.3617 110.456 22.3745 110.457 22.3868 110.455C22.3991 110.452 22.4105 110.446 22.4194 110.438C25.9011 106.948 29.3843 103.463 32.8691 99.9809C33.5013 99.3487 34.245 99.1698 35.2003 99.1698C59.2776 99.1775 83.3558 99.1791 107.435 99.1744C108.987 99.1744 110.099 99.059 110.77 98.8281C112.22 98.3261 113.196 97.3522 113.698 95.9066C113.931 95.2356 114.047 94.1161 114.047 92.5481C114.041 70.595 114.041 48.642 114.047 26.689C114.049 24.9784 113.93 23.7775 113.691 23.0865C113.188 21.6284 112.201 20.6522 110.73 20.1579C110.05 19.9302 108.887 19.8194 107.242 19.8256C103.94 19.838 100.638 19.8372 97.336 19.8233C96.6093 19.8202 96.0708 19.745 95.7206 19.5978C93.7288 18.7588 93.766 15.8791 95.7787 15.0865C96.1196 14.9517 96.6573 14.8835 97.3917 14.882C101.205 14.8696 105.017 14.8673 108.829 14.875C114.424 14.8889 118.64 18.9331 119 24.5275Z" stroke="#F9F1E8" mask="url(#path-1-inside-1_133_463)"/>
</g>
</svg>
