<svg width="111" height="119" viewBox="0 0 111 119" fill="none" xmlns="http://www.w3.org/2000/svg">
<g id="Vector">
<mask id="path-1-inside-1_133_483" fill="white">
<path d="M12.0493 0H98.9344C105.859 0.588027 110.901 5.74547 110.906 12.5508C110.907 15.5134 110.908 18.4768 110.908 21.4409C110.911 22.8145 110.771 23.9464 109.491 24.5228C109.083 24.7072 108.292 24.7986 107.119 24.7971C101.678 24.7971 96.2434 24.7963 90.8141 24.7948C90.7934 24.7948 90.7736 24.8028 90.759 24.8172C90.7444 24.8316 90.7362 24.8511 90.7362 24.8715V41.9545C90.736 41.9669 90.74 41.9791 90.7476 41.989C90.7552 41.9989 90.766 42.0061 90.7782 42.0093C90.7905 42.0125 90.8034 42.0116 90.8151 42.0067C90.8267 42.0018 90.8364 41.9933 90.8425 41.9824C91.8868 40.2237 92.9381 38.465 93.9966 36.7064C94.8156 35.3444 95.526 34.3814 96.1276 33.8174C97.4554 32.5762 99.0226 31.8217 100.829 31.5536C108.231 30.4589 113.502 38.1962 109.769 44.5367C103.447 55.2777 97.1325 66.0024 90.8259 76.7108C90.7661 76.8131 90.7362 76.9231 90.7362 77.0409C90.7377 89.9945 90.7369 102.947 90.7338 115.899C90.7338 117.573 90.2376 118.663 88.5129 119H2.22558C0.749736 118.665 0.0118129 117.736 0.0118129 116.211C0.0118129 81.6777 0.00787538 47.1437 0 12.6089C0 5.76871 5.11269 0.504355 12.0493 0ZM85.7487 11.9721C85.8621 9.27828 86.4055 7.13768 88.1538 5.0668C88.1623 5.05661 88.1677 5.04428 88.1693 5.03123C88.171 5.01817 88.1688 5.00492 88.1631 4.99301C88.1574 4.9811 88.1485 4.97101 88.1372 4.96392C88.1259 4.95682 88.1129 4.953 88.0995 4.95291C63.4354 4.95291 38.7823 4.95291 14.1402 4.95291C12.5305 4.95291 11.4177 5.02651 10.8019 5.17371C8.25733 5.77568 6.16406 7.74895 5.38912 10.1963C5.17334 10.8812 5.06544 11.8822 5.06544 13.1992C5.06229 46.7795 5.0615 80.3715 5.06308 113.975C5.06308 113.985 5.0651 113.996 5.06901 114.005C5.07293 114.015 5.07868 114.024 5.08592 114.031C5.09316 114.038 5.10175 114.044 5.11121 114.048C5.12067 114.052 5.13081 114.054 5.14105 114.054L85.588 114.052C85.6187 114.052 85.6482 114.04 85.6699 114.019C85.6916 113.998 85.7038 113.97 85.7038 113.94L85.6258 85.5406C85.6258 85.3887 85.5872 85.3786 85.5101 85.5103L81.2763 92.8432C81.1381 93.0816 80.9445 93.2839 80.7116 93.4336C76.8007 95.9592 72.8504 98.5136 68.8607 101.097C67.8511 101.75 66.8753 101.746 65.9334 101.083C65.0734 100.478 64.875 99.6207 64.9388 98.5445C65.1782 94.4911 65.4263 90.4377 65.683 86.3842C65.7255 85.7358 65.7326 84.6829 66.0185 84.1948C72.5661 73.0417 79.1058 61.8955 85.6376 50.7563C85.6841 50.6771 85.7085 50.5874 85.7085 50.496C85.677 40.0943 85.6313 29.6927 85.5715 19.291C85.5605 17.5107 85.6195 15.071 85.7487 11.9721ZM90.8448 19.8302H105.753C105.784 19.8302 105.814 19.818 105.836 19.7962C105.859 19.7744 105.871 19.7448 105.871 19.714V12.488C105.871 11.4994 105.676 10.5205 105.296 9.60713C104.917 8.69378 104.36 7.86388 103.659 7.16482C102.957 6.46577 102.125 5.91125 101.208 5.53293C100.292 5.1546 99.3097 4.95988 98.3178 4.95988H98.28C96.2767 4.95988 94.3555 5.75302 92.939 7.16482C91.5225 8.57663 90.7267 10.4914 90.7267 12.488V19.714C90.7267 19.7448 90.7392 19.7744 90.7613 19.7962C90.7835 19.818 90.8135 19.8302 90.8448 19.8302ZM95.8536 43.7023L102.107 47.2142C102.126 47.2249 102.147 47.2319 102.168 47.2346C102.19 47.2374 102.212 47.2359 102.233 47.2303C102.253 47.2247 102.273 47.215 102.29 47.2019C102.307 47.1887 102.321 47.1724 102.332 47.1538L105.351 41.9429C105.598 41.5171 105.759 41.0483 105.823 40.5632C105.888 40.0781 105.856 39.5863 105.729 39.1158C105.602 38.6453 105.382 38.2053 105.082 37.821C104.782 37.4367 104.408 37.1156 103.981 36.8761L103.946 36.8551C103.519 36.6154 103.047 36.462 102.558 36.4035C102.069 36.345 101.572 36.3827 101.096 36.5143C100.619 36.646 100.173 36.8691 99.781 37.1708C99.3895 37.4725 99.0609 37.847 98.8139 38.2729L95.7922 43.4838C95.7709 43.5208 95.7654 43.5646 95.7769 43.6056C95.7884 43.6465 95.816 43.6813 95.8536 43.7023ZM72.6929 82.7306C75.1405 83.3465 77.2575 84.5783 79.0648 86.3215C79.1263 86.3804 79.1783 86.3734 79.2208 86.3006L99.5204 51.8301C99.5387 51.7985 99.5438 51.7612 99.5345 51.7263C99.5252 51.6915 99.5023 51.6619 99.4707 51.6441L93.1744 48.0695C93.083 48.0184 93.0114 48.0377 92.9594 48.1276L72.6456 82.6213C72.6398 82.6313 72.6364 82.6425 72.6357 82.654C72.635 82.6654 72.637 82.6769 72.6416 82.6875C72.6462 82.6981 72.6532 82.7075 72.6621 82.715C72.671 82.7225 72.6815 82.7278 72.6929 82.7306ZM75.9793 90.3982C74.6846 88.8061 72.7543 87.6788 70.7036 87.3999C70.6201 87.3891 70.576 87.4247 70.5713 87.5068L70.1649 94.1332C70.1554 94.268 70.2082 94.2982 70.3232 94.2238L75.9509 90.5748C76.0265 90.5268 76.036 90.4679 75.9793 90.3982Z"/>
<path d="M73.104 19.8302H17.6534C16.2729 19.8302 15.1538 20.9312 15.1538 22.2893V22.3357C15.1538 23.6938 16.2729 24.7948 17.6534 24.7948H73.104C74.4845 24.7948 75.6036 23.6938 75.6036 22.3357V22.2893C75.6036 20.9312 74.4845 19.8302 73.104 19.8302Z"/>
<path d="M73.1111 32.2369H17.6416C16.2663 32.2369 15.1514 33.3337 15.1514 34.6866V34.7378C15.1514 36.0907 16.2663 37.1875 17.6416 37.1875H73.1111C74.4864 37.1875 75.6013 36.0907 75.6013 34.7378V34.6866C75.6013 33.3337 74.4864 32.2369 73.1111 32.2369Z"/>
<path d="M73.1134 44.6273H17.644C16.2674 44.6273 15.1514 45.7251 15.1514 47.0794V47.1259C15.1514 48.4801 16.2674 49.5779 17.644 49.5779H73.1134C74.49 49.5779 75.606 48.4801 75.606 47.1259V47.0794C75.606 45.7251 74.49 44.6273 73.1134 44.6273Z"/>
<path d="M57.9903 57.0177H17.6464C16.2711 57.0177 15.1562 58.1145 15.1562 59.4675V59.5325C15.1562 60.8855 16.2711 61.9823 17.6464 61.9823H57.9903C59.3656 61.9823 60.4805 60.8855 60.4805 59.5325V59.4675C60.4805 58.1145 59.3656 57.0177 57.9903 57.0177Z"/>
<path d="M23.9782 98.7212C24.4082 99.3394 25.1193 99.2139 25.502 98.6468C27.1488 96.2064 29.1924 93.7567 32.4859 94.2471C35.3541 94.6747 36.5922 96.6875 38.1231 98.7932C38.2003 98.8998 38.3022 98.9867 38.4203 99.0469C38.5384 99.1071 38.6693 99.1387 38.8022 99.1391C38.935 99.1396 39.0659 99.1089 39.1841 99.0495C39.3023 98.9902 39.4043 98.9039 39.4816 98.7979C41.0032 96.7247 42.2672 94.7282 45.0621 94.261C48.2918 93.7195 50.3804 96.0274 51.9988 98.4678C52.5492 99.2976 53.0737 99.0652 53.8132 99.3232C55.3962 99.881 55.9112 101.826 54.9922 103.088C54.3496 103.972 53.4006 104.306 52.1452 104.09C49.2841 103.597 48.1028 101.608 46.5317 99.5068C46.4569 99.4064 46.3592 99.3248 46.2464 99.2685C46.1337 99.2122 46.0089 99.1827 45.8823 99.1825C45.7557 99.1823 45.6307 99.2113 45.5174 99.2672C45.4041 99.3231 45.3056 99.4044 45.2299 99.5045C43.576 101.701 42.2388 103.907 39.1556 104.097C35.7912 104.309 34.3028 102.059 32.571 99.6857C32.4025 99.4564 32.1678 99.2875 31.8669 99.1791C31.7955 99.1536 31.7164 99.1553 31.6448 99.1837C31.3472 99.3015 31.107 99.4897 30.9242 99.7485C29.4287 101.864 28.0678 103.832 25.2445 104.085C21.7313 104.402 20.1224 102.01 18.3221 99.5207C18.0173 99.0977 17.1478 99.1558 16.7344 98.9815C14.1308 97.8798 14.9152 94.1657 17.7834 94.2308C20.9068 94.3005 22.3858 96.4435 23.9782 98.7212Z"/>
</mask>
<path d="M12.0493 0H98.9344C105.859 0.588027 110.901 5.74547 110.906 12.5508C110.907 15.5134 110.908 18.4768 110.908 21.4409C110.911 22.8145 110.771 23.9464 109.491 24.5228C109.083 24.7072 108.292 24.7986 107.119 24.7971C101.678 24.7971 96.2434 24.7963 90.8141 24.7948C90.7934 24.7948 90.7736 24.8028 90.759 24.8172C90.7444 24.8316 90.7362 24.8511 90.7362 24.8715V41.9545C90.736 41.9669 90.74 41.9791 90.7476 41.989C90.7552 41.9989 90.766 42.0061 90.7782 42.0093C90.7905 42.0125 90.8034 42.0116 90.8151 42.0067C90.8267 42.0018 90.8364 41.9933 90.8425 41.9824C91.8868 40.2237 92.9381 38.465 93.9966 36.7064C94.8156 35.3444 95.526 34.3814 96.1276 33.8174C97.4554 32.5762 99.0226 31.8217 100.829 31.5536C108.231 30.4589 113.502 38.1962 109.769 44.5367C103.447 55.2777 97.1325 66.0024 90.8259 76.7108C90.7661 76.8131 90.7362 76.9231 90.7362 77.0409C90.7377 89.9945 90.7369 102.947 90.7338 115.899C90.7338 117.573 90.2376 118.663 88.5129 119H2.22558C0.749736 118.665 0.0118129 117.736 0.0118129 116.211C0.0118129 81.6777 0.00787538 47.1437 0 12.6089C0 5.76871 5.11269 0.504355 12.0493 0ZM85.7487 11.9721C85.8621 9.27828 86.4055 7.13768 88.1538 5.0668C88.1623 5.05661 88.1677 5.04428 88.1693 5.03123C88.171 5.01817 88.1688 5.00492 88.1631 4.99301C88.1574 4.9811 88.1485 4.97101 88.1372 4.96392C88.1259 4.95682 88.1129 4.953 88.0995 4.95291C63.4354 4.95291 38.7823 4.95291 14.1402 4.95291C12.5305 4.95291 11.4177 5.02651 10.8019 5.17371C8.25733 5.77568 6.16406 7.74895 5.38912 10.1963C5.17334 10.8812 5.06544 11.8822 5.06544 13.1992C5.06229 46.7795 5.0615 80.3715 5.06308 113.975C5.06308 113.985 5.0651 113.996 5.06901 114.005C5.07293 114.015 5.07868 114.024 5.08592 114.031C5.09316 114.038 5.10175 114.044 5.11121 114.048C5.12067 114.052 5.13081 114.054 5.14105 114.054L85.588 114.052C85.6187 114.052 85.6482 114.04 85.6699 114.019C85.6916 113.998 85.7038 113.97 85.7038 113.94L85.6258 85.5406C85.6258 85.3887 85.5872 85.3786 85.5101 85.5103L81.2763 92.8432C81.1381 93.0816 80.9445 93.2839 80.7116 93.4336C76.8007 95.9592 72.8504 98.5136 68.8607 101.097C67.8511 101.75 66.8753 101.746 65.9334 101.083C65.0734 100.478 64.875 99.6207 64.9388 98.5445C65.1782 94.4911 65.4263 90.4377 65.683 86.3842C65.7255 85.7358 65.7326 84.6829 66.0185 84.1948C72.5661 73.0417 79.1058 61.8955 85.6376 50.7563C85.6841 50.6771 85.7085 50.5874 85.7085 50.496C85.677 40.0943 85.6313 29.6927 85.5715 19.291C85.5605 17.5107 85.6195 15.071 85.7487 11.9721ZM90.8448 19.8302H105.753C105.784 19.8302 105.814 19.818 105.836 19.7962C105.859 19.7744 105.871 19.7448 105.871 19.714V12.488C105.871 11.4994 105.676 10.5205 105.296 9.60713C104.917 8.69378 104.36 7.86388 103.659 7.16482C102.957 6.46577 102.125 5.91125 101.208 5.53293C100.292 5.1546 99.3097 4.95988 98.3178 4.95988H98.28C96.2767 4.95988 94.3555 5.75302 92.939 7.16482C91.5225 8.57663 90.7267 10.4914 90.7267 12.488V19.714C90.7267 19.7448 90.7392 19.7744 90.7613 19.7962C90.7835 19.818 90.8135 19.8302 90.8448 19.8302ZM95.8536 43.7023L102.107 47.2142C102.126 47.2249 102.147 47.2319 102.168 47.2346C102.19 47.2374 102.212 47.2359 102.233 47.2303C102.253 47.2247 102.273 47.215 102.29 47.2019C102.307 47.1887 102.321 47.1724 102.332 47.1538L105.351 41.9429C105.598 41.5171 105.759 41.0483 105.823 40.5632C105.888 40.0781 105.856 39.5863 105.729 39.1158C105.602 38.6453 105.382 38.2053 105.082 37.821C104.782 37.4367 104.408 37.1156 103.981 36.8761L103.946 36.8551C103.519 36.6154 103.047 36.462 102.558 36.4035C102.069 36.345 101.572 36.3827 101.096 36.5143C100.619 36.646 100.173 36.8691 99.781 37.1708C99.3895 37.4725 99.0609 37.847 98.8139 38.2729L95.7922 43.4838C95.7709 43.5208 95.7654 43.5646 95.7769 43.6056C95.7884 43.6465 95.816 43.6813 95.8536 43.7023ZM72.6929 82.7306C75.1405 83.3465 77.2575 84.5783 79.0648 86.3215C79.1263 86.3804 79.1783 86.3734 79.2208 86.3006L99.5204 51.8301C99.5387 51.7985 99.5438 51.7612 99.5345 51.7263C99.5252 51.6915 99.5023 51.6619 99.4707 51.6441L93.1744 48.0695C93.083 48.0184 93.0114 48.0377 92.9594 48.1276L72.6456 82.6213C72.6398 82.6313 72.6364 82.6425 72.6357 82.654C72.635 82.6654 72.637 82.6769 72.6416 82.6875C72.6462 82.6981 72.6532 82.7075 72.6621 82.715C72.671 82.7225 72.6815 82.7278 72.6929 82.7306ZM75.9793 90.3982C74.6846 88.8061 72.7543 87.6788 70.7036 87.3999C70.6201 87.3891 70.576 87.4247 70.5713 87.5068L70.1649 94.1332C70.1554 94.268 70.2082 94.2982 70.3232 94.2238L75.9509 90.5748C76.0265 90.5268 76.036 90.4679 75.9793 90.3982Z" fill="#E5B56C"/>
<path d="M73.104 19.8302H17.6534C16.2729 19.8302 15.1538 20.9312 15.1538 22.2893V22.3357C15.1538 23.6938 16.2729 24.7948 17.6534 24.7948H73.104C74.4845 24.7948 75.6036 23.6938 75.6036 22.3357V22.2893C75.6036 20.9312 74.4845 19.8302 73.104 19.8302Z" fill="#E5B56C"/>
<path d="M73.1111 32.2369H17.6416C16.2663 32.2369 15.1514 33.3337 15.1514 34.6866V34.7378C15.1514 36.0907 16.2663 37.1875 17.6416 37.1875H73.1111C74.4864 37.1875 75.6013 36.0907 75.6013 34.7378V34.6866C75.6013 33.3337 74.4864 32.2369 73.1111 32.2369Z" fill="#E5B56C"/>
<path d="M73.1134 44.6273H17.644C16.2674 44.6273 15.1514 45.7251 15.1514 47.0794V47.1259C15.1514 48.4801 16.2674 49.5779 17.644 49.5779H73.1134C74.49 49.5779 75.606 48.4801 75.606 47.1259V47.0794C75.606 45.7251 74.49 44.6273 73.1134 44.6273Z" fill="#E5B56C"/>
<path d="M57.9903 57.0177H17.6464C16.2711 57.0177 15.1562 58.1145 15.1562 59.4675V59.5325C15.1562 60.8855 16.2711 61.9823 17.6464 61.9823H57.9903C59.3656 61.9823 60.4805 60.8855 60.4805 59.5325V59.4675C60.4805 58.1145 59.3656 57.0177 57.9903 57.0177Z" fill="#E5B56C"/>
<path d="M23.9782 98.7212C24.4082 99.3394 25.1193 99.2139 25.502 98.6468C27.1488 96.2064 29.1924 93.7567 32.4859 94.2471C35.3541 94.6747 36.5922 96.6875 38.1231 98.7932C38.2003 98.8998 38.3022 98.9867 38.4203 99.0469C38.5384 99.1071 38.6693 99.1387 38.8022 99.1391C38.935 99.1396 39.0659 99.1089 39.1841 99.0495C39.3023 98.9902 39.4043 98.9039 39.4816 98.7979C41.0032 96.7247 42.2672 94.7282 45.0621 94.261C48.2918 93.7195 50.3804 96.0274 51.9988 98.4678C52.5492 99.2976 53.0737 99.0652 53.8132 99.3232C55.3962 99.881 55.9112 101.826 54.9922 103.088C54.3496 103.972 53.4006 104.306 52.1452 104.09C49.2841 103.597 48.1028 101.608 46.5317 99.5068C46.4569 99.4064 46.3592 99.3248 46.2464 99.2685C46.1337 99.2122 46.0089 99.1827 45.8823 99.1825C45.7557 99.1823 45.6307 99.2113 45.5174 99.2672C45.4041 99.3231 45.3056 99.4044 45.2299 99.5045C43.576 101.701 42.2388 103.907 39.1556 104.097C35.7912 104.309 34.3028 102.059 32.571 99.6857C32.4025 99.4564 32.1678 99.2875 31.8669 99.1791C31.7955 99.1536 31.7164 99.1553 31.6448 99.1837C31.3472 99.3015 31.107 99.4897 30.9242 99.7485C29.4287 101.864 28.0678 103.832 25.2445 104.085C21.7313 104.402 20.1224 102.01 18.3221 99.5207C18.0173 99.0977 17.1478 99.1558 16.7344 98.9815C14.1308 97.8798 14.9152 94.1657 17.7834 94.2308C20.9068 94.3005 22.3858 96.4435 23.9782 98.7212Z" fill="#E5B56C"/>
<path d="M12.0493 0H98.9344C105.859 0.588027 110.901 5.74547 110.906 12.5508C110.907 15.5134 110.908 18.4768 110.908 21.4409C110.911 22.8145 110.771 23.9464 109.491 24.5228C109.083 24.7072 108.292 24.7986 107.119 24.7971C101.678 24.7971 96.2434 24.7963 90.8141 24.7948C90.7934 24.7948 90.7736 24.8028 90.759 24.8172C90.7444 24.8316 90.7362 24.8511 90.7362 24.8715V41.9545C90.736 41.9669 90.74 41.9791 90.7476 41.989C90.7552 41.9989 90.766 42.0061 90.7782 42.0093C90.7905 42.0125 90.8034 42.0116 90.8151 42.0067C90.8267 42.0018 90.8364 41.9933 90.8425 41.9824C91.8868 40.2237 92.9381 38.465 93.9966 36.7064C94.8156 35.3444 95.526 34.3814 96.1276 33.8174C97.4554 32.5762 99.0226 31.8217 100.829 31.5536C108.231 30.4589 113.502 38.1962 109.769 44.5367C103.447 55.2777 97.1325 66.0024 90.8259 76.7108C90.7661 76.8131 90.7362 76.9231 90.7362 77.0409C90.7377 89.9945 90.7369 102.947 90.7338 115.899C90.7338 117.573 90.2376 118.663 88.5129 119H2.22558C0.749736 118.665 0.0118129 117.736 0.0118129 116.211C0.0118129 81.6777 0.00787538 47.1437 0 12.6089C0 5.76871 5.11269 0.504355 12.0493 0ZM85.7487 11.9721C85.8621 9.27828 86.4055 7.13768 88.1538 5.0668C88.1623 5.05661 88.1677 5.04428 88.1693 5.03123C88.171 5.01817 88.1688 5.00492 88.1631 4.99301C88.1574 4.9811 88.1485 4.97101 88.1372 4.96392C88.1259 4.95682 88.1129 4.953 88.0995 4.95291C63.4354 4.95291 38.7823 4.95291 14.1402 4.95291C12.5305 4.95291 11.4177 5.02651 10.8019 5.17371C8.25733 5.77568 6.16406 7.74895 5.38912 10.1963C5.17334 10.8812 5.06544 11.8822 5.06544 13.1992C5.06229 46.7795 5.0615 80.3715 5.06308 113.975C5.06308 113.985 5.0651 113.996 5.06901 114.005C5.07293 114.015 5.07868 114.024 5.08592 114.031C5.09316 114.038 5.10175 114.044 5.11121 114.048C5.12067 114.052 5.13081 114.054 5.14105 114.054L85.588 114.052C85.6187 114.052 85.6482 114.04 85.6699 114.019C85.6916 113.998 85.7038 113.97 85.7038 113.94L85.6258 85.5406C85.6258 85.3887 85.5872 85.3786 85.5101 85.5103L81.2763 92.8432C81.1381 93.0816 80.9445 93.2839 80.7116 93.4336C76.8007 95.9592 72.8504 98.5136 68.8607 101.097C67.8511 101.75 66.8753 101.746 65.9334 101.083C65.0734 100.478 64.875 99.6207 64.9388 98.5445C65.1782 94.4911 65.4263 90.4377 65.683 86.3842C65.7255 85.7358 65.7326 84.6829 66.0185 84.1948C72.5661 73.0417 79.1058 61.8955 85.6376 50.7563C85.6841 50.6771 85.7085 50.5874 85.7085 50.496C85.677 40.0943 85.6313 29.6927 85.5715 19.291C85.5605 17.5107 85.6195 15.071 85.7487 11.9721ZM90.8448 19.8302H105.753C105.784 19.8302 105.814 19.818 105.836 19.7962C105.859 19.7744 105.871 19.7448 105.871 19.714V12.488C105.871 11.4994 105.676 10.5205 105.296 9.60713C104.917 8.69378 104.36 7.86388 103.659 7.16482C102.957 6.46577 102.125 5.91125 101.208 5.53293C100.292 5.1546 99.3097 4.95988 98.3178 4.95988H98.28C96.2767 4.95988 94.3555 5.75302 92.939 7.16482C91.5225 8.57663 90.7267 10.4914 90.7267 12.488V19.714C90.7267 19.7448 90.7392 19.7744 90.7613 19.7962C90.7835 19.818 90.8135 19.8302 90.8448 19.8302ZM95.8536 43.7023L102.107 47.2142C102.126 47.2249 102.147 47.2319 102.168 47.2346C102.19 47.2374 102.212 47.2359 102.233 47.2303C102.253 47.2247 102.273 47.215 102.29 47.2019C102.307 47.1887 102.321 47.1724 102.332 47.1538L105.351 41.9429C105.598 41.5171 105.759 41.0483 105.823 40.5632C105.888 40.0781 105.856 39.5863 105.729 39.1158C105.602 38.6453 105.382 38.2053 105.082 37.821C104.782 37.4367 104.408 37.1156 103.981 36.8761L103.946 36.8551C103.519 36.6154 103.047 36.462 102.558 36.4035C102.069 36.345 101.572 36.3827 101.096 36.5143C100.619 36.646 100.173 36.8691 99.781 37.1708C99.3895 37.4725 99.0609 37.847 98.8139 38.2729L95.7922 43.4838C95.7709 43.5208 95.7654 43.5646 95.7769 43.6056C95.7884 43.6465 95.816 43.6813 95.8536 43.7023ZM72.6929 82.7306C75.1405 83.3465 77.2575 84.5783 79.0648 86.3215C79.1263 86.3804 79.1783 86.3734 79.2208 86.3006L99.5204 51.8301C99.5387 51.7985 99.5438 51.7612 99.5345 51.7263C99.5252 51.6915 99.5023 51.6619 99.4707 51.6441L93.1744 48.0695C93.083 48.0184 93.0114 48.0377 92.9594 48.1276L72.6456 82.6213C72.6398 82.6313 72.6364 82.6425 72.6357 82.654C72.635 82.6654 72.637 82.6769 72.6416 82.6875C72.6462 82.6981 72.6532 82.7075 72.6621 82.715C72.671 82.7225 72.6815 82.7278 72.6929 82.7306ZM75.9793 90.3982C74.6846 88.8061 72.7543 87.6788 70.7036 87.3999C70.6201 87.3891 70.576 87.4247 70.5713 87.5068L70.1649 94.1332C70.1554 94.268 70.2082 94.2982 70.3232 94.2238L75.9509 90.5748C76.0265 90.5268 76.036 90.4679 75.9793 90.3982Z" stroke="#F9F1E8" mask="url(#path-1-inside-1_133_483)"/>
<path d="M73.104 19.8302H17.6534C16.2729 19.8302 15.1538 20.9312 15.1538 22.2893V22.3357C15.1538 23.6938 16.2729 24.7948 17.6534 24.7948H73.104C74.4845 24.7948 75.6036 23.6938 75.6036 22.3357V22.2893C75.6036 20.9312 74.4845 19.8302 73.104 19.8302Z" stroke="#F9F1E8" mask="url(#path-1-inside-1_133_483)"/>
<path d="M73.1111 32.2369H17.6416C16.2663 32.2369 15.1514 33.3337 15.1514 34.6866V34.7378C15.1514 36.0907 16.2663 37.1875 17.6416 37.1875H73.1111C74.4864 37.1875 75.6013 36.0907 75.6013 34.7378V34.6866C75.6013 33.3337 74.4864 32.2369 73.1111 32.2369Z" stroke="#F9F1E8" mask="url(#path-1-inside-1_133_483)"/>
<path d="M73.1134 44.6273H17.644C16.2674 44.6273 15.1514 45.7251 15.1514 47.0794V47.1259C15.1514 48.4801 16.2674 49.5779 17.644 49.5779H73.1134C74.49 49.5779 75.606 48.4801 75.606 47.1259V47.0794C75.606 45.7251 74.49 44.6273 73.1134 44.6273Z" stroke="#F9F1E8" mask="url(#path-1-inside-1_133_483)"/>
<path d="M57.9903 57.0177H17.6464C16.2711 57.0177 15.1562 58.1145 15.1562 59.4675V59.5325C15.1562 60.8855 16.2711 61.9823 17.6464 61.9823H57.9903C59.3656 61.9823 60.4805 60.8855 60.4805 59.5325V59.4675C60.4805 58.1145 59.3656 57.0177 57.9903 57.0177Z" stroke="#F9F1E8" mask="url(#path-1-inside-1_133_483)"/>
<path d="M23.9782 98.7212C24.4082 99.3394 25.1193 99.2139 25.502 98.6468C27.1488 96.2064 29.1924 93.7567 32.4859 94.2471C35.3541 94.6747 36.5922 96.6875 38.1231 98.7932C38.2003 98.8998 38.3022 98.9867 38.4203 99.0469C38.5384 99.1071 38.6693 99.1387 38.8022 99.1391C38.935 99.1396 39.0659 99.1089 39.1841 99.0495C39.3023 98.9902 39.4043 98.9039 39.4816 98.7979C41.0032 96.7247 42.2672 94.7282 45.0621 94.261C48.2918 93.7195 50.3804 96.0274 51.9988 98.4678C52.5492 99.2976 53.0737 99.0652 53.8132 99.3232C55.3962 99.881 55.9112 101.826 54.9922 103.088C54.3496 103.972 53.4006 104.306 52.1452 104.09C49.2841 103.597 48.1028 101.608 46.5317 99.5068C46.4569 99.4064 46.3592 99.3248 46.2464 99.2685C46.1337 99.2122 46.0089 99.1827 45.8823 99.1825C45.7557 99.1823 45.6307 99.2113 45.5174 99.2672C45.4041 99.3231 45.3056 99.4044 45.2299 99.5045C43.576 101.701 42.2388 103.907 39.1556 104.097C35.7912 104.309 34.3028 102.059 32.571 99.6857C32.4025 99.4564 32.1678 99.2875 31.8669 99.1791C31.7955 99.1536 31.7164 99.1553 31.6448 99.1837C31.3472 99.3015 31.107 99.4897 30.9242 99.7485C29.4287 101.864 28.0678 103.832 25.2445 104.085C21.7313 104.402 20.1224 102.01 18.3221 99.5207C18.0173 99.0977 17.1478 99.1558 16.7344 98.9815C14.1308 97.8798 14.9152 94.1657 17.7834 94.2308C20.9068 94.3005 22.3858 96.4435 23.9782 98.7212Z" stroke="#F9F1E8" mask="url(#path-1-inside-1_133_483)"/>
</g>
</svg>
