<svg width="16" height="16" viewBox="0 0 16 16" fill="none" xmlns="http://www.w3.org/2000/svg">
<path id="logo_2" d="M16 8C16 9.05057 15.7931 10.0909 15.391 11.0615C14.989 12.0321 14.3997 12.914 13.6569 13.6569C12.914 14.3997 12.0321 14.989 11.0615 15.391C10.0909 15.7931 9.05057 16 8 16C5.87827 16 3.84344 15.1571 2.34315 13.6569C0.842854 12.1566 0 10.1217 0 8C0 5.87827 0.842854 3.84344 2.34315 2.34315C3.84344 0.842855 5.87827 0 8 0C9.05057 0 10.0909 0.206926 11.0615 0.608964C12.0321 1.011 12.914 1.60028 13.6569 2.34315C14.3997 3.08601 14.989 3.96793 15.391 4.93853C15.7931 5.90914 16 6.94942 16 8ZM12.9001 7.31239L12.9095 11.4259C12.9095 11.4588 12.9169 11.4913 12.9313 11.5211C12.9457 11.5509 12.9667 11.5771 12.9926 11.5978L13.7727 12.2191C13.8014 12.2421 13.8266 12.2387 13.8484 12.2088C16.2046 8.89314 15.4479 4.38912 12.0808 2.08899C10.1519 0.771069 7.99097 0.476157 5.59804 1.20425C5.34517 1.28148 5.11845 1.36712 4.9179 1.46117C4.83257 1.50165 4.82853 1.54899 4.90576 1.60318L12.8544 7.2227C12.8849 7.2445 12.9001 7.2744 12.9001 7.31239ZM11.1867 7.02558C8.85795 5.37382 6.52824 3.72362 4.19759 2.07497C4.1023 2.00771 4.00888 2.00179 3.91732 2.05722C3.8376 2.10518 3.79742 2.17587 3.7968 2.2693C3.79493 3.11013 3.79244 3.95095 3.78933 4.79178C3.7887 4.89766 3.84009 4.98828 3.94348 5.06365C6.63786 7.02371 9.34563 8.96571 12.0668 10.8896C12.0716 10.8931 12.0772 10.8952 12.0831 10.8956C12.089 10.8961 12.0949 10.8949 12.1001 10.8922C12.1053 10.8894 12.1097 10.8853 12.1128 10.8803C12.1158 10.8752 12.1173 10.8694 12.1172 10.8635L12.1042 7.75896C12.1039 7.7414 12.0997 7.72409 12.092 7.70827C12.0842 7.69244 12.0731 7.67849 12.0593 7.66741C11.8401 7.49675 11.5492 7.28281 11.1867 7.02558ZM2.93729 2.82892C0.148546 5.7307 0.109308 10.1731 2.8859 13.1066C2.90895 13.1315 2.93231 13.1455 2.95597 13.1487C2.96202 13.1496 2.96819 13.1492 2.97408 13.1476C2.97996 13.1459 2.9854 13.1429 2.99003 13.1389C2.99465 13.1349 2.99835 13.13 3.00086 13.1244C3.00337 13.1188 3.00463 13.1127 3.00455 13.1066L3.00362 2.85601C3.00382 2.84823 3.00165 2.84058 2.9974 2.83407C2.99315 2.82755 2.98701 2.82249 2.97981 2.81955C2.97261 2.81661 2.96469 2.81593 2.95709 2.8176C2.94949 2.81928 2.94259 2.82322 2.93729 2.82892ZM3.80241 6.04555L3.82296 13.7531C3.82298 13.7931 3.83281 13.8323 3.85156 13.8674C3.8703 13.9024 3.89739 13.9322 3.9304 13.954C5.02285 14.6796 6.22772 15.0841 7.54502 15.1676C7.55256 15.1681 7.56013 15.167 7.56725 15.1644C7.57437 15.1619 7.58089 15.1578 7.58641 15.1525C7.59193 15.1473 7.59633 15.1409 7.59934 15.1339C7.60234 15.1268 7.60389 15.1192 7.60388 15.1115L7.5964 8.77263C7.59642 8.74316 7.58948 8.71414 7.57616 8.68799C7.56284 8.66183 7.54352 8.63929 7.51979 8.62221L3.87528 6.00817C3.86842 6.00314 3.86031 6.00012 3.85183 5.99944C3.84335 5.99876 3.83486 6.00046 3.82729 6.00434C3.81973 6.00822 3.81339 6.01413 3.809 6.02141C3.8046 6.02869 3.80232 6.03704 3.80241 6.04555ZM9.50788 15.0088C10.9958 14.7036 12.2568 13.991 13.2907 12.8712C13.2996 12.8615 13.3065 12.85 13.3106 12.8374C13.3148 12.8249 13.3163 12.8116 13.315 12.7984C13.3137 12.7853 13.3096 12.7725 13.303 12.7611C13.2964 12.7496 13.2874 12.7397 13.2767 12.732L8.46993 9.30702C8.46341 9.30222 8.45569 9.29936 8.44762 9.29875C8.43956 9.29815 8.43145 9.29982 8.42421 9.30359C8.41696 9.30736 8.41086 9.31307 8.40656 9.3201C8.40227 9.32714 8.39995 9.33522 8.39986 9.34345L8.40266 15.0919C8.40266 15.1012 8.4045 15.1104 8.40808 15.1189C8.41166 15.1275 8.41691 15.1353 8.42351 15.1418C8.43012 15.1483 8.43795 15.1534 8.44656 15.1569C8.45517 15.1604 8.46439 15.1621 8.47367 15.162C8.81934 15.1545 9.09588 15.0928 9.50788 15.0088Z" fill="#E5B56C"/>
</svg>
