<svg width="121" height="119" viewBox="0 0 121 119" fill="none" xmlns="http://www.w3.org/2000/svg">
<g id="Vector">
<mask id="path-1-inside-1_133_476" fill="white">
<path d="M32.2749 70.7954C32.5231 73.4741 32.7731 76.1547 33.0249 78.837C33.2392 81.1122 32.5856 83.092 30.3972 84.0021C29.7436 84.2717 28.6338 84.4172 27.0677 84.4385C24.2087 84.4757 21.3516 84.5219 18.4962 84.5769C18.4051 84.5786 18.3346 84.6159 18.2846 84.6886C17.3256 86.1203 16.9051 87.0649 15.2149 87.0649C11.0684 87.0667 6.92195 87.0685 2.77547 87.0702C0.986167 87.0702 0.504018 85.8541 0.501339 84.2283C0.497768 80.2296 0.50134 76.231 0.512054 72.2323C0.51384 71.5529 0.7567 70.9781 1.24063 70.508C12.289 59.768 23.323 49.013 34.3428 38.2429C34.4071 38.1808 34.424 38.1072 34.3937 38.0221C31.1258 28.9355 31.9588 20.5151 36.8928 12.7609C40.4446 7.18066 46.2304 2.89374 52.5385 1.11883C60.1815 -1.02952 67.5226 -0.0839623 74.562 3.95549C74.6388 3.99984 74.7173 4.00427 74.7977 3.96879C81.496 1.01327 87.9184 1.12592 94.0649 4.30675C100.215 7.492 104.169 13.2398 105.251 20.0947C105.265 20.1798 105.306 20.2508 105.374 20.3075C112.401 26.176 117.104 30.0735 119.485 32.0001C120.158 32.5448 120.495 33.2047 120.495 33.9799C120.498 61.3797 120.5 88.7795 120.5 116.179C120.5 117.733 120.007 119 118.29 119C101.388 119 84.4853 119 67.5816 119C65.9128 119 64.8333 118.42 64.8333 116.672C64.8369 96.1639 64.836 75.6553 64.8306 55.1458C64.8305 55.1252 64.8259 55.1049 64.8171 55.0863C64.8084 55.0676 64.7957 55.051 64.78 55.0377C64.7642 55.0243 64.7458 55.0144 64.7259 55.0088C64.7059 55.0031 64.685 55.0017 64.6646 55.0048C59.5663 55.78 54.6323 55.2239 49.8626 53.3363C49.8148 53.3181 49.7627 53.3139 49.7128 53.3243C49.6629 53.3347 49.6172 53.3592 49.5814 53.3948L46.7313 56.2262C46.667 56.2918 46.6447 56.3681 46.6644 56.455C47.2179 58.9014 47.7715 61.3442 48.3251 63.7835C48.7322 65.5824 48.9331 66.6965 48.9278 67.1258C48.8956 70.1381 46.1902 72.2776 43.1607 71.9024C39.5821 71.4606 35.9991 71.0473 32.4115 70.6623C32.3115 70.6517 32.266 70.696 32.2749 70.7954ZM51.0251 49.1239C66.2717 55.1245 82.8657 44.3447 83.3371 28.0565C83.5487 20.6961 80.3558 13.953 74.6584 9.22168C74.6261 9.19424 74.5858 9.17806 74.5436 9.17565C74.5015 9.17324 74.4599 9.18475 74.4254 9.20837C72.6236 10.4218 71.1102 11.9217 69.8852 13.7082C69.8793 13.7166 69.8753 13.7262 69.8734 13.7362C69.8715 13.7463 69.8716 13.7566 69.8739 13.7666C69.8761 13.7766 69.8804 13.786 69.8865 13.7943C69.8926 13.8025 69.9004 13.8095 69.9093 13.8146C73.2075 15.8406 75.0468 18.593 75.4272 22.0718C76.37 30.7175 66.8744 36.8299 59.4199 32.4126C49.8278 26.7286 54.076 12.1355 65.4038 12.5772C65.4985 12.5808 65.5699 12.5418 65.6181 12.4602C66.8967 10.2976 68.5084 8.41893 70.453 6.82408C70.5334 6.75667 70.5262 6.70079 70.4316 6.65644C59.3288 1.46476 45.9251 5.42172 39.8634 16.1457C36.0312 22.9242 35.6919 30.0576 38.8455 37.5457C39.2634 38.541 39.3919 39.4191 38.6125 40.1775C27.3677 51.1126 16.1194 62.0459 4.86746 72.9774C4.8121 73.0324 4.78442 73.0989 4.78442 73.177V82.7301C4.78442 82.7612 4.79712 82.7909 4.81973 82.8129C4.84233 82.8348 4.87299 82.8472 4.90496 82.8472H14.2318C14.2776 82.8472 14.3227 82.8366 14.3636 82.8163C14.4045 82.796 14.4401 82.7664 14.4676 82.7301C15.0542 81.9531 15.8979 80.4177 16.9051 80.3964C20.7801 80.3183 24.6293 80.2527 28.4525 80.1995C28.5038 80.1986 28.5544 80.1872 28.601 80.166C28.6477 80.1448 28.6894 80.1142 28.7236 80.0763C28.7578 80.0383 28.7838 79.9937 28.7998 79.9453C28.8158 79.8969 28.8216 79.8457 28.8168 79.795C28.515 76.5946 28.2195 73.4076 27.9302 70.2339C27.7775 68.5734 28.9776 67.8203 30.0517 66.8597C30.557 66.4091 31.1972 66.2308 31.9722 66.3248C35.9437 66.8056 39.8946 67.2863 43.825 67.7671C43.9401 67.7815 44.057 67.7682 44.1658 67.7283C44.2746 67.6884 44.3721 67.623 44.4499 67.5379C44.5278 67.4527 44.5837 67.3502 44.6129 67.2391C44.6422 67.128 44.6439 67.0115 44.6179 66.8996C43.8125 63.3569 43.0054 59.7645 42.1964 56.1224C42.0232 55.3436 42.1295 54.7591 42.5152 54.3688C44.2045 52.6569 45.8947 50.9396 47.5858 49.217C48.7028 48.0834 49.7581 48.6263 51.0251 49.1239ZM99.0739 14.903C94.9328 7.84592 86.8139 4.54358 78.9228 6.95181C78.8049 6.98907 78.7915 7.0485 78.8826 7.1301C81.5862 9.51794 83.7139 12.3369 85.2657 15.5869C85.3139 15.688 85.3835 15.7048 85.4746 15.6374C86.2085 15.0999 86.9693 14.3788 87.6389 13.9743C91.4774 11.6512 95.5408 12.1515 98.9828 14.9802C98.994 14.9882 99.0076 14.9922 99.0214 14.9917C99.0351 14.9911 99.0483 14.986 99.0588 14.9771C99.0693 14.9682 99.0765 14.9561 99.0792 14.9426C99.082 14.9292 99.0801 14.9152 99.0739 14.903ZM88.0434 30.635C90.9541 29.3932 93.7363 29.2735 96.3899 30.2758C104.158 33.2109 105.851 43.5384 99.1971 48.6236C93.7193 52.8094 85.713 50.9094 82.8844 44.6454C82.8632 44.598 82.8301 44.557 82.7882 44.5261C82.7463 44.4952 82.6971 44.4757 82.6454 44.4692C82.5937 44.4628 82.5411 44.4698 82.4929 44.4894C82.4447 44.5091 82.4024 44.5408 82.3701 44.5815C78.8897 48.9403 74.4959 52.0289 69.1887 53.8472C69.1101 53.8756 69.0709 53.9306 69.0709 54.0122V114.543C69.0709 114.596 69.092 114.646 69.1297 114.684C69.1674 114.721 69.2185 114.742 69.2718 114.742H116.013C116.067 114.742 116.118 114.721 116.155 114.684C116.193 114.646 116.214 114.596 116.214 114.543V34.9858C116.214 34.8936 116.179 34.8182 116.11 34.7596C109.363 29.159 102.613 23.5549 95.8596 17.9472C94.4738 16.7941 92.9345 16.4783 91.2416 16.9999C89.7148 17.4682 88.3005 18.8706 87.063 20.0015C86.997 20.0618 86.9764 20.1355 87.0014 20.2224C87.9711 23.6055 88.2827 27.0497 87.9362 30.5552C87.9347 30.5686 87.9368 30.5821 87.9421 30.5944C87.9475 30.6068 87.956 30.6175 87.9668 30.6256C87.9777 30.6336 87.9904 30.6387 88.0038 30.6404C88.0173 30.6421 88.0309 30.6402 88.0434 30.635ZM62.4279 17.1941C56.5993 19.7354 57.1591 28.0432 63.4726 29.3684C63.5744 29.3897 63.6101 29.3506 63.5797 29.2513C62.3422 25.1888 62.3386 21.1236 63.569 17.0558C63.6029 16.944 63.561 16.8934 63.4431 16.9041C63.1378 16.936 62.7994 17.0327 62.4279 17.1941ZM68.0208 28.6419C72.3307 26.3508 72.1754 20.0867 68.0289 17.7343C67.936 17.6811 67.8726 17.7042 67.8387 17.8035C66.6333 21.3959 66.6369 24.9856 67.8494 28.5727C67.8798 28.6632 67.9369 28.6863 68.0208 28.6419ZM96.2158 34.9698C94.1426 33.461 91.2336 33.5861 89.1363 34.9193C87.4041 36.0227 86.4309 37.6947 86.2166 39.9353C86.2148 39.953 86.217 39.9709 86.2232 39.9876C86.2294 40.0042 86.2393 40.0193 86.2522 40.0316C86.2651 40.0439 86.2807 40.0532 86.2977 40.0586C86.3148 40.0641 86.3328 40.0656 86.3505 40.0631C90.1952 39.4989 93.4881 37.8624 96.2292 35.1535C96.2971 35.086 96.2926 35.0248 96.2158 34.9698ZM98.6935 38.698C95.5649 41.5772 91.997 43.3335 87.805 44.1132C87.7068 44.1309 87.6889 44.1779 87.7514 44.2542C91.9568 49.4432 100.499 45.1776 98.8462 38.7432C98.8212 38.6438 98.7703 38.6288 98.6935 38.698Z"/>
<path d="M37.4041 50.5187L37.3397 50.4547C36.5186 49.6389 35.1872 49.6389 34.3661 50.4547L25.3617 59.4C24.5406 60.2158 24.5406 61.5384 25.3617 62.3542L25.4261 62.4181C26.2473 63.2339 27.5786 63.2339 28.3998 62.4181L37.4041 53.4728C38.2253 52.6571 38.2253 51.3344 37.4041 50.5187Z"/>
<path d="M84.1371 59.4115L84.046 59.4114C82.8892 59.4094 81.9497 60.3394 81.9477 61.4887L81.9139 80.7066C81.9119 81.8559 82.8481 82.7892 84.005 82.7912L84.096 82.7914C85.2529 82.7934 86.1923 81.8633 86.1943 80.7141L86.2281 61.4961C86.2301 60.3468 85.2939 59.4136 84.1371 59.4115Z"/>
<path d="M101.241 59.4061H101.187C100.02 59.4061 99.0739 60.3461 99.0739 61.5057V95.5989C99.0739 96.7584 100.02 97.6984 101.187 97.6984H101.241C102.408 97.6984 103.354 96.7584 103.354 95.5989V61.5057C103.354 60.3461 102.408 59.4061 101.241 59.4061Z"/>
<path d="M20.7628 69.1808L20.6491 69.0679C19.8478 68.2718 18.5487 68.2718 17.7474 69.0679L14.751 72.0446C13.9497 72.8406 13.9497 74.1312 14.751 74.9273L14.8647 75.0402C15.6659 75.8362 16.9651 75.8362 17.7664 75.0402L20.7628 72.0634C21.564 71.2674 21.564 69.9768 20.7628 69.1808Z"/>
<path d="M84.1567 87.0915H83.9853C82.8551 87.0915 81.9389 88.0018 81.9389 89.1246V95.6547C81.9389 96.7775 82.8551 97.6878 83.9853 97.6878H84.1567C85.287 97.6878 86.2032 96.7775 86.2032 95.6547V89.1246C86.2032 88.0018 85.287 87.0915 84.1567 87.0915Z"/>
</mask>
<path d="M32.2749 70.7954C32.5231 73.4741 32.7731 76.1547 33.0249 78.837C33.2392 81.1122 32.5856 83.092 30.3972 84.0021C29.7436 84.2717 28.6338 84.4172 27.0677 84.4385C24.2087 84.4757 21.3516 84.5219 18.4962 84.5769C18.4051 84.5786 18.3346 84.6159 18.2846 84.6886C17.3256 86.1203 16.9051 87.0649 15.2149 87.0649C11.0684 87.0667 6.92195 87.0685 2.77547 87.0702C0.986167 87.0702 0.504018 85.8541 0.501339 84.2283C0.497768 80.2296 0.50134 76.231 0.512054 72.2323C0.51384 71.5529 0.7567 70.9781 1.24063 70.508C12.289 59.768 23.323 49.013 34.3428 38.2429C34.4071 38.1808 34.424 38.1072 34.3937 38.0221C31.1258 28.9355 31.9588 20.5151 36.8928 12.7609C40.4446 7.18066 46.2304 2.89374 52.5385 1.11883C60.1815 -1.02952 67.5226 -0.0839623 74.562 3.95549C74.6388 3.99984 74.7173 4.00427 74.7977 3.96879C81.496 1.01327 87.9184 1.12592 94.0649 4.30675C100.215 7.492 104.169 13.2398 105.251 20.0947C105.265 20.1798 105.306 20.2508 105.374 20.3075C112.401 26.176 117.104 30.0735 119.485 32.0001C120.158 32.5448 120.495 33.2047 120.495 33.9799C120.498 61.3797 120.5 88.7795 120.5 116.179C120.5 117.733 120.007 119 118.29 119C101.388 119 84.4853 119 67.5816 119C65.9128 119 64.8333 118.42 64.8333 116.672C64.8369 96.1639 64.836 75.6553 64.8306 55.1458C64.8305 55.1252 64.8259 55.1049 64.8171 55.0863C64.8084 55.0676 64.7957 55.051 64.78 55.0377C64.7642 55.0243 64.7458 55.0144 64.7259 55.0088C64.7059 55.0031 64.685 55.0017 64.6646 55.0048C59.5663 55.78 54.6323 55.2239 49.8626 53.3363C49.8148 53.3181 49.7627 53.3139 49.7128 53.3243C49.6629 53.3347 49.6172 53.3592 49.5814 53.3948L46.7313 56.2262C46.667 56.2918 46.6447 56.3681 46.6644 56.455C47.2179 58.9014 47.7715 61.3442 48.3251 63.7835C48.7322 65.5824 48.9331 66.6965 48.9278 67.1258C48.8956 70.1381 46.1902 72.2776 43.1607 71.9024C39.5821 71.4606 35.9991 71.0473 32.4115 70.6623C32.3115 70.6517 32.266 70.696 32.2749 70.7954ZM51.0251 49.1239C66.2717 55.1245 82.8657 44.3447 83.3371 28.0565C83.5487 20.6961 80.3558 13.953 74.6584 9.22168C74.6261 9.19424 74.5858 9.17806 74.5436 9.17565C74.5015 9.17324 74.4599 9.18475 74.4254 9.20837C72.6236 10.4218 71.1102 11.9217 69.8852 13.7082C69.8793 13.7166 69.8753 13.7262 69.8734 13.7362C69.8715 13.7463 69.8716 13.7566 69.8739 13.7666C69.8761 13.7766 69.8804 13.786 69.8865 13.7943C69.8926 13.8025 69.9004 13.8095 69.9093 13.8146C73.2075 15.8406 75.0468 18.593 75.4272 22.0718C76.37 30.7175 66.8744 36.8299 59.4199 32.4126C49.8278 26.7286 54.076 12.1355 65.4038 12.5772C65.4985 12.5808 65.5699 12.5418 65.6181 12.4602C66.8967 10.2976 68.5084 8.41893 70.453 6.82408C70.5334 6.75667 70.5262 6.70079 70.4316 6.65644C59.3288 1.46476 45.9251 5.42172 39.8634 16.1457C36.0312 22.9242 35.6919 30.0576 38.8455 37.5457C39.2634 38.541 39.3919 39.4191 38.6125 40.1775C27.3677 51.1126 16.1194 62.0459 4.86746 72.9774C4.8121 73.0324 4.78442 73.0989 4.78442 73.177V82.7301C4.78442 82.7612 4.79712 82.7909 4.81973 82.8129C4.84233 82.8348 4.87299 82.8472 4.90496 82.8472H14.2318C14.2776 82.8472 14.3227 82.8366 14.3636 82.8163C14.4045 82.796 14.4401 82.7664 14.4676 82.7301C15.0542 81.9531 15.8979 80.4177 16.9051 80.3964C20.7801 80.3183 24.6293 80.2527 28.4525 80.1995C28.5038 80.1986 28.5544 80.1872 28.601 80.166C28.6477 80.1448 28.6894 80.1142 28.7236 80.0763C28.7578 80.0383 28.7838 79.9937 28.7998 79.9453C28.8158 79.8969 28.8216 79.8457 28.8168 79.795C28.515 76.5946 28.2195 73.4076 27.9302 70.2339C27.7775 68.5734 28.9776 67.8203 30.0517 66.8597C30.557 66.4091 31.1972 66.2308 31.9722 66.3248C35.9437 66.8056 39.8946 67.2863 43.825 67.7671C43.9401 67.7815 44.057 67.7682 44.1658 67.7283C44.2746 67.6884 44.3721 67.623 44.4499 67.5379C44.5278 67.4527 44.5837 67.3502 44.6129 67.2391C44.6422 67.128 44.6439 67.0115 44.6179 66.8996C43.8125 63.3569 43.0054 59.7645 42.1964 56.1224C42.0232 55.3436 42.1295 54.7591 42.5152 54.3688C44.2045 52.6569 45.8947 50.9396 47.5858 49.217C48.7028 48.0834 49.7581 48.6263 51.0251 49.1239ZM99.0739 14.903C94.9328 7.84592 86.8139 4.54358 78.9228 6.95181C78.8049 6.98907 78.7915 7.0485 78.8826 7.1301C81.5862 9.51794 83.7139 12.3369 85.2657 15.5869C85.3139 15.688 85.3835 15.7048 85.4746 15.6374C86.2085 15.0999 86.9693 14.3788 87.6389 13.9743C91.4774 11.6512 95.5408 12.1515 98.9828 14.9802C98.994 14.9882 99.0076 14.9922 99.0214 14.9917C99.0351 14.9911 99.0483 14.986 99.0588 14.9771C99.0693 14.9682 99.0765 14.9561 99.0792 14.9426C99.082 14.9292 99.0801 14.9152 99.0739 14.903ZM88.0434 30.635C90.9541 29.3932 93.7363 29.2735 96.3899 30.2758C104.158 33.2109 105.851 43.5384 99.1971 48.6236C93.7193 52.8094 85.713 50.9094 82.8844 44.6454C82.8632 44.598 82.8301 44.557 82.7882 44.5261C82.7463 44.4952 82.6971 44.4757 82.6454 44.4692C82.5937 44.4628 82.5411 44.4698 82.4929 44.4894C82.4447 44.5091 82.4024 44.5408 82.3701 44.5815C78.8897 48.9403 74.4959 52.0289 69.1887 53.8472C69.1101 53.8756 69.0709 53.9306 69.0709 54.0122V114.543C69.0709 114.596 69.092 114.646 69.1297 114.684C69.1674 114.721 69.2185 114.742 69.2718 114.742H116.013C116.067 114.742 116.118 114.721 116.155 114.684C116.193 114.646 116.214 114.596 116.214 114.543V34.9858C116.214 34.8936 116.179 34.8182 116.11 34.7596C109.363 29.159 102.613 23.5549 95.8596 17.9472C94.4738 16.7941 92.9345 16.4783 91.2416 16.9999C89.7148 17.4682 88.3005 18.8706 87.063 20.0015C86.997 20.0618 86.9764 20.1355 87.0014 20.2224C87.9711 23.6055 88.2827 27.0497 87.9362 30.5552C87.9347 30.5686 87.9368 30.5821 87.9421 30.5944C87.9475 30.6068 87.956 30.6175 87.9668 30.6256C87.9777 30.6336 87.9904 30.6387 88.0038 30.6404C88.0173 30.6421 88.0309 30.6402 88.0434 30.635ZM62.4279 17.1941C56.5993 19.7354 57.1591 28.0432 63.4726 29.3684C63.5744 29.3897 63.6101 29.3506 63.5797 29.2513C62.3422 25.1888 62.3386 21.1236 63.569 17.0558C63.6029 16.944 63.561 16.8934 63.4431 16.9041C63.1378 16.936 62.7994 17.0327 62.4279 17.1941ZM68.0208 28.6419C72.3307 26.3508 72.1754 20.0867 68.0289 17.7343C67.936 17.6811 67.8726 17.7042 67.8387 17.8035C66.6333 21.3959 66.6369 24.9856 67.8494 28.5727C67.8798 28.6632 67.9369 28.6863 68.0208 28.6419ZM96.2158 34.9698C94.1426 33.461 91.2336 33.5861 89.1363 34.9193C87.4041 36.0227 86.4309 37.6947 86.2166 39.9353C86.2148 39.953 86.217 39.9709 86.2232 39.9876C86.2294 40.0042 86.2393 40.0193 86.2522 40.0316C86.2651 40.0439 86.2807 40.0532 86.2977 40.0586C86.3148 40.0641 86.3328 40.0656 86.3505 40.0631C90.1952 39.4989 93.4881 37.8624 96.2292 35.1535C96.2971 35.086 96.2926 35.0248 96.2158 34.9698ZM98.6935 38.698C95.5649 41.5772 91.997 43.3335 87.805 44.1132C87.7068 44.1309 87.6889 44.1779 87.7514 44.2542C91.9568 49.4432 100.499 45.1776 98.8462 38.7432C98.8212 38.6438 98.7703 38.6288 98.6935 38.698Z" fill="#E5B56C"/>
<path d="M37.4041 50.5187L37.3397 50.4547C36.5186 49.6389 35.1872 49.6389 34.3661 50.4547L25.3617 59.4C24.5406 60.2158 24.5406 61.5384 25.3617 62.3542L25.4261 62.4181C26.2473 63.2339 27.5786 63.2339 28.3998 62.4181L37.4041 53.4728C38.2253 52.6571 38.2253 51.3344 37.4041 50.5187Z" fill="#E5B56C"/>
<path d="M84.1371 59.4115L84.046 59.4114C82.8892 59.4094 81.9497 60.3394 81.9477 61.4887L81.9139 80.7066C81.9119 81.8559 82.8481 82.7892 84.005 82.7912L84.096 82.7914C85.2529 82.7934 86.1923 81.8633 86.1943 80.7141L86.2281 61.4961C86.2301 60.3468 85.2939 59.4136 84.1371 59.4115Z" fill="#E5B56C"/>
<path d="M101.241 59.4061H101.187C100.02 59.4061 99.0739 60.3461 99.0739 61.5057V95.5989C99.0739 96.7584 100.02 97.6984 101.187 97.6984H101.241C102.408 97.6984 103.354 96.7584 103.354 95.5989V61.5057C103.354 60.3461 102.408 59.4061 101.241 59.4061Z" fill="#E5B56C"/>
<path d="M20.7628 69.1808L20.6491 69.0679C19.8478 68.2718 18.5487 68.2718 17.7474 69.0679L14.751 72.0446C13.9497 72.8406 13.9497 74.1312 14.751 74.9273L14.8647 75.0402C15.6659 75.8362 16.9651 75.8362 17.7664 75.0402L20.7628 72.0634C21.564 71.2674 21.564 69.9768 20.7628 69.1808Z" fill="#E5B56C"/>
<path d="M84.1567 87.0915H83.9853C82.8551 87.0915 81.9389 88.0018 81.9389 89.1246V95.6547C81.9389 96.7775 82.8551 97.6878 83.9853 97.6878H84.1567C85.287 97.6878 86.2032 96.7775 86.2032 95.6547V89.1246C86.2032 88.0018 85.287 87.0915 84.1567 87.0915Z" fill="#E5B56C"/>
<path d="M32.2749 70.7954C32.5231 73.4741 32.7731 76.1547 33.0249 78.837C33.2392 81.1122 32.5856 83.092 30.3972 84.0021C29.7436 84.2717 28.6338 84.4172 27.0677 84.4385C24.2087 84.4757 21.3516 84.5219 18.4962 84.5769C18.4051 84.5786 18.3346 84.6159 18.2846 84.6886C17.3256 86.1203 16.9051 87.0649 15.2149 87.0649C11.0684 87.0667 6.92195 87.0685 2.77547 87.0702C0.986167 87.0702 0.504018 85.8541 0.501339 84.2283C0.497768 80.2296 0.50134 76.231 0.512054 72.2323C0.51384 71.5529 0.7567 70.9781 1.24063 70.508C12.289 59.768 23.323 49.013 34.3428 38.2429C34.4071 38.1808 34.424 38.1072 34.3937 38.0221C31.1258 28.9355 31.9588 20.5151 36.8928 12.7609C40.4446 7.18066 46.2304 2.89374 52.5385 1.11883C60.1815 -1.02952 67.5226 -0.0839623 74.562 3.95549C74.6388 3.99984 74.7173 4.00427 74.7977 3.96879C81.496 1.01327 87.9184 1.12592 94.0649 4.30675C100.215 7.492 104.169 13.2398 105.251 20.0947C105.265 20.1798 105.306 20.2508 105.374 20.3075C112.401 26.176 117.104 30.0735 119.485 32.0001C120.158 32.5448 120.495 33.2047 120.495 33.9799C120.498 61.3797 120.5 88.7795 120.5 116.179C120.5 117.733 120.007 119 118.29 119C101.388 119 84.4853 119 67.5816 119C65.9128 119 64.8333 118.42 64.8333 116.672C64.8369 96.1639 64.836 75.6553 64.8306 55.1458C64.8305 55.1252 64.8259 55.1049 64.8171 55.0863C64.8084 55.0676 64.7957 55.051 64.78 55.0377C64.7642 55.0243 64.7458 55.0144 64.7259 55.0088C64.7059 55.0031 64.685 55.0017 64.6646 55.0048C59.5663 55.78 54.6323 55.2239 49.8626 53.3363C49.8148 53.3181 49.7627 53.3139 49.7128 53.3243C49.6629 53.3347 49.6172 53.3592 49.5814 53.3948L46.7313 56.2262C46.667 56.2918 46.6447 56.3681 46.6644 56.455C47.2179 58.9014 47.7715 61.3442 48.3251 63.7835C48.7322 65.5824 48.9331 66.6965 48.9278 67.1258C48.8956 70.1381 46.1902 72.2776 43.1607 71.9024C39.5821 71.4606 35.9991 71.0473 32.4115 70.6623C32.3115 70.6517 32.266 70.696 32.2749 70.7954ZM51.0251 49.1239C66.2717 55.1245 82.8657 44.3447 83.3371 28.0565C83.5487 20.6961 80.3558 13.953 74.6584 9.22168C74.6261 9.19424 74.5858 9.17806 74.5436 9.17565C74.5015 9.17324 74.4599 9.18475 74.4254 9.20837C72.6236 10.4218 71.1102 11.9217 69.8852 13.7082C69.8793 13.7166 69.8753 13.7262 69.8734 13.7362C69.8715 13.7463 69.8716 13.7566 69.8739 13.7666C69.8761 13.7766 69.8804 13.786 69.8865 13.7943C69.8926 13.8025 69.9004 13.8095 69.9093 13.8146C73.2075 15.8406 75.0468 18.593 75.4272 22.0718C76.37 30.7175 66.8744 36.8299 59.4199 32.4126C49.8278 26.7286 54.076 12.1355 65.4038 12.5772C65.4985 12.5808 65.5699 12.5418 65.6181 12.4602C66.8967 10.2976 68.5084 8.41893 70.453 6.82408C70.5334 6.75667 70.5262 6.70079 70.4316 6.65644C59.3288 1.46476 45.9251 5.42172 39.8634 16.1457C36.0312 22.9242 35.6919 30.0576 38.8455 37.5457C39.2634 38.541 39.3919 39.4191 38.6125 40.1775C27.3677 51.1126 16.1194 62.0459 4.86746 72.9774C4.8121 73.0324 4.78442 73.0989 4.78442 73.177V82.7301C4.78442 82.7612 4.79712 82.7909 4.81973 82.8129C4.84233 82.8348 4.87299 82.8472 4.90496 82.8472H14.2318C14.2776 82.8472 14.3227 82.8366 14.3636 82.8163C14.4045 82.796 14.4401 82.7664 14.4676 82.7301C15.0542 81.9531 15.8979 80.4177 16.9051 80.3964C20.7801 80.3183 24.6293 80.2527 28.4525 80.1995C28.5038 80.1986 28.5544 80.1872 28.601 80.166C28.6477 80.1448 28.6894 80.1142 28.7236 80.0763C28.7578 80.0383 28.7838 79.9937 28.7998 79.9453C28.8158 79.8969 28.8216 79.8457 28.8168 79.795C28.515 76.5946 28.2195 73.4076 27.9302 70.2339C27.7775 68.5734 28.9776 67.8203 30.0517 66.8597C30.557 66.4091 31.1972 66.2308 31.9722 66.3248C35.9437 66.8056 39.8946 67.2863 43.825 67.7671C43.9401 67.7815 44.057 67.7682 44.1658 67.7283C44.2746 67.6884 44.3721 67.623 44.4499 67.5379C44.5278 67.4527 44.5837 67.3502 44.6129 67.2391C44.6422 67.128 44.6439 67.0115 44.6179 66.8996C43.8125 63.3569 43.0054 59.7645 42.1964 56.1224C42.0232 55.3436 42.1295 54.7591 42.5152 54.3688C44.2045 52.6569 45.8947 50.9396 47.5858 49.217C48.7028 48.0834 49.7581 48.6263 51.0251 49.1239ZM99.0739 14.903C94.9328 7.84592 86.8139 4.54358 78.9228 6.95181C78.8049 6.98907 78.7915 7.0485 78.8826 7.1301C81.5862 9.51794 83.7139 12.3369 85.2657 15.5869C85.3139 15.688 85.3835 15.7048 85.4746 15.6374C86.2085 15.0999 86.9693 14.3788 87.6389 13.9743C91.4774 11.6512 95.5408 12.1515 98.9828 14.9802C98.994 14.9882 99.0076 14.9922 99.0214 14.9917C99.0351 14.9911 99.0483 14.986 99.0588 14.9771C99.0693 14.9682 99.0765 14.9561 99.0792 14.9426C99.082 14.9292 99.0801 14.9152 99.0739 14.903ZM88.0434 30.635C90.9541 29.3932 93.7363 29.2735 96.3899 30.2758C104.158 33.2109 105.851 43.5384 99.1971 48.6236C93.7193 52.8094 85.713 50.9094 82.8844 44.6454C82.8632 44.598 82.8301 44.557 82.7882 44.5261C82.7463 44.4952 82.6971 44.4757 82.6454 44.4692C82.5937 44.4628 82.5411 44.4698 82.4929 44.4894C82.4447 44.5091 82.4024 44.5408 82.3701 44.5815C78.8897 48.9403 74.4959 52.0289 69.1887 53.8472C69.1101 53.8756 69.0709 53.9306 69.0709 54.0122V114.543C69.0709 114.596 69.092 114.646 69.1297 114.684C69.1674 114.721 69.2185 114.742 69.2718 114.742H116.013C116.067 114.742 116.118 114.721 116.155 114.684C116.193 114.646 116.214 114.596 116.214 114.543V34.9858C116.214 34.8936 116.179 34.8182 116.11 34.7596C109.363 29.159 102.613 23.5549 95.8596 17.9472C94.4738 16.7941 92.9345 16.4783 91.2416 16.9999C89.7148 17.4682 88.3005 18.8706 87.063 20.0015C86.997 20.0618 86.9764 20.1355 87.0014 20.2224C87.9711 23.6055 88.2827 27.0497 87.9362 30.5552C87.9347 30.5686 87.9368 30.5821 87.9421 30.5944C87.9475 30.6068 87.956 30.6175 87.9668 30.6256C87.9777 30.6336 87.9904 30.6387 88.0038 30.6404C88.0173 30.6421 88.0309 30.6402 88.0434 30.635ZM62.4279 17.1941C56.5993 19.7354 57.1591 28.0432 63.4726 29.3684C63.5744 29.3897 63.6101 29.3506 63.5797 29.2513C62.3422 25.1888 62.3386 21.1236 63.569 17.0558C63.6029 16.944 63.561 16.8934 63.4431 16.9041C63.1378 16.936 62.7994 17.0327 62.4279 17.1941ZM68.0208 28.6419C72.3307 26.3508 72.1754 20.0867 68.0289 17.7343C67.936 17.6811 67.8726 17.7042 67.8387 17.8035C66.6333 21.3959 66.6369 24.9856 67.8494 28.5727C67.8798 28.6632 67.9369 28.6863 68.0208 28.6419ZM96.2158 34.9698C94.1426 33.461 91.2336 33.5861 89.1363 34.9193C87.4041 36.0227 86.4309 37.6947 86.2166 39.9353C86.2148 39.953 86.217 39.9709 86.2232 39.9876C86.2294 40.0042 86.2393 40.0193 86.2522 40.0316C86.2651 40.0439 86.2807 40.0532 86.2977 40.0586C86.3148 40.0641 86.3328 40.0656 86.3505 40.0631C90.1952 39.4989 93.4881 37.8624 96.2292 35.1535C96.2971 35.086 96.2926 35.0248 96.2158 34.9698ZM98.6935 38.698C95.5649 41.5772 91.997 43.3335 87.805 44.1132C87.7068 44.1309 87.6889 44.1779 87.7514 44.2542C91.9568 49.4432 100.499 45.1776 98.8462 38.7432C98.8212 38.6438 98.7703 38.6288 98.6935 38.698Z" stroke="#F9F1E8" stroke-width="0.4" mask="url(#path-1-inside-1_133_476)"/>
<path d="M37.4041 50.5187L37.3397 50.4547C36.5186 49.6389 35.1872 49.6389 34.3661 50.4547L25.3617 59.4C24.5406 60.2158 24.5406 61.5384 25.3617 62.3542L25.4261 62.4181C26.2473 63.2339 27.5786 63.2339 28.3998 62.4181L37.4041 53.4728C38.2253 52.6571 38.2253 51.3344 37.4041 50.5187Z" stroke="#F9F1E8" stroke-width="0.4" mask="url(#path-1-inside-1_133_476)"/>
<path d="M84.1371 59.4115L84.046 59.4114C82.8892 59.4094 81.9497 60.3394 81.9477 61.4887L81.9139 80.7066C81.9119 81.8559 82.8481 82.7892 84.005 82.7912L84.096 82.7914C85.2529 82.7934 86.1923 81.8633 86.1943 80.7141L86.2281 61.4961C86.2301 60.3468 85.2939 59.4136 84.1371 59.4115Z" stroke="#F9F1E8" stroke-width="0.4" mask="url(#path-1-inside-1_133_476)"/>
<path d="M101.241 59.4061H101.187C100.02 59.4061 99.0739 60.3461 99.0739 61.5057V95.5989C99.0739 96.7584 100.02 97.6984 101.187 97.6984H101.241C102.408 97.6984 103.354 96.7584 103.354 95.5989V61.5057C103.354 60.3461 102.408 59.4061 101.241 59.4061Z" stroke="#F9F1E8" stroke-width="0.4" mask="url(#path-1-inside-1_133_476)"/>
<path d="M20.7628 69.1808L20.6491 69.0679C19.8478 68.2718 18.5487 68.2718 17.7474 69.0679L14.751 72.0446C13.9497 72.8406 13.9497 74.1312 14.751 74.9273L14.8647 75.0402C15.6659 75.8362 16.9651 75.8362 17.7664 75.0402L20.7628 72.0634C21.564 71.2674 21.564 69.9768 20.7628 69.1808Z" stroke="#F9F1E8" stroke-width="0.4" mask="url(#path-1-inside-1_133_476)"/>
<path d="M84.1567 87.0915H83.9853C82.8551 87.0915 81.9389 88.0018 81.9389 89.1246V95.6547C81.9389 96.7775 82.8551 97.6878 83.9853 97.6878H84.1567C85.287 97.6878 86.2032 96.7775 86.2032 95.6547V89.1246C86.2032 88.0018 85.287 87.0915 84.1567 87.0915Z" stroke="#F9F1E8" stroke-width="0.4" mask="url(#path-1-inside-1_133_476)"/>
</g>
</svg>
