<svg width="78" height="79" viewBox="0 0 78 79" fill="none" xmlns="http://www.w3.org/2000/svg">
<path id="logo_2" d="M78 39.5C78 44.6872 76.9912 49.8236 75.0313 54.616C73.0714 59.4083 70.1987 63.7628 66.5772 67.4307C62.9557 71.0986 58.6563 74.0082 53.9247 75.9932C49.193 77.9783 44.1215 79 39 79C28.6566 79 18.7368 74.8384 11.4228 67.4307C4.10892 60.023 0 49.976 0 39.5C0 29.0239 4.10892 18.977 11.4228 11.5693C18.7368 4.1616 28.6566 0 39 0C44.1215 0 49.193 1.0217 53.9247 3.00676C58.6563 4.99182 62.9557 7.90137 66.5772 11.5693C70.1987 15.2372 73.0714 19.5916 75.0313 24.384C76.9912 29.1764 78 34.3128 78 39.5ZM62.8882 36.1049L62.9338 56.4154C62.9337 56.5778 62.97 56.7384 63.0402 56.8854C63.1104 57.0323 63.2126 57.1618 63.3391 57.2642L67.1421 60.3317C67.2818 60.4455 67.4048 60.4286 67.511 60.281C78.9974 43.9099 75.3083 21.6713 58.894 10.3144C49.4905 3.80715 38.956 2.35102 27.2904 5.94599C26.0577 6.32732 24.9525 6.75016 23.9748 7.21453C23.5588 7.41442 23.5391 7.64814 23.9156 7.91568L62.6651 35.6621C62.8138 35.7697 62.8882 35.9173 62.8882 36.1049ZM54.5353 34.6888C43.1825 26.5332 31.8252 18.3854 20.4633 10.2452C19.9987 9.91306 19.5433 9.88384 19.0969 10.1575C18.7083 10.3943 18.5124 10.7434 18.5094 11.2047C18.5003 15.3562 18.4881 19.5078 18.473 23.6594C18.4699 24.1822 18.7204 24.6296 19.2245 25.0018C32.3596 34.6796 45.56 44.2682 58.8256 53.7676C58.8489 53.7847 58.8764 53.795 58.9051 53.7972C58.9338 53.7994 58.9625 53.7934 58.988 53.78C59.0136 53.7666 59.0349 53.7463 59.0497 53.7213C59.0644 53.6962 59.072 53.6676 59.0716 53.6384L59.0078 38.3099C59.0065 38.2232 58.9862 38.1377 58.9484 38.0596C58.9106 37.9814 58.8563 37.9126 58.7892 37.8578C57.7204 37.0152 56.3025 35.9589 54.5353 34.6888ZM14.3193 13.9678C0.724163 28.2953 0.532875 50.2295 14.0688 64.7139C14.1811 64.837 14.295 64.9061 14.4104 64.9215C14.4398 64.9262 14.4699 64.9244 14.4986 64.9161C14.5273 64.9078 14.5538 64.8932 14.5764 64.8734C14.5989 64.8537 14.617 64.8292 14.6292 64.8016C14.6414 64.7741 14.6476 64.7441 14.6472 64.7139L14.6426 14.1015C14.6436 14.0631 14.6331 14.0254 14.6123 13.9932C14.5916 13.961 14.5617 13.936 14.5266 13.9215C14.4915 13.907 14.4528 13.9037 14.4158 13.9119C14.3788 13.9202 14.3451 13.9397 14.3193 13.9678ZM18.5367 29.8499L18.6369 67.906C18.637 68.1033 18.6849 68.2971 18.7763 68.4701C18.8677 68.6432 18.9998 68.7902 19.1607 68.8978C24.4864 72.4805 30.3602 74.4779 36.782 74.8899C36.8187 74.8925 36.8556 74.8872 36.8903 74.8744C36.925 74.8616 36.9568 74.8416 36.9838 74.8157C37.0107 74.7897 37.0321 74.7584 37.0468 74.7235C37.0614 74.6887 37.0689 74.6511 37.0689 74.6132L37.0325 43.3148C37.0326 43.1693 36.9987 43.0261 36.9338 42.8969C36.8688 42.7678 36.7747 42.6565 36.659 42.5722L18.892 29.6654C18.8586 29.6405 18.819 29.6256 18.7777 29.6222C18.7364 29.6189 18.6949 29.6273 18.658 29.6464C18.6212 29.6656 18.5903 29.6948 18.5689 29.7307C18.5474 29.7666 18.5363 29.8079 18.5367 29.8499ZM46.3509 74.1057C53.6047 72.5989 59.7517 69.0808 64.792 63.5515C64.8358 63.5035 64.869 63.4467 64.8894 63.3848C64.9099 63.3228 64.9171 63.2572 64.9106 63.1923C64.9042 63.1273 64.8842 63.0644 64.852 63.0079C64.8197 62.9513 64.776 62.9023 64.7237 62.8642L41.2909 45.9534C41.2591 45.9297 41.2215 45.9156 41.1822 45.9126C41.1428 45.9096 41.1033 45.9179 41.068 45.9365C41.0327 45.9551 41.0029 45.9833 40.982 46.018C40.961 46.0527 40.9497 46.0926 40.9493 46.1333L40.963 74.5163C40.963 74.5621 40.972 74.6075 40.9894 74.6498C41.0069 74.692 41.0324 74.7304 41.0646 74.7626C41.0968 74.7947 41.135 74.8201 41.177 74.8373C41.219 74.8544 41.2639 74.8629 41.3091 74.8623C42.9943 74.8254 44.3424 74.5209 46.3509 74.1057Z" fill="#E5B56C"/>
</svg>
