<svg width="270" height="79" viewBox="0 0 270 79" fill="none" xmlns="http://www.w3.org/2000/svg">
<path d="M79 39.5C79 44.6872 77.9783 49.8236 75.9932 54.616C74.0082 59.4084 71.0986 63.7628 67.4307 67.4307C63.7628 71.0986 59.4084 74.0082 54.616 75.9932C49.8236 77.9783 44.6872 79 39.5 79C29.0239 79 18.977 74.8384 11.5693 67.4307C4.16159 60.023 0 49.976 0 39.5C0 29.0239 4.16159 18.977 11.5693 11.5693C18.977 4.1616 29.0239 0 39.5 0C44.6872 0 49.8236 1.0217 54.616 3.00676C59.4084 4.99182 63.7628 7.90137 67.4307 11.5693C71.0986 15.2372 74.0082 19.5916 75.9932 24.384C77.9783 29.1764 79 34.3128 79 39.5ZM63.6945 36.1049L63.7406 56.4154C63.7405 56.5778 63.7774 56.7385 63.8484 56.8854C63.9195 57.0323 64.023 57.1618 64.1512 57.2642L68.0029 60.3317C68.1444 60.4455 68.2689 60.4286 68.3766 60.281C80.0102 43.9099 76.2738 21.6713 59.649 10.3144C50.125 3.80716 39.4554 2.35103 27.6403 5.94599C26.3918 6.32732 25.2724 6.75016 24.2821 7.21453C23.8608 7.41442 23.8408 7.64814 24.2222 7.91568L63.4685 35.6621C63.6192 35.7697 63.6945 35.9173 63.6945 36.1049ZM55.2345 34.6888C43.7361 26.5332 32.2332 18.3854 20.7256 10.2452C20.2551 9.91306 19.7938 9.88384 19.3418 10.1575C18.9481 10.3943 18.7498 10.7434 18.7467 11.2047C18.7375 15.3562 18.7252 19.5078 18.7098 23.6594C18.7067 24.1822 18.9604 24.6296 19.4709 25.0018C32.7744 34.6796 46.1441 44.2682 59.5798 53.7676C59.6034 53.7847 59.6312 53.795 59.6603 53.7972C59.6893 53.7994 59.7184 53.7934 59.7443 53.78C59.7701 53.7666 59.7918 53.7463 59.8067 53.7213C59.8217 53.6962 59.8294 53.6676 59.8289 53.6384L59.7643 38.3099C59.763 38.2232 59.7424 38.1377 59.7042 38.0596C59.6659 37.9814 59.6109 37.9126 59.5429 37.8578C58.4604 37.0152 57.0243 35.9589 55.2345 34.6888ZM14.5029 13.9678C0.733447 28.2953 0.539706 50.2295 14.2492 64.7139C14.3629 64.837 14.4783 64.9061 14.5951 64.9215C14.625 64.9262 14.6555 64.9244 14.6845 64.9161C14.7135 64.9077 14.7404 64.8932 14.7633 64.8734C14.7861 64.8537 14.8044 64.8292 14.8167 64.8016C14.8291 64.7741 14.8354 64.7441 14.835 64.7139L14.8304 14.1015C14.8314 14.0631 14.8207 14.0254 14.7997 13.9932C14.7787 13.961 14.7484 13.936 14.7128 13.9215C14.6773 13.907 14.6381 13.9037 14.6006 13.9119C14.5631 13.9202 14.529 13.9397 14.5029 13.9678ZM18.7744 29.8499L18.8759 67.906C18.876 68.1033 18.9245 68.2971 19.0171 68.4701C19.1096 68.6432 19.2434 68.7902 19.4063 68.8978C24.8003 72.4805 30.7494 74.4778 37.2535 74.8899C37.2908 74.8925 37.3281 74.8872 37.3633 74.8744C37.3984 74.8616 37.4306 74.8416 37.4579 74.8157C37.4852 74.7897 37.5069 74.7584 37.5217 74.7235C37.5366 74.6887 37.5442 74.6511 37.5441 74.6132L37.5072 43.3148C37.5073 43.1693 37.4731 43.0261 37.4073 42.8969C37.3415 42.7678 37.2461 42.6565 37.129 42.5722L19.1342 29.6654C19.1003 29.6405 19.0603 29.6256 19.0184 29.6222C18.9766 29.6189 18.9346 29.6273 18.8973 29.6464C18.8599 29.6656 18.8286 29.6948 18.8069 29.7307C18.7852 29.7666 18.7739 29.8079 18.7744 29.8499ZM46.9452 74.1057C54.2919 72.5989 60.5178 69.0808 65.6227 63.5515C65.667 63.5035 65.7006 63.4467 65.7213 63.3848C65.7421 63.3228 65.7494 63.2572 65.7428 63.1923C65.7363 63.1273 65.716 63.0644 65.6834 63.0079C65.6507 62.9513 65.6065 62.9023 65.5535 62.8642L41.8203 45.9534C41.7881 45.9297 41.75 45.9156 41.7101 45.9126C41.6703 45.9096 41.6303 45.9179 41.5945 45.9365C41.5588 45.9551 41.5286 45.9833 41.5074 46.018C41.4862 46.0527 41.4747 46.0926 41.4743 46.1333L41.4881 74.5163C41.4881 74.5621 41.4972 74.6075 41.5149 74.6498C41.5326 74.692 41.5585 74.7304 41.5911 74.7626C41.6237 74.7947 41.6624 74.8201 41.7049 74.8373C41.7474 74.8544 41.7929 74.8629 41.8387 74.8623C43.5455 74.8254 44.9109 74.5209 46.9452 74.1057Z" fill="#E5B56C"/>
<path d="M252.53 42.64V32.56C252.53 30.712 254.042 29.2 255.89 29.2H265.97C267.818 29.2 269.33 30.712 269.33 32.56V42.64C269.33 44.488 267.818 46 265.97 46H255.89C254.042 46 252.53 44.488 252.53 42.64ZM256.442 42.64H265.418C265.73 42.64 265.97 42.4 265.97 42.088V33.112C265.97 32.8 265.73 32.56 265.418 32.56H256.442C256.13 32.56 255.89 32.8 255.89 33.112V42.088C255.89 42.4 256.13 42.64 256.442 42.64Z" fill="#E5B56C"/>
<path d="M245.48 32.56H236.504C236.192 32.56 235.952 32.8 235.952 33.112V38.728C235.952 39.04 236.192 39.28 236.504 39.28H245.48C245.792 39.28 246.032 39.04 246.032 38.728V33.112C246.032 32.8 245.792 32.56 245.48 32.56ZM232.592 45.448V32.56C232.592 30.712 234.104 29.2 235.952 29.2H246.032C247.88 29.2 249.392 30.712 249.392 32.56V39.28C249.392 41.128 247.88 42.64 246.032 42.64H236.504C236.192 42.64 235.952 42.88 235.952 43.192V45.448C235.952 45.76 235.712 46 235.4 46H233.144C232.832 46 232.592 45.76 232.592 45.448Z" fill="#E5B56C"/>
<path d="M212.676 32.56C212.676 30.712 214.188 29.2 216.036 29.2H226.116C227.964 29.2 229.476 30.712 229.476 32.56V45.448C229.476 45.76 229.236 46 228.924 46H226.668C226.356 46 226.116 45.76 226.116 45.448V33.112C226.116 32.8 225.876 32.56 225.564 32.56H216.588C216.276 32.56 216.036 32.8 216.036 33.112V45.448C216.036 45.76 215.796 46 215.484 46H213.228C212.916 46 212.676 45.76 212.676 45.448V32.56Z" fill="#E5B56C"/>
<path d="M193.206 29.752C193.206 29.44 193.446 29.2 193.758 29.2H209.454C209.766 29.2 210.006 29.44 210.006 29.752V32.008C210.006 32.32 209.766 32.56 209.454 32.56H203.838C203.526 32.56 203.286 32.8 203.286 33.112V45.448C203.286 45.76 203.046 46 202.734 46H200.478C200.166 46 199.926 45.76 199.926 45.448V33.112C199.926 32.8 199.686 32.56 199.374 32.56H193.758C193.446 32.56 193.206 32.32 193.206 32.008V29.752Z" fill="#E5B56C"/>
<path d="M173.502 45.424V29.728C173.502 29.416 173.742 29.176 174.054 29.176H176.31C176.622 29.176 176.862 29.416 176.862 29.728V35.344C176.862 35.656 177.102 35.896 177.414 35.896H186.39C186.702 35.896 186.942 35.656 186.942 35.344V29.728C186.942 29.416 187.182 29.176 187.494 29.176H189.75C190.062 29.176 190.302 29.416 190.302 29.728V45.424C190.302 45.736 190.062 45.976 189.75 45.976H187.494C187.182 45.976 186.942 45.736 186.942 45.424V39.808C186.942 39.496 186.702 39.256 186.39 39.256H177.414C177.102 39.256 176.862 39.496 176.862 39.808V45.424C176.862 45.736 176.622 45.976 176.31 45.976H174.054C173.742 45.976 173.502 45.736 173.502 45.424Z" fill="#E5B56C"/>
<path d="M153.587 42.64V32.56C153.587 30.712 155.099 29.2 156.947 29.2H167.027C168.875 29.2 170.387 30.712 170.387 32.56V42.64C170.387 44.488 168.875 46 167.027 46H156.947C155.099 46 153.587 44.488 153.587 42.64ZM157.499 42.64H166.475C166.787 42.64 167.027 42.4 167.027 42.088V33.112C167.027 32.8 166.787 32.56 166.475 32.56H157.499C157.187 32.56 156.947 32.8 156.947 33.112V42.088C156.947 42.4 157.187 42.64 157.499 42.64Z" fill="#E5B56C"/>
<path d="M127.413 29.752C127.413 29.44 127.653 29.2 127.965 29.2H130.221C130.581 29.2 130.917 29.344 131.133 29.632L139.173 38.92C141.837 35.824 144.525 32.728 147.213 29.632C147.405 29.392 147.813 29.2 148.125 29.2H150.381C150.693 29.2 150.933 29.44 150.933 29.752V45.448C150.933 45.76 150.669 46 150.381 46H148.125C147.813 46 147.573 45.76 147.573 45.448V34.888C147.573 34.6 147.405 34.528 147.213 34.768C144.645 37.72 142.101 40.672 139.533 43.648C139.437 43.744 139.317 43.816 139.173 43.816C139.053 43.816 138.909 43.744 138.813 43.648C136.245 40.672 133.701 37.72 131.133 34.768C130.941 34.528 130.773 34.6 130.773 34.912V45.448C130.773 45.76 130.533 46 130.221 46H127.989C127.677 46 127.413 45.76 127.413 45.448V29.752Z" fill="#E5B56C"/>
<path d="M109.139 42.64V32.56C109.139 30.712 110.651 29.2 112.499 29.2H123.707C124.019 29.2 124.259 29.44 124.259 29.752V32.008C124.259 32.32 124.019 32.56 123.707 32.56H113.051C112.739 32.56 112.499 32.8 112.499 33.112V35.368C112.499 35.68 112.739 35.92 113.051 35.92H123.707C124.019 35.92 124.259 36.16 124.259 36.472V38.728C124.259 39.04 124.019 39.28 123.707 39.28H113.051C112.739 39.28 112.499 39.52 112.499 39.832V42.088C112.499 42.4 112.739 42.64 113.051 42.64H123.707C124.019 42.64 124.259 42.88 124.259 43.192V45.448C124.259 45.76 124.019 46 123.707 46H112.499C110.651 46 109.139 44.488 109.139 42.64Z" fill="#E5B56C"/>
<path d="M102.088 32.56H93.112C92.8 32.56 92.56 32.8 92.56 33.112V38.728C92.56 39.04 92.8 39.28 93.112 39.28H102.088C102.4 39.28 102.64 39.04 102.64 38.728V33.112C102.64 32.8 102.4 32.56 102.088 32.56ZM89.2 45.448V32.56C89.2 30.712 90.712 29.2 92.56 29.2H102.64C104.488 29.2 106 30.712 106 32.56V39.28C106 41.128 104.488 42.64 102.64 42.64H93.112C92.8 42.64 92.56 42.88 92.56 43.192V45.448C92.56 45.76 92.32 46 92.008 46H89.752C89.44 46 89.2 45.76 89.2 45.448Z" fill="#E5B56C"/>
</svg>
