<svg width="37" height="25" viewBox="0 0 37 25" fill="none" xmlns="http://www.w3.org/2000/svg">
<path id="Vector" d="M36.0185 3.17885V21.8258C35.935 23.2129 35.0283 24.3859 33.6836 24.7191C33.4204 24.7839 32.9669 24.8165 32.3232 24.817C23.1365 24.8184 13.9495 24.8184 4.7623 24.817C4.10444 24.817 3.65028 24.7901 3.39982 24.7362C2.01887 24.4386 1.06219 23.2444 0.981445 21.8204V3.17133C1.06356 1.78695 1.97713 0.612663 3.31634 0.280769C3.57911 0.215987 4.03259 0.183367 4.67676 0.182911C14.1089 0.181543 23.5411 0.181543 32.9733 0.182911C33.4947 0.182911 34.0867 0.362887 34.5397 0.646194C35.4394 1.20825 35.9323 2.05247 36.0185 3.17885ZM16.2041 13.8843C16.7988 14.4763 17.4858 14.8465 18.3289 14.8896C19.2523 14.937 20.0367 14.6396 20.6823 13.9972C24.6121 10.0889 28.543 6.1789 32.4751 2.26734C32.4778 2.26481 32.4797 2.26152 32.4804 2.25789C32.4812 2.25427 32.4808 2.25048 32.4793 2.24702C32.4779 2.24355 32.4754 2.24057 32.4722 2.23846C32.469 2.23635 32.4652 2.23521 32.4614 2.23518H4.53853C4.53475 2.23506 4.53102 2.2361 4.52785 2.23816C4.52468 2.24023 4.52222 2.24321 4.5208 2.24672C4.51938 2.25023 4.51907 2.25409 4.51992 2.25778C4.52076 2.26146 4.52272 2.2648 4.52553 2.26734C8.4161 6.13784 12.309 10.0102 16.2041 13.8843ZM3.0693 3.71673C3.06639 3.71387 3.06269 3.71195 3.05868 3.7112C3.05468 3.71046 3.05054 3.71092 3.04679 3.71253C3.04305 3.71415 3.03987 3.71684 3.03766 3.72027C3.03546 3.7237 3.03432 3.72771 3.0344 3.73178V21.2736C3.03432 21.2777 3.03546 21.2817 3.03766 21.2851C3.03987 21.2885 3.04305 21.2912 3.04679 21.2928C3.05054 21.2944 3.05468 21.2949 3.05868 21.2942C3.06269 21.2934 3.06639 21.2915 3.0693 21.2886L11.8902 12.5171C11.8939 12.5132 11.896 12.5081 11.896 12.5027C11.896 12.4973 11.8939 12.4922 11.8902 12.4883L3.0693 3.71673ZM33.9307 21.2886C33.9336 21.2915 33.9373 21.2934 33.9413 21.2942C33.9453 21.2949 33.9494 21.2944 33.9532 21.2928C33.9569 21.2912 33.9601 21.2885 33.9623 21.2851C33.9645 21.2817 33.9656 21.2777 33.9656 21.2736V3.73178C33.9656 3.72771 33.9645 3.7237 33.9623 3.72027C33.9601 3.71684 33.9569 3.71415 33.9532 3.71253C33.9494 3.71092 33.9453 3.71046 33.9413 3.7112C33.9373 3.71195 33.9336 3.71387 33.9307 3.71673L25.1098 12.4883C25.106 12.4922 25.1039 12.4973 25.1039 12.5027C25.1039 12.5081 25.106 12.5132 25.1098 12.5171L33.9307 21.2886ZM22.1378 15.435C20.0725 17.5003 16.8186 17.44 14.7965 15.3823C14.332 14.9106 13.8617 14.4452 13.3854 13.9863C13.3662 13.968 13.3473 13.9683 13.3286 13.987L4.52963 22.7278C4.505 22.7524 4.51002 22.7647 4.54469 22.7647H32.4539C32.4583 22.7648 32.4626 22.7636 32.4663 22.7612C32.47 22.7588 32.4729 22.7553 32.4746 22.7513C32.4763 22.7472 32.4768 22.7427 32.4759 22.7384C32.475 22.7341 32.4728 22.7301 32.4696 22.7271L23.6693 13.9849C23.6529 13.9685 23.6362 13.9683 23.6194 13.9842C23.1189 14.4646 22.625 14.9482 22.1378 15.435Z" fill="#F9F1E8"/>
</svg>
