<svg width="27" height="37" viewBox="0 0 27 37" fill="none" xmlns="http://www.w3.org/2000/svg">
<g id="Vector">
<path d="M13.1727 0.981445H13.8618C17.1678 1.12652 20.0302 2.27047 22.4491 4.4133C22.7886 4.71394 23.1116 5.03648 23.4182 5.38092C26.0356 8.31938 27.1687 11.8142 26.8173 15.8654C26.6066 18.2892 25.5724 20.3456 24.2019 22.3499C23.0769 23.9946 21.9125 25.6107 20.7087 27.1983C18.5767 30.0113 16.4444 32.8239 14.312 35.636C14.1491 35.8509 13.9077 35.9784 13.5879 36.0185H13.4232C12.8735 35.9316 12.7184 35.6456 12.3341 35.1392C10.3082 32.4667 8.2814 29.7949 6.25368 27.1237C5.12361 25.6342 4.02648 24.1207 2.9623 22.5833C2.14151 21.3972 1.47833 20.2185 0.972777 19.0474C0.579311 18.1364 0.323558 17.1334 0.205518 16.0385C-0.0250712 13.8961 0.213982 11.824 0.922678 9.82215C2.01798 6.73108 4.30808 4.14094 7.16163 2.58685C8.98209 1.59551 10.9858 1.06037 13.1727 0.981445ZM3.15994 9.77082C2.50844 11.2499 2.18543 12.7966 2.19092 14.4112C2.19435 15.5471 2.31651 16.7016 2.68916 17.7465C3.13867 19.0077 3.88465 20.3011 4.68966 21.461C5.71495 22.9378 6.83839 24.4821 8.05997 26.0939C10.6843 29.557 12.4919 31.9411 13.4829 33.2463C13.4989 33.2673 13.515 33.2673 13.531 33.2463C15.8895 30.1646 18.2304 27.0697 20.5536 23.9615C21.5961 22.5669 22.5445 21.201 23.4635 19.6147C24.4105 17.9792 24.8703 16.239 24.8429 14.3941C24.8301 13.509 24.7502 12.7289 24.6034 12.0537C23.4216 6.61885 18.6273 2.84416 13.0266 3.05424C8.76409 3.21437 4.88044 5.86405 3.15994 9.77082Z" fill="#F9F1E8"/>
<path d="M20.7108 14.3256C20.7108 15.2684 20.5246 16.202 20.1628 17.073C19.8009 17.944 19.2706 18.7354 18.6021 19.4021C17.9335 20.0687 17.1398 20.5975 16.2663 20.9583C15.3928 21.3191 14.4565 21.5048 13.5111 21.5048C11.6016 21.5048 9.7703 20.7484 8.42008 19.4021C7.06987 18.0557 6.31133 16.2297 6.31133 14.3256C6.31133 12.4216 7.06987 10.5956 8.42008 9.2492C9.7703 7.90284 11.6016 7.14646 13.5111 7.14646C14.4565 7.14646 15.3928 7.33216 16.2663 7.69295C17.1398 8.05373 17.9335 8.58255 18.6021 9.2492C19.2706 9.91584 19.8009 10.7073 20.1628 11.5783C20.5246 12.4493 20.7108 13.3829 20.7108 14.3256ZM18.6533 14.3256C18.6533 12.9657 18.1116 11.6615 17.1472 10.6999C16.1828 9.73827 14.8749 9.19805 13.5111 9.19805C12.1473 9.19805 10.8393 9.73827 9.87493 10.6999C8.91056 11.6615 8.36879 12.9657 8.36879 14.3256C8.36879 15.6856 8.91056 16.9898 9.87493 17.9514C10.8393 18.913 12.1473 19.4532 13.5111 19.4532C14.8749 19.4532 16.1828 18.913 17.1472 17.9514C18.1116 16.9898 18.6533 15.6856 18.6533 14.3256Z" fill="#F9F1E8"/>
</g>
</svg>
