<svg width="37" height="37" viewBox="0 0 37 37" fill="none" xmlns="http://www.w3.org/2000/svg">
<g id="Vector">
<path d="M36.0956 29.5982V29.9624C36.0014 31.1934 35.488 32.0347 34.6872 32.9846C33.6115 34.261 32.2719 35.1518 30.6375 35.6102C29.6592 35.8842 28.7693 36.0203 27.9679 36.0185C26.7884 36.0157 25.5109 35.8345 24.1353 35.4748C17.2304 33.6685 11.7332 28.8105 7.126 23.5971C5.93051 22.2444 4.8333 20.8164 3.83438 19.313C2.20747 16.8647 1.04864 14.1614 0.904297 11.1867V10.3866C1.05826 7.15273 2.46453 3.50369 5.18567 1.59086C5.35109 1.47447 5.56393 1.36472 5.8242 1.26163C6.96654 0.807988 8.21404 0.905589 9.22304 1.55168C9.46544 1.70656 9.80911 2.00692 10.254 2.45277C11.7698 3.97039 13.2861 5.4871 14.8028 7.00289C15.404 7.60361 15.7756 8.28613 15.9176 9.05044C16.1156 10.1151 15.818 11.2286 15.1464 12.0768C15.0635 12.1812 14.7457 12.5111 14.1931 13.0665C13.7619 13.5 13.3298 13.9316 12.8968 14.3614C12.8822 14.3761 12.8799 14.3924 12.8899 14.4102C13.0508 14.7003 13.2146 14.991 13.3814 15.2825C15.6134 19.1801 18.7274 22.1569 22.7236 24.2129C22.7446 24.2239 22.7634 24.2209 22.7799 24.204C23.1887 23.7948 23.6006 23.384 24.0157 22.9716C24.627 22.364 24.9535 22.043 24.9952 22.0087C26.2915 20.9337 28.2456 20.8374 29.5927 21.8478C29.7499 21.9656 30.083 22.2792 30.5921 22.7888C32.0561 24.2546 33.5206 25.7198 34.9855 27.1842C35.666 27.8647 36.036 28.6693 36.0956 29.5982ZM24.1326 25.9402C23.6556 26.4193 23.0439 26.6378 22.3909 26.4708C22.225 26.4282 21.8855 26.2662 21.3723 25.9849C17.2675 23.7332 13.9443 20.6306 11.5868 16.5272C11.2074 15.866 10.707 15.1773 10.6128 14.5408C10.4974 13.7593 10.8328 13.3311 11.4074 12.7613C11.982 12.1908 12.5545 11.6185 13.125 11.0444C13.3702 10.7979 13.5308 10.6049 13.6068 10.4657C13.9099 9.90891 13.8515 9.13773 13.4054 8.69234C11.8214 7.10965 10.238 5.52559 8.65531 3.94015C8.31989 3.60427 8.06489 3.39349 7.89031 3.3078C7.21742 2.97582 6.60363 3.21845 6.04071 3.69683C5.47939 4.17521 5.01842 4.71179 4.6578 5.30656C2.96766 8.09574 2.63087 11.3585 3.76909 14.4384C4.57945 16.631 5.87369 18.6064 7.34045 20.4299C8.88969 22.3571 10.5578 24.1552 12.3298 25.8783C14.8846 28.361 17.8071 30.5412 21.0403 32.056C22.9314 32.9427 24.8662 33.5116 26.8448 33.7627C28.6112 33.9874 30.744 33.5977 32.1578 32.4313C32.7787 31.919 33.2844 31.335 33.6748 30.6793C33.947 30.2222 34.0466 29.3322 33.6219 28.9074C32.008 27.2958 30.396 25.6817 28.7858 24.0651C28.4838 23.7623 28.2408 23.5657 28.0566 23.4754C27.6199 23.2605 27.1759 23.2633 26.7245 23.4837C26.5518 23.5684 26.3462 23.7293 26.108 23.9662C25.4486 24.6219 24.7901 25.2799 24.1326 25.9402Z" fill="#F9F1E8"/>
<path d="M29.0436 10.6499C27.5129 8.47308 25.0715 6.785 22.4053 6.35336C22.1208 6.30708 21.921 6.25141 21.806 6.18634C20.975 5.71483 21.1276 4.45289 22.0383 4.20614C22.2459 4.14978 22.5449 4.15597 22.9353 4.2247C23.6125 4.3443 24.2361 4.5143 24.8062 4.7347C27.9422 5.94577 30.272 8.04167 31.7956 11.0224C32.2804 11.9714 32.6239 12.9751 32.8259 14.0336C32.8992 14.4185 32.9352 14.6664 32.9338 14.7773C32.9215 15.8619 31.4925 16.3128 30.9186 15.3752C30.8517 15.2657 30.7942 15.0689 30.7461 14.7848C30.4927 13.2819 29.9252 11.9035 29.0436 10.6499Z" fill="#F9F1E8"/>
<path d="M21.918 8.81056C25.0852 9.50476 27.772 12.2623 28.4476 15.4185C28.5129 15.7244 28.5487 16.0619 28.436 16.3506C28.1109 17.1822 26.9472 17.2736 26.4901 16.5135C26.3162 16.2248 26.3155 15.778 26.2159 15.4722C25.6472 13.7273 24.5546 12.4078 22.938 11.5138C22.4505 11.2444 21.9505 11.0554 21.4383 10.9468C21.107 10.8762 20.895 10.8162 20.8025 10.7667C19.9371 10.3014 20.109 8.99133 21.0582 8.76864C21.2726 8.71823 21.5592 8.73221 21.918 8.81056Z" fill="#F9F1E8"/>
</g>
</svg>
