<svg width="104" height="119" viewBox="0 0 104 119" fill="none" xmlns="http://www.w3.org/2000/svg">
<g id="Vector">
<mask id="path-1-inside-1_133_466" fill="white">
<path d="M16.7955 0H92.2531C96.7467 0.69959 99.0654 3.72107 99.0608 8.12082C99.0608 9.49831 99.0631 10.8812 99.0677 12.2696C99.0677 12.3548 99.1111 12.3966 99.1977 12.3951C100.333 12.3741 101.927 12.2161 102.833 12.7716C104.399 13.7338 104.378 16.0325 102.835 16.9668C101.888 17.5386 100.342 17.3782 99.1954 17.3549C99.1072 17.3518 99.0631 17.3945 99.0631 17.4828C99.0693 18.9331 99.067 20.3849 99.0561 21.8384C99.0306 25.5362 97.2063 28.4182 93.6017 29.4502C92.896 29.6516 91.9351 29.7523 90.7189 29.7523C66.2519 29.7492 41.7856 29.7337 17.3201 29.7058C14.0985 29.7035 11.2807 27.6652 10.3036 24.6367C9.68151 22.703 9.92754 19.7442 9.93915 17.4735C9.93915 17.3976 9.90123 17.3596 9.82541 17.3596H5.10671C5.01851 17.3596 4.9744 17.403 4.9744 17.4897V42.9423C4.97434 42.977 4.98433 43.0112 5.00323 43.0408C5.02213 43.0704 5.04915 43.0943 5.08117 43.1096C21.6195 50.9918 38.1671 58.8825 54.7239 66.7818C55.9912 67.3861 56.7386 67.665 56.8848 69.0293C56.9761 69.8583 57.0195 70.6919 57.0148 71.5302C56.9994 74.0837 56.9862 76.6411 56.9754 79.2024C56.9754 79.2845 57.0164 79.3256 57.0984 79.3256C59.5231 79.3302 61.9509 79.331 64.3819 79.3279C67.4016 79.3233 67.8983 83.6626 64.5049 84.311C64.4337 84.325 64.3981 84.3684 64.3981 84.4412C64.3904 92.2149 64.3896 99.9894 64.3958 107.765C64.3973 109.409 64.2913 110.653 64.0778 111.497C63.0055 115.744 59.51 118.603 55.0698 119H53.9278C48.6219 118.524 44.625 114.452 44.6157 109.064C44.6003 100.858 44.591 92.6511 44.5879 84.4435C44.5879 84.3722 44.5531 84.3296 44.4834 84.3157C41.046 83.6486 41.5473 79.2931 44.8223 79.3163C47.1805 79.3318 49.5372 79.3349 51.8923 79.3256C51.9774 79.3256 52.0199 79.283 52.0199 79.1978V71.0769C52.0199 71.0103 51.9897 70.9623 51.9294 70.9328C34.9207 62.8182 17.9135 54.7067 0.907913 46.5983C0.0282321 46.1776 0.0235895 43.6372 0.0189474 42.1846C-0.012 33.3061 -0.00503683 24.4275 0.0398369 15.549C0.0444791 14.6643 0.157437 14.0236 0.378711 13.6269C1.01236 12.488 2.0313 12.3904 3.34734 12.3904C5.51057 12.392 7.67457 12.392 9.83934 12.3904C9.86458 12.3904 9.88878 12.3806 9.90663 12.3632C9.92448 12.3457 9.9345 12.3221 9.9345 12.2974C9.93915 10.8704 9.93915 9.44098 9.9345 8.00926C9.92522 3.63508 12.3647 0.650781 16.7955 0ZM94.103 7.46772C94.103 6.80075 93.8384 6.1611 93.3674 5.68948C92.8965 5.21786 92.2577 4.95291 91.5916 4.95291H17.3967C16.7306 4.95291 16.0919 5.21786 15.6209 5.68948C15.1499 6.1611 14.8853 6.80075 14.8853 7.46772V22.2869C14.8853 22.9539 15.1499 23.5936 15.6209 24.0652C16.0919 24.5368 16.7306 24.8017 17.3967 24.8017H91.5916C92.2577 24.8017 92.8965 24.5368 93.3674 24.0652C93.8384 23.5936 94.103 22.9539 94.103 22.2869V7.46772ZM49.8845 110.837C51.4141 115.065 57.5069 115.079 59.1107 110.882C59.3305 110.307 59.4411 109.418 59.4427 108.216C59.4504 100.264 59.4512 92.3187 59.445 84.3808C59.445 84.3579 59.4362 84.3361 59.4205 84.32C59.4048 84.3038 59.3836 84.2948 59.3614 84.2948L49.6687 84.2971C49.6522 84.2971 49.6359 84.3003 49.6207 84.3066C49.6055 84.313 49.5917 84.3222 49.5801 84.3339C49.5684 84.3455 49.5592 84.3593 49.5529 84.3746C49.5466 84.3898 49.5433 84.4061 49.5433 84.4226C49.5341 92.1824 49.5325 99.943 49.5387 107.704C49.5387 109.159 49.654 110.204 49.8845 110.837Z"/>
<path d="M34.7439 9.92835L22.266 9.90654C20.9418 9.90423 19.8664 10.9773 19.8641 12.3033L19.8639 12.452C19.8616 13.778 20.9331 14.8548 22.2573 14.8571L34.7353 14.8789C36.0595 14.8812 37.1348 13.8082 37.1372 12.4822L37.1374 12.3335C37.1397 11.0075 36.0681 9.93066 34.7439 9.92835Z"/>
<path d="M47.1732 9.94054L42.0205 9.93154C40.7296 9.92928 39.6813 10.9753 39.6791 12.2679L39.6786 12.5097C39.6764 13.8023 40.721 14.852 42.0119 14.8542L47.1646 14.8632C48.4555 14.8655 49.5037 13.8194 49.506 12.5268L49.5064 12.2851C49.5087 10.9925 48.464 9.9428 47.1732 9.94054Z"/>
<path d="M89.4191 50.6749C90.315 52.4948 92.8659 52.5041 93.7989 50.733C93.9955 50.3612 94.0945 49.8615 94.096 49.2339C94.11 45.5679 94.1092 41.9018 94.0937 38.2357C94.0906 37.2534 94.1966 36.5321 94.4117 36.0719C95.5096 33.7267 99.0677 34.6192 99.0654 37.2433C99.0639 40.5375 99.0639 43.8309 99.0654 47.1235C99.0685 49.4292 98.9594 50.9693 98.7381 51.7441C97.4221 56.3786 91.9026 58.4169 87.7549 55.9068C86.0961 54.9042 84.9998 53.4291 84.466 51.4814C84.1433 50.3031 84.2107 48.8946 84.206 47.5605C84.2045 46.9159 84.1124 46.4061 83.9298 46.0312C82.7786 43.6651 79.2413 44.5158 79.2459 47.1212C79.2536 50.0451 79.2529 52.9674 79.2436 55.8882C79.2389 57.5306 79.1252 58.7655 78.9024 59.593C76.268 69.364 62.2859 69.2989 59.7815 59.5093C59.5541 58.6199 59.4419 57.1711 59.445 55.163C59.4512 49.5368 59.4496 43.9107 59.4403 38.2845C59.4388 37.2743 59.5308 36.5545 59.7165 36.1253C60.3339 34.7052 62.1838 34.2892 63.4024 35.2049C64.1869 35.7976 64.3865 36.5181 64.3888 37.5478C64.4027 43.4249 64.4012 49.3021 64.3842 55.1793C64.3795 56.831 64.4909 57.9962 64.7184 58.6749C66.2016 63.1002 72.5218 63.0305 74.005 58.6238C74.2139 58.0009 74.3152 57.0658 74.309 55.8184C74.2982 53.4059 74.2959 50.9957 74.3021 48.5878C74.3082 46.8028 74.4328 45.5299 74.6757 44.7691C75.5113 42.1451 77.9299 40.1276 80.6594 39.7395C84.4451 39.2003 87.8176 41.5059 88.8899 45.1828C89.2381 46.3751 89.1591 47.765 89.1661 49.055C89.1708 49.7987 89.2551 50.3387 89.4191 50.6749Z"/>
</mask>
<path d="M16.7955 0H92.2531C96.7467 0.69959 99.0654 3.72107 99.0608 8.12082C99.0608 9.49831 99.0631 10.8812 99.0677 12.2696C99.0677 12.3548 99.1111 12.3966 99.1977 12.3951C100.333 12.3741 101.927 12.2161 102.833 12.7716C104.399 13.7338 104.378 16.0325 102.835 16.9668C101.888 17.5386 100.342 17.3782 99.1954 17.3549C99.1072 17.3518 99.0631 17.3945 99.0631 17.4828C99.0693 18.9331 99.067 20.3849 99.0561 21.8384C99.0306 25.5362 97.2063 28.4182 93.6017 29.4502C92.896 29.6516 91.9351 29.7523 90.7189 29.7523C66.2519 29.7492 41.7856 29.7337 17.3201 29.7058C14.0985 29.7035 11.2807 27.6652 10.3036 24.6367C9.68151 22.703 9.92754 19.7442 9.93915 17.4735C9.93915 17.3976 9.90123 17.3596 9.82541 17.3596H5.10671C5.01851 17.3596 4.9744 17.403 4.9744 17.4897V42.9423C4.97434 42.977 4.98433 43.0112 5.00323 43.0408C5.02213 43.0704 5.04915 43.0943 5.08117 43.1096C21.6195 50.9918 38.1671 58.8825 54.7239 66.7818C55.9912 67.3861 56.7386 67.665 56.8848 69.0293C56.9761 69.8583 57.0195 70.6919 57.0148 71.5302C56.9994 74.0837 56.9862 76.6411 56.9754 79.2024C56.9754 79.2845 57.0164 79.3256 57.0984 79.3256C59.5231 79.3302 61.9509 79.331 64.3819 79.3279C67.4016 79.3233 67.8983 83.6626 64.5049 84.311C64.4337 84.325 64.3981 84.3684 64.3981 84.4412C64.3904 92.2149 64.3896 99.9894 64.3958 107.765C64.3973 109.409 64.2913 110.653 64.0778 111.497C63.0055 115.744 59.51 118.603 55.0698 119H53.9278C48.6219 118.524 44.625 114.452 44.6157 109.064C44.6003 100.858 44.591 92.6511 44.5879 84.4435C44.5879 84.3722 44.5531 84.3296 44.4834 84.3157C41.046 83.6486 41.5473 79.2931 44.8223 79.3163C47.1805 79.3318 49.5372 79.3349 51.8923 79.3256C51.9774 79.3256 52.0199 79.283 52.0199 79.1978V71.0769C52.0199 71.0103 51.9897 70.9623 51.9294 70.9328C34.9207 62.8182 17.9135 54.7067 0.907913 46.5983C0.0282321 46.1776 0.0235895 43.6372 0.0189474 42.1846C-0.012 33.3061 -0.00503683 24.4275 0.0398369 15.549C0.0444791 14.6643 0.157437 14.0236 0.378711 13.6269C1.01236 12.488 2.0313 12.3904 3.34734 12.3904C5.51057 12.392 7.67457 12.392 9.83934 12.3904C9.86458 12.3904 9.88878 12.3806 9.90663 12.3632C9.92448 12.3457 9.9345 12.3221 9.9345 12.2974C9.93915 10.8704 9.93915 9.44098 9.9345 8.00926C9.92522 3.63508 12.3647 0.650781 16.7955 0ZM94.103 7.46772C94.103 6.80075 93.8384 6.1611 93.3674 5.68948C92.8965 5.21786 92.2577 4.95291 91.5916 4.95291H17.3967C16.7306 4.95291 16.0919 5.21786 15.6209 5.68948C15.1499 6.1611 14.8853 6.80075 14.8853 7.46772V22.2869C14.8853 22.9539 15.1499 23.5936 15.6209 24.0652C16.0919 24.5368 16.7306 24.8017 17.3967 24.8017H91.5916C92.2577 24.8017 92.8965 24.5368 93.3674 24.0652C93.8384 23.5936 94.103 22.9539 94.103 22.2869V7.46772ZM49.8845 110.837C51.4141 115.065 57.5069 115.079 59.1107 110.882C59.3305 110.307 59.4411 109.418 59.4427 108.216C59.4504 100.264 59.4512 92.3187 59.445 84.3808C59.445 84.3579 59.4362 84.3361 59.4205 84.32C59.4048 84.3038 59.3836 84.2948 59.3614 84.2948L49.6687 84.2971C49.6522 84.2971 49.6359 84.3003 49.6207 84.3066C49.6055 84.313 49.5917 84.3222 49.5801 84.3339C49.5684 84.3455 49.5592 84.3593 49.5529 84.3746C49.5466 84.3898 49.5433 84.4061 49.5433 84.4226C49.5341 92.1824 49.5325 99.943 49.5387 107.704C49.5387 109.159 49.654 110.204 49.8845 110.837Z" fill="#E5B56C"/>
<path d="M34.7439 9.92835L22.266 9.90654C20.9418 9.90423 19.8664 10.9773 19.8641 12.3033L19.8639 12.452C19.8616 13.778 20.9331 14.8548 22.2573 14.8571L34.7353 14.8789C36.0595 14.8812 37.1348 13.8082 37.1372 12.4822L37.1374 12.3335C37.1397 11.0075 36.0681 9.93066 34.7439 9.92835Z" fill="#E5B56C"/>
<path d="M47.1732 9.94054L42.0205 9.93154C40.7296 9.92928 39.6813 10.9753 39.6791 12.2679L39.6786 12.5097C39.6764 13.8023 40.721 14.852 42.0119 14.8542L47.1646 14.8632C48.4555 14.8655 49.5037 13.8194 49.506 12.5268L49.5064 12.2851C49.5087 10.9925 48.464 9.9428 47.1732 9.94054Z" fill="#E5B56C"/>
<path d="M89.4191 50.6749C90.315 52.4948 92.8659 52.5041 93.7989 50.733C93.9955 50.3612 94.0945 49.8615 94.096 49.2339C94.11 45.5679 94.1092 41.9018 94.0937 38.2357C94.0906 37.2534 94.1966 36.5321 94.4117 36.0719C95.5096 33.7267 99.0677 34.6192 99.0654 37.2433C99.0639 40.5375 99.0639 43.8309 99.0654 47.1235C99.0685 49.4292 98.9594 50.9693 98.7381 51.7441C97.4221 56.3786 91.9026 58.4169 87.7549 55.9068C86.0961 54.9042 84.9998 53.4291 84.466 51.4814C84.1433 50.3031 84.2107 48.8946 84.206 47.5605C84.2045 46.9159 84.1124 46.4061 83.9298 46.0312C82.7786 43.6651 79.2413 44.5158 79.2459 47.1212C79.2536 50.0451 79.2529 52.9674 79.2436 55.8882C79.2389 57.5306 79.1252 58.7655 78.9024 59.593C76.268 69.364 62.2859 69.2989 59.7815 59.5093C59.5541 58.6199 59.4419 57.1711 59.445 55.163C59.4512 49.5368 59.4496 43.9107 59.4403 38.2845C59.4388 37.2743 59.5308 36.5545 59.7165 36.1253C60.3339 34.7052 62.1838 34.2892 63.4024 35.2049C64.1869 35.7976 64.3865 36.5181 64.3888 37.5478C64.4027 43.4249 64.4012 49.3021 64.3842 55.1793C64.3795 56.831 64.4909 57.9962 64.7184 58.6749C66.2016 63.1002 72.5218 63.0305 74.005 58.6238C74.2139 58.0009 74.3152 57.0658 74.309 55.8184C74.2982 53.4059 74.2959 50.9957 74.3021 48.5878C74.3082 46.8028 74.4328 45.5299 74.6757 44.7691C75.5113 42.1451 77.9299 40.1276 80.6594 39.7395C84.4451 39.2003 87.8176 41.5059 88.8899 45.1828C89.2381 46.3751 89.1591 47.765 89.1661 49.055C89.1708 49.7987 89.2551 50.3387 89.4191 50.6749Z" fill="#E5B56C"/>
<path d="M16.7955 0H92.2531C96.7467 0.69959 99.0654 3.72107 99.0608 8.12082C99.0608 9.49831 99.0631 10.8812 99.0677 12.2696C99.0677 12.3548 99.1111 12.3966 99.1977 12.3951C100.333 12.3741 101.927 12.2161 102.833 12.7716C104.399 13.7338 104.378 16.0325 102.835 16.9668C101.888 17.5386 100.342 17.3782 99.1954 17.3549C99.1072 17.3518 99.0631 17.3945 99.0631 17.4828C99.0693 18.9331 99.067 20.3849 99.0561 21.8384C99.0306 25.5362 97.2063 28.4182 93.6017 29.4502C92.896 29.6516 91.9351 29.7523 90.7189 29.7523C66.2519 29.7492 41.7856 29.7337 17.3201 29.7058C14.0985 29.7035 11.2807 27.6652 10.3036 24.6367C9.68151 22.703 9.92754 19.7442 9.93915 17.4735C9.93915 17.3976 9.90123 17.3596 9.82541 17.3596H5.10671C5.01851 17.3596 4.9744 17.403 4.9744 17.4897V42.9423C4.97434 42.977 4.98433 43.0112 5.00323 43.0408C5.02213 43.0704 5.04915 43.0943 5.08117 43.1096C21.6195 50.9918 38.1671 58.8825 54.7239 66.7818C55.9912 67.3861 56.7386 67.665 56.8848 69.0293C56.9761 69.8583 57.0195 70.6919 57.0148 71.5302C56.9994 74.0837 56.9862 76.6411 56.9754 79.2024C56.9754 79.2845 57.0164 79.3256 57.0984 79.3256C59.5231 79.3302 61.9509 79.331 64.3819 79.3279C67.4016 79.3233 67.8983 83.6626 64.5049 84.311C64.4337 84.325 64.3981 84.3684 64.3981 84.4412C64.3904 92.2149 64.3896 99.9894 64.3958 107.765C64.3973 109.409 64.2913 110.653 64.0778 111.497C63.0055 115.744 59.51 118.603 55.0698 119H53.9278C48.6219 118.524 44.625 114.452 44.6157 109.064C44.6003 100.858 44.591 92.6511 44.5879 84.4435C44.5879 84.3722 44.5531 84.3296 44.4834 84.3157C41.046 83.6486 41.5473 79.2931 44.8223 79.3163C47.1805 79.3318 49.5372 79.3349 51.8923 79.3256C51.9774 79.3256 52.0199 79.283 52.0199 79.1978V71.0769C52.0199 71.0103 51.9897 70.9623 51.9294 70.9328C34.9207 62.8182 17.9135 54.7067 0.907913 46.5983C0.0282321 46.1776 0.0235895 43.6372 0.0189474 42.1846C-0.012 33.3061 -0.00503683 24.4275 0.0398369 15.549C0.0444791 14.6643 0.157437 14.0236 0.378711 13.6269C1.01236 12.488 2.0313 12.3904 3.34734 12.3904C5.51057 12.392 7.67457 12.392 9.83934 12.3904C9.86458 12.3904 9.88878 12.3806 9.90663 12.3632C9.92448 12.3457 9.9345 12.3221 9.9345 12.2974C9.93915 10.8704 9.93915 9.44098 9.9345 8.00926C9.92522 3.63508 12.3647 0.650781 16.7955 0ZM94.103 7.46772C94.103 6.80075 93.8384 6.1611 93.3674 5.68948C92.8965 5.21786 92.2577 4.95291 91.5916 4.95291H17.3967C16.7306 4.95291 16.0919 5.21786 15.6209 5.68948C15.1499 6.1611 14.8853 6.80075 14.8853 7.46772V22.2869C14.8853 22.9539 15.1499 23.5936 15.6209 24.0652C16.0919 24.5368 16.7306 24.8017 17.3967 24.8017H91.5916C92.2577 24.8017 92.8965 24.5368 93.3674 24.0652C93.8384 23.5936 94.103 22.9539 94.103 22.2869V7.46772ZM49.8845 110.837C51.4141 115.065 57.5069 115.079 59.1107 110.882C59.3305 110.307 59.4411 109.418 59.4427 108.216C59.4504 100.264 59.4512 92.3187 59.445 84.3808C59.445 84.3579 59.4362 84.3361 59.4205 84.32C59.4048 84.3038 59.3836 84.2948 59.3614 84.2948L49.6687 84.2971C49.6522 84.2971 49.6359 84.3003 49.6207 84.3066C49.6055 84.313 49.5917 84.3222 49.5801 84.3339C49.5684 84.3455 49.5592 84.3593 49.5529 84.3746C49.5466 84.3898 49.5433 84.4061 49.5433 84.4226C49.5341 92.1824 49.5325 99.943 49.5387 107.704C49.5387 109.159 49.654 110.204 49.8845 110.837Z" stroke="#F9F1E8" stroke-width="0.6" mask="url(#path-1-inside-1_133_466)"/>
<path d="M34.7439 9.92835L22.266 9.90654C20.9418 9.90423 19.8664 10.9773 19.8641 12.3033L19.8639 12.452C19.8616 13.778 20.9331 14.8548 22.2573 14.8571L34.7353 14.8789C36.0595 14.8812 37.1348 13.8082 37.1372 12.4822L37.1374 12.3335C37.1397 11.0075 36.0681 9.93066 34.7439 9.92835Z" stroke="#F9F1E8" stroke-width="0.6" mask="url(#path-1-inside-1_133_466)"/>
<path d="M47.1732 9.94054L42.0205 9.93154C40.7296 9.92928 39.6813 10.9753 39.6791 12.2679L39.6786 12.5097C39.6764 13.8023 40.721 14.852 42.0119 14.8542L47.1646 14.8632C48.4555 14.8655 49.5037 13.8194 49.506 12.5268L49.5064 12.2851C49.5087 10.9925 48.464 9.9428 47.1732 9.94054Z" stroke="#F9F1E8" stroke-width="0.6" mask="url(#path-1-inside-1_133_466)"/>
<path d="M89.4191 50.6749C90.315 52.4948 92.8659 52.5041 93.7989 50.733C93.9955 50.3612 94.0945 49.8615 94.096 49.2339C94.11 45.5679 94.1092 41.9018 94.0937 38.2357C94.0906 37.2534 94.1966 36.5321 94.4117 36.0719C95.5096 33.7267 99.0677 34.6192 99.0654 37.2433C99.0639 40.5375 99.0639 43.8309 99.0654 47.1235C99.0685 49.4292 98.9594 50.9693 98.7381 51.7441C97.4221 56.3786 91.9026 58.4169 87.7549 55.9068C86.0961 54.9042 84.9998 53.4291 84.466 51.4814C84.1433 50.3031 84.2107 48.8946 84.206 47.5605C84.2045 46.9159 84.1124 46.4061 83.9298 46.0312C82.7786 43.6651 79.2413 44.5158 79.2459 47.1212C79.2536 50.0451 79.2529 52.9674 79.2436 55.8882C79.2389 57.5306 79.1252 58.7655 78.9024 59.593C76.268 69.364 62.2859 69.2989 59.7815 59.5093C59.5541 58.6199 59.4419 57.1711 59.445 55.163C59.4512 49.5368 59.4496 43.9107 59.4403 38.2845C59.4388 37.2743 59.5308 36.5545 59.7165 36.1253C60.3339 34.7052 62.1838 34.2892 63.4024 35.2049C64.1869 35.7976 64.3865 36.5181 64.3888 37.5478C64.4027 43.4249 64.4012 49.3021 64.3842 55.1793C64.3795 56.831 64.4909 57.9962 64.7184 58.6749C66.2016 63.1002 72.5218 63.0305 74.005 58.6238C74.2139 58.0009 74.3152 57.0658 74.309 55.8184C74.2982 53.4059 74.2959 50.9957 74.3021 48.5878C74.3082 46.8028 74.4328 45.5299 74.6757 44.7691C75.5113 42.1451 77.9299 40.1276 80.6594 39.7395C84.4451 39.2003 87.8176 41.5059 88.8899 45.1828C89.2381 46.3751 89.1591 47.765 89.1661 49.055C89.1708 49.7987 89.2551 50.3387 89.4191 50.6749Z" stroke="#F9F1E8" stroke-width="0.6" mask="url(#path-1-inside-1_133_466)"/>
</g>
</svg>
