<svg width="140" height="119" viewBox="0 0 140 119" fill="none" xmlns="http://www.w3.org/2000/svg">
<g id="Vector">
<mask id="path-1-inside-1_133_473" fill="white">
<path fill-rule="evenodd" clip-rule="evenodd" d="M139.5 95.8857V23.8905C139.133 21.9687 138.133 20.6881 136.5 20.0487C135.887 19.8076 134.973 19.6888 133.761 19.6924C130.939 19.7013 128.108 19.7004 125.266 19.6897C125.17 19.6897 125.122 19.6415 125.122 19.545C125.111 15.8818 125.109 12.2177 125.114 8.55272C125.119 4.82075 123.379 1.20061 119.589 0.244173C118.476 -0.0381046 117.094 -0.0107133 115.767 0.0155749C115.318 0.0244663 114.876 0.0332315 114.453 0.0298459C113.023 0.0155574 111.944 0.110219 111.217 0.31383C107.747 1.28098 105.969 4.81003 105.961 8.32232C105.95 12.057 105.949 15.8059 105.958 19.5691C105.958 19.6025 105.945 19.6346 105.922 19.6582C105.898 19.6818 105.866 19.6951 105.833 19.6951H96.4779C96.3964 19.6951 96.3557 19.654 96.3557 19.5718C96.3611 18.2769 96.3584 16.9811 96.3476 15.6845C96.334 13.4313 95.7964 11.8346 93.8146 10.7871C92.6908 10.1926 91.5314 10.2025 90.2295 10.2136C90.094 10.2148 89.957 10.2159 89.8184 10.2164C82.2548 10.2414 64.3115 10.2405 35.9884 10.2138C34.2238 10.212 33.0193 10.3227 32.375 10.546C30.1244 11.3256 29.2719 13.2277 29.2719 15.5237C29.2719 16.8508 29.2683 18.1823 29.2611 19.5182C29.2611 19.6361 29.2013 19.6951 29.0819 19.6951H19.8433C19.731 19.6951 19.6749 19.6397 19.6749 19.5289L19.6641 10.9344C19.6614 8.6063 18.9637 6.81131 16.7646 5.89506C16.1438 5.63609 15.2389 5.50392 14.0498 5.49856C12.7014 5.4932 11.3521 5.49856 10.002 5.51463C4.9442 5.57893 1.04297 9.25732 0.5 14.2538V91.0204C1.14613 95.3391 3.89627 98.6237 8.07441 99.7301C9.0047 99.9748 10.3911 100.096 12.2336 100.095C18.9609 100.084 25.6865 100.085 32.4103 100.097C32.5062 100.097 32.5741 100.139 32.6139 100.223C37.9431 111.167 48.8731 118.374 61.1822 118.961C74.751 119.609 87.1497 112.199 93.0327 100.212C93.0506 100.176 93.0784 100.146 93.1129 100.124C93.1475 100.103 93.1874 100.092 93.2282 100.092C106.674 100.09 120.125 100.09 133.582 100.092C134.921 100.094 135.908 99.9677 136.544 99.7141C138.147 99.0782 139.133 97.8021 139.5 95.8857ZM120.214 14.9531H110.848C110.831 14.9531 110.815 14.9499 110.8 14.9437C110.785 14.9375 110.771 14.9284 110.759 14.917C110.748 14.9055 110.738 14.8919 110.732 14.877C110.726 14.862 110.723 14.846 110.723 14.8298V8.04101C110.723 7.36174 110.879 6.73622 111.375 6.10986C111.909 5.43599 112.602 4.98639 113.28 4.98639H117.781C118.46 4.98639 119.276 5.62611 119.75 6.22997C120.224 6.83382 120.339 7.36174 120.339 8.04101V14.8298C120.339 14.846 120.335 14.862 120.329 14.877C120.323 14.8919 120.314 14.9055 120.302 14.917C120.29 14.9284 120.277 14.9375 120.262 14.9437C120.246 14.9499 120.23 14.9531 120.214 14.9531ZM12.9873 81.1652C10.4199 81.1209 7.78759 81.0755 5.50074 82.3241C5.36681 82.3973 5.29984 82.358 5.29984 82.2062C5.29803 60.0466 5.29803 37.8887 5.29984 15.7327C5.29984 13.4126 5.92154 11.6551 8.06355 10.6799C8.67168 10.4013 9.53228 10.2513 10.6454 10.2298C12.0064 10.203 13.3656 10.2021 14.7231 10.2272C14.8299 10.2289 14.8832 10.2825 14.8832 10.3879V81.0033C14.8832 81.1194 14.8244 81.1783 14.7068 81.1801C14.14 81.1851 13.5653 81.1751 12.9873 81.1652ZM69.1584 24.5763C68.401 24.8603 67.6245 25.6882 67.6218 26.5535C67.6073 28.9254 67.6037 31.3205 67.6109 33.7388C67.6109 33.7729 67.5975 33.8056 67.5736 33.8298C67.5496 33.8539 67.5172 33.8674 67.4833 33.8674H58.2284C58.0873 33.8674 58.0167 33.7978 58.0167 33.6585C58.0094 31.7599 58.0103 29.8327 58.0194 27.877C58.0248 26.9304 57.9561 26.2695 57.8131 25.8945C57.2864 24.5067 55.5625 24.0218 54.3272 24.8014C53.472 25.3399 53.2331 26.0927 53.2331 27.1322L53.2277 33.7362C53.2277 33.7534 53.2243 33.7705 53.2176 33.7864C53.2109 33.8023 53.2011 33.8168 53.1887 33.829C53.1764 33.8412 53.1617 33.8508 53.1456 33.8574C53.1294 33.864 53.1121 33.8674 53.0947 33.8674H43.8018C43.6986 33.8674 43.6461 33.8165 43.6443 33.7147C43.6371 31.6733 43.6371 29.6389 43.6443 27.6118C43.6461 26.7241 43.5375 26.0704 43.3185 25.6507C42.2081 23.5288 38.8336 24.3754 38.8417 26.7357C38.8508 29.0701 38.8517 31.4018 38.8445 33.7308C38.8437 33.7673 38.8288 33.802 38.803 33.8276C38.7771 33.8531 38.7422 33.8674 38.706 33.8674H34.1885C34.0926 33.8674 34.0446 33.8201 34.0446 33.7254L34.0473 15.0763C34.0473 15.0436 34.0605 15.0123 34.0839 14.9892C34.1073 14.966 34.1391 14.9531 34.1722 14.9531H91.4445C91.4617 14.9531 91.4786 14.9564 91.4944 14.9629C91.5102 14.9693 91.5246 14.9788 91.5367 14.9907C91.5488 15.0027 91.5584 15.0168 91.5649 15.0324C91.5715 15.048 91.5749 15.0648 91.5749 15.0817V33.7228C91.5749 33.7604 91.5594 33.7965 91.5319 33.8232C91.5044 33.8498 91.4671 33.8648 91.4283 33.8648L86.9053 33.8674C86.8166 33.8674 86.7723 33.8237 86.7723 33.7362L86.7669 27.4912C86.7669 26.5767 86.6429 25.9213 86.3949 25.5247C85.0457 23.352 81.9453 24.5388 81.9752 27.0733C82.0005 29.2844 82.0005 31.4964 81.9752 33.7094C81.9734 33.8147 81.9191 33.8674 81.8123 33.8674H72.5682C72.4488 33.8674 72.3891 33.8094 72.3891 33.6933C72.3873 32.3698 72.3927 30.164 72.4053 27.0759C72.4108 25.2649 70.9176 23.9227 69.1584 24.5763ZM115.623 54.0945C113.136 54.0945 111.909 54.709 110.899 55.3591C110.791 55.4305 110.736 55.4019 110.736 55.2733V19.8263C110.736 19.737 110.781 19.6924 110.872 19.6924L120.17 19.6951C120.277 19.6951 120.33 19.7477 120.33 19.8531V55.276C120.33 55.4064 120.275 55.435 120.165 55.3618C119.09 54.6527 117.133 54.0945 115.623 54.0945ZM12.3242 85.9339C15.101 86.0014 17.8583 86.0684 19.2786 83.0528C19.5374 82.5009 19.6668 81.857 19.6668 81.1212C19.6668 62.2818 19.6695 43.4353 19.6749 24.5817C19.6749 24.471 19.731 24.4156 19.8433 24.4156H29.0819C29.1959 24.4156 29.2529 24.4728 29.2529 24.5871C29.2746 27.2876 29.2773 29.9845 29.2611 32.6779C29.252 34.0157 29.3706 34.998 29.6167 35.6249C30.4773 37.811 32.3343 38.596 34.6663 38.596C53.1327 38.596 71.5981 38.5978 90.0627 38.6014C91.6554 38.6014 92.7866 38.4674 93.4562 38.1995C95.6091 37.3395 96.3367 35.5204 96.3476 33.2539C96.362 30.373 96.3638 27.4849 96.353 24.5897C96.353 24.4737 96.4118 24.4156 96.5295 24.4156H105.839C105.869 24.4156 105.898 24.4277 105.919 24.4493C105.941 24.471 105.953 24.5003 105.953 24.5308V59.7501C105.953 60.2379 106.069 60.7188 106.292 61.1539L111.578 71.5542C111.634 71.6631 111.6 71.7176 111.477 71.7176H93.2255C93.1658 71.7176 93.1223 71.6917 93.0952 71.6399C88.1777 62.1309 80.5988 56.136 70.3584 53.6552C56.29 50.2501 41.4398 56.712 34.0582 68.8001C29.1715 76.8025 28.0611 86.1579 30.6158 95.2105C30.6447 95.3105 30.6067 95.3606 30.5017 95.3606C24.5164 95.3748 18.5401 95.3793 12.5729 95.3739C10.716 95.3722 9.42641 95.24 8.70426 94.9774C6.64912 94.2273 4.98492 91.9715 5.39215 89.7371C5.69893 88.0574 6.98033 86.6508 8.62824 86.1364C9.08434 85.9936 9.87255 85.9194 10.9929 85.9141C11.4335 85.9122 11.8791 85.9231 12.3242 85.9339ZM108.144 88.2824C110.671 88.2904 111.784 85.1318 109.569 83.8994C109.136 83.6583 108.489 83.5377 107.628 83.5377C103.89 83.5395 100.143 83.5386 96.3856 83.5351C96.2842 83.5351 96.2299 83.485 96.2227 83.385C96.0525 81.0792 95.6408 78.8163 94.9874 76.5962C94.9567 76.4962 94.9938 76.4462 95.0987 76.4462C101.737 76.439 108.367 76.4381 114.988 76.4435C116.101 76.4435 117.149 76.1836 117.635 75.2245C120.06 70.4432 122.447 65.7307 124.796 61.087C125.007 60.6748 125.117 60.2188 125.117 59.7555V24.571C125.117 24.4674 125.168 24.4156 125.271 24.4156H134.532C134.646 24.4156 134.703 24.471 134.703 24.5817V95.1998C134.703 95.3123 134.647 95.3686 134.535 95.3686H95.0634C95.0509 95.3687 95.0384 95.3659 95.0272 95.3604C95.0159 95.3548 95.006 95.3466 94.9984 95.3365C94.9908 95.3264 94.9856 95.3146 94.9832 95.302C94.9808 95.2895 94.9813 95.2765 94.9847 95.2641C95.6254 93.0244 96.0507 90.7445 96.2607 88.4244C96.2679 88.3315 96.3195 88.2851 96.4154 88.2851C100.33 88.2726 104.24 88.2717 108.144 88.2824ZM83.137 65.8371C88.5293 71.1583 91.5586 78.3754 91.5586 85.9007C91.5586 89.6268 90.8149 93.3165 89.3699 96.759C87.9249 100.202 85.807 103.33 83.137 105.964C80.4671 108.599 77.2974 110.689 73.8089 112.115C70.3205 113.541 66.5816 114.275 62.8057 114.275C55.1799 114.275 47.8665 111.285 42.4743 105.964C39.8043 103.33 37.6864 100.202 36.2414 96.759C34.7965 93.3165 34.0528 89.6268 34.0528 85.9007C34.0528 78.3754 37.0821 71.1583 42.4743 65.8371C47.8665 60.5159 55.1799 57.5265 62.8057 57.5265C70.4314 57.5265 77.7448 60.5159 83.137 65.8371ZM111.47 60.7072C111.476 60.6841 111.49 60.6639 111.51 60.6503C111.51 60.6503 113.945 59.7565 115.481 59.7555C117.087 59.7543 119.557 60.6449 119.557 60.6449C119.577 60.6585 119.591 60.6787 119.597 60.7019C119.603 60.725 119.6 60.7495 119.589 60.7708L115.623 68.6125C115.615 68.6289 115.602 68.6426 115.586 68.6522C115.57 68.6618 115.552 68.6668 115.533 68.6668C115.515 68.6668 115.497 68.6618 115.481 68.6522C115.465 68.6426 115.452 68.6289 115.444 68.6125L111.477 60.7762C111.467 60.7548 111.464 60.7304 111.47 60.7072Z"/>
<path d="M86.7669 85.9061C86.7669 92.1773 84.2424 98.1916 79.7488 102.626C75.2552 107.06 69.1606 109.552 62.8057 109.552C56.4508 109.552 50.3561 107.06 45.8625 102.626C41.3689 98.1916 38.8445 92.1773 38.8445 85.9061C38.8445 79.6348 41.3689 73.6205 45.8625 69.1861C50.3561 64.7516 56.4508 62.2604 62.8057 62.2604C69.1606 62.2604 75.2552 64.7516 79.7488 69.1861C84.2424 73.6205 86.7669 79.6348 86.7669 85.9061ZM81.9725 85.8953C81.9725 83.4122 81.4768 80.9533 80.5139 78.6592C79.5509 76.365 78.1395 74.2805 76.3602 72.5246C74.5809 70.7688 72.4686 69.3759 70.1438 68.4257C67.8191 67.4754 65.3274 66.9863 62.8111 66.9863C57.7292 66.9863 52.8554 68.9785 49.262 72.5246C45.6685 76.0708 43.6497 80.8803 43.6497 85.8953C43.6497 90.9103 45.6685 95.7199 49.262 99.266C51.0413 101.022 53.1536 102.415 55.4784 103.365C57.8031 104.315 60.2948 104.804 62.8111 104.804C65.3274 104.804 67.8191 104.315 70.1438 103.365C72.4686 102.415 74.5809 101.022 76.3602 99.266C78.1395 97.5102 79.5509 95.4256 80.5139 93.1315C81.4768 90.8373 81.9725 88.3785 81.9725 85.8953Z"/>
<path d="M53.4069 93.954C53.1082 93.2709 53.1571 92.1081 53.7625 91.508C55.9434 89.3523 58.128 87.1911 60.3162 85.0246C60.3813 84.9585 60.4139 84.88 60.4139 84.7889C60.4266 80.7952 60.4247 76.8088 60.4085 72.8294C60.403 71.8006 60.5161 71.0541 60.7478 70.5897C61.8636 68.3473 65.2192 69.3359 65.2164 71.8783C65.211 76.681 65.2038 81.482 65.1947 86.2811C65.1929 86.7205 64.9278 87.2001 64.3993 87.7198C62.1695 89.9077 59.9415 92.0974 57.7153 94.2889C57.1959 94.8015 56.7488 95.1248 56.3742 95.2588C55.1824 95.6794 53.8901 95.0685 53.4069 93.954Z"/>
<path d="M122.813 83.5495L117.834 83.5581C116.582 83.5602 115.569 84.5636 115.571 85.799L115.572 86.0294C115.574 87.2649 116.59 88.2647 117.842 88.2626L122.821 88.254C124.073 88.2518 125.087 87.2485 125.084 86.013L125.084 85.7826C125.082 84.5472 124.065 83.5474 122.813 83.5495Z"/>
</mask>
<path fill-rule="evenodd" clip-rule="evenodd" d="M139.5 95.8857V23.8905C139.133 21.9687 138.133 20.6881 136.5 20.0487C135.887 19.8076 134.973 19.6888 133.761 19.6924C130.939 19.7013 128.108 19.7004 125.266 19.6897C125.17 19.6897 125.122 19.6415 125.122 19.545C125.111 15.8818 125.109 12.2177 125.114 8.55272C125.119 4.82075 123.379 1.20061 119.589 0.244173C118.476 -0.0381046 117.094 -0.0107133 115.767 0.0155749C115.318 0.0244663 114.876 0.0332315 114.453 0.0298459C113.023 0.0155574 111.944 0.110219 111.217 0.31383C107.747 1.28098 105.969 4.81003 105.961 8.32232C105.95 12.057 105.949 15.8059 105.958 19.5691C105.958 19.6025 105.945 19.6346 105.922 19.6582C105.898 19.6818 105.866 19.6951 105.833 19.6951H96.4779C96.3964 19.6951 96.3557 19.654 96.3557 19.5718C96.3611 18.2769 96.3584 16.9811 96.3476 15.6845C96.334 13.4313 95.7964 11.8346 93.8146 10.7871C92.6908 10.1926 91.5314 10.2025 90.2295 10.2136C90.094 10.2148 89.957 10.2159 89.8184 10.2164C82.2548 10.2414 64.3115 10.2405 35.9884 10.2138C34.2238 10.212 33.0193 10.3227 32.375 10.546C30.1244 11.3256 29.2719 13.2277 29.2719 15.5237C29.2719 16.8508 29.2683 18.1823 29.2611 19.5182C29.2611 19.6361 29.2013 19.6951 29.0819 19.6951H19.8433C19.731 19.6951 19.6749 19.6397 19.6749 19.5289L19.6641 10.9344C19.6614 8.6063 18.9637 6.81131 16.7646 5.89506C16.1438 5.63609 15.2389 5.50392 14.0498 5.49856C12.7014 5.4932 11.3521 5.49856 10.002 5.51463C4.9442 5.57893 1.04297 9.25732 0.5 14.2538V91.0204C1.14613 95.3391 3.89627 98.6237 8.07441 99.7301C9.0047 99.9748 10.3911 100.096 12.2336 100.095C18.9609 100.084 25.6865 100.085 32.4103 100.097C32.5062 100.097 32.5741 100.139 32.6139 100.223C37.9431 111.167 48.8731 118.374 61.1822 118.961C74.751 119.609 87.1497 112.199 93.0327 100.212C93.0506 100.176 93.0784 100.146 93.1129 100.124C93.1475 100.103 93.1874 100.092 93.2282 100.092C106.674 100.09 120.125 100.09 133.582 100.092C134.921 100.094 135.908 99.9677 136.544 99.7141C138.147 99.0782 139.133 97.8021 139.5 95.8857ZM120.214 14.9531H110.848C110.831 14.9531 110.815 14.9499 110.8 14.9437C110.785 14.9375 110.771 14.9284 110.759 14.917C110.748 14.9055 110.738 14.8919 110.732 14.877C110.726 14.862 110.723 14.846 110.723 14.8298V8.04101C110.723 7.36174 110.879 6.73622 111.375 6.10986C111.909 5.43599 112.602 4.98639 113.28 4.98639H117.781C118.46 4.98639 119.276 5.62611 119.75 6.22997C120.224 6.83382 120.339 7.36174 120.339 8.04101V14.8298C120.339 14.846 120.335 14.862 120.329 14.877C120.323 14.8919 120.314 14.9055 120.302 14.917C120.29 14.9284 120.277 14.9375 120.262 14.9437C120.246 14.9499 120.23 14.9531 120.214 14.9531ZM12.9873 81.1652C10.4199 81.1209 7.78759 81.0755 5.50074 82.3241C5.36681 82.3973 5.29984 82.358 5.29984 82.2062C5.29803 60.0466 5.29803 37.8887 5.29984 15.7327C5.29984 13.4126 5.92154 11.6551 8.06355 10.6799C8.67168 10.4013 9.53228 10.2513 10.6454 10.2298C12.0064 10.203 13.3656 10.2021 14.7231 10.2272C14.8299 10.2289 14.8832 10.2825 14.8832 10.3879V81.0033C14.8832 81.1194 14.8244 81.1783 14.7068 81.1801C14.14 81.1851 13.5653 81.1751 12.9873 81.1652ZM69.1584 24.5763C68.401 24.8603 67.6245 25.6882 67.6218 26.5535C67.6073 28.9254 67.6037 31.3205 67.6109 33.7388C67.6109 33.7729 67.5975 33.8056 67.5736 33.8298C67.5496 33.8539 67.5172 33.8674 67.4833 33.8674H58.2284C58.0873 33.8674 58.0167 33.7978 58.0167 33.6585C58.0094 31.7599 58.0103 29.8327 58.0194 27.877C58.0248 26.9304 57.9561 26.2695 57.8131 25.8945C57.2864 24.5067 55.5625 24.0218 54.3272 24.8014C53.472 25.3399 53.2331 26.0927 53.2331 27.1322L53.2277 33.7362C53.2277 33.7534 53.2243 33.7705 53.2176 33.7864C53.2109 33.8023 53.2011 33.8168 53.1887 33.829C53.1764 33.8412 53.1617 33.8508 53.1456 33.8574C53.1294 33.864 53.1121 33.8674 53.0947 33.8674H43.8018C43.6986 33.8674 43.6461 33.8165 43.6443 33.7147C43.6371 31.6733 43.6371 29.6389 43.6443 27.6118C43.6461 26.7241 43.5375 26.0704 43.3185 25.6507C42.2081 23.5288 38.8336 24.3754 38.8417 26.7357C38.8508 29.0701 38.8517 31.4018 38.8445 33.7308C38.8437 33.7673 38.8288 33.802 38.803 33.8276C38.7771 33.8531 38.7422 33.8674 38.706 33.8674H34.1885C34.0926 33.8674 34.0446 33.8201 34.0446 33.7254L34.0473 15.0763C34.0473 15.0436 34.0605 15.0123 34.0839 14.9892C34.1073 14.966 34.1391 14.9531 34.1722 14.9531H91.4445C91.4617 14.9531 91.4786 14.9564 91.4944 14.9629C91.5102 14.9693 91.5246 14.9788 91.5367 14.9907C91.5488 15.0027 91.5584 15.0168 91.5649 15.0324C91.5715 15.048 91.5749 15.0648 91.5749 15.0817V33.7228C91.5749 33.7604 91.5594 33.7965 91.5319 33.8232C91.5044 33.8498 91.4671 33.8648 91.4283 33.8648L86.9053 33.8674C86.8166 33.8674 86.7723 33.8237 86.7723 33.7362L86.7669 27.4912C86.7669 26.5767 86.6429 25.9213 86.3949 25.5247C85.0457 23.352 81.9453 24.5388 81.9752 27.0733C82.0005 29.2844 82.0005 31.4964 81.9752 33.7094C81.9734 33.8147 81.9191 33.8674 81.8123 33.8674H72.5682C72.4488 33.8674 72.3891 33.8094 72.3891 33.6933C72.3873 32.3698 72.3927 30.164 72.4053 27.0759C72.4108 25.2649 70.9176 23.9227 69.1584 24.5763ZM115.623 54.0945C113.136 54.0945 111.909 54.709 110.899 55.3591C110.791 55.4305 110.736 55.4019 110.736 55.2733V19.8263C110.736 19.737 110.781 19.6924 110.872 19.6924L120.17 19.6951C120.277 19.6951 120.33 19.7477 120.33 19.8531V55.276C120.33 55.4064 120.275 55.435 120.165 55.3618C119.09 54.6527 117.133 54.0945 115.623 54.0945ZM12.3242 85.9339C15.101 86.0014 17.8583 86.0684 19.2786 83.0528C19.5374 82.5009 19.6668 81.857 19.6668 81.1212C19.6668 62.2818 19.6695 43.4353 19.6749 24.5817C19.6749 24.471 19.731 24.4156 19.8433 24.4156H29.0819C29.1959 24.4156 29.2529 24.4728 29.2529 24.5871C29.2746 27.2876 29.2773 29.9845 29.2611 32.6779C29.252 34.0157 29.3706 34.998 29.6167 35.6249C30.4773 37.811 32.3343 38.596 34.6663 38.596C53.1327 38.596 71.5981 38.5978 90.0627 38.6014C91.6554 38.6014 92.7866 38.4674 93.4562 38.1995C95.6091 37.3395 96.3367 35.5204 96.3476 33.2539C96.362 30.373 96.3638 27.4849 96.353 24.5897C96.353 24.4737 96.4118 24.4156 96.5295 24.4156H105.839C105.869 24.4156 105.898 24.4277 105.919 24.4493C105.941 24.471 105.953 24.5003 105.953 24.5308V59.7501C105.953 60.2379 106.069 60.7188 106.292 61.1539L111.578 71.5542C111.634 71.6631 111.6 71.7176 111.477 71.7176H93.2255C93.1658 71.7176 93.1223 71.6917 93.0952 71.6399C88.1777 62.1309 80.5988 56.136 70.3584 53.6552C56.29 50.2501 41.4398 56.712 34.0582 68.8001C29.1715 76.8025 28.0611 86.1579 30.6158 95.2105C30.6447 95.3105 30.6067 95.3606 30.5017 95.3606C24.5164 95.3748 18.5401 95.3793 12.5729 95.3739C10.716 95.3722 9.42641 95.24 8.70426 94.9774C6.64912 94.2273 4.98492 91.9715 5.39215 89.7371C5.69893 88.0574 6.98033 86.6508 8.62824 86.1364C9.08434 85.9936 9.87255 85.9194 10.9929 85.9141C11.4335 85.9122 11.8791 85.9231 12.3242 85.9339ZM108.144 88.2824C110.671 88.2904 111.784 85.1318 109.569 83.8994C109.136 83.6583 108.489 83.5377 107.628 83.5377C103.89 83.5395 100.143 83.5386 96.3856 83.5351C96.2842 83.5351 96.2299 83.485 96.2227 83.385C96.0525 81.0792 95.6408 78.8163 94.9874 76.5962C94.9567 76.4962 94.9938 76.4462 95.0987 76.4462C101.737 76.439 108.367 76.4381 114.988 76.4435C116.101 76.4435 117.149 76.1836 117.635 75.2245C120.06 70.4432 122.447 65.7307 124.796 61.087C125.007 60.6748 125.117 60.2188 125.117 59.7555V24.571C125.117 24.4674 125.168 24.4156 125.271 24.4156H134.532C134.646 24.4156 134.703 24.471 134.703 24.5817V95.1998C134.703 95.3123 134.647 95.3686 134.535 95.3686H95.0634C95.0509 95.3687 95.0384 95.3659 95.0272 95.3604C95.0159 95.3548 95.006 95.3466 94.9984 95.3365C94.9908 95.3264 94.9856 95.3146 94.9832 95.302C94.9808 95.2895 94.9813 95.2765 94.9847 95.2641C95.6254 93.0244 96.0507 90.7445 96.2607 88.4244C96.2679 88.3315 96.3195 88.2851 96.4154 88.2851C100.33 88.2726 104.24 88.2717 108.144 88.2824ZM83.137 65.8371C88.5293 71.1583 91.5586 78.3754 91.5586 85.9007C91.5586 89.6268 90.8149 93.3165 89.3699 96.759C87.9249 100.202 85.807 103.33 83.137 105.964C80.4671 108.599 77.2974 110.689 73.8089 112.115C70.3205 113.541 66.5816 114.275 62.8057 114.275C55.1799 114.275 47.8665 111.285 42.4743 105.964C39.8043 103.33 37.6864 100.202 36.2414 96.759C34.7965 93.3165 34.0528 89.6268 34.0528 85.9007C34.0528 78.3754 37.0821 71.1583 42.4743 65.8371C47.8665 60.5159 55.1799 57.5265 62.8057 57.5265C70.4314 57.5265 77.7448 60.5159 83.137 65.8371ZM111.47 60.7072C111.476 60.6841 111.49 60.6639 111.51 60.6503C111.51 60.6503 113.945 59.7565 115.481 59.7555C117.087 59.7543 119.557 60.6449 119.557 60.6449C119.577 60.6585 119.591 60.6787 119.597 60.7019C119.603 60.725 119.6 60.7495 119.589 60.7708L115.623 68.6125C115.615 68.6289 115.602 68.6426 115.586 68.6522C115.57 68.6618 115.552 68.6668 115.533 68.6668C115.515 68.6668 115.497 68.6618 115.481 68.6522C115.465 68.6426 115.452 68.6289 115.444 68.6125L111.477 60.7762C111.467 60.7548 111.464 60.7304 111.47 60.7072Z" fill="#E5B56C"/>
<path d="M86.7669 85.9061C86.7669 92.1773 84.2424 98.1916 79.7488 102.626C75.2552 107.06 69.1606 109.552 62.8057 109.552C56.4508 109.552 50.3561 107.06 45.8625 102.626C41.3689 98.1916 38.8445 92.1773 38.8445 85.9061C38.8445 79.6348 41.3689 73.6205 45.8625 69.1861C50.3561 64.7516 56.4508 62.2604 62.8057 62.2604C69.1606 62.2604 75.2552 64.7516 79.7488 69.1861C84.2424 73.6205 86.7669 79.6348 86.7669 85.9061ZM81.9725 85.8953C81.9725 83.4122 81.4768 80.9533 80.5139 78.6592C79.5509 76.365 78.1395 74.2805 76.3602 72.5246C74.5809 70.7688 72.4686 69.3759 70.1438 68.4257C67.8191 67.4754 65.3274 66.9863 62.8111 66.9863C57.7292 66.9863 52.8554 68.9785 49.262 72.5246C45.6685 76.0708 43.6497 80.8803 43.6497 85.8953C43.6497 90.9103 45.6685 95.7199 49.262 99.266C51.0413 101.022 53.1536 102.415 55.4784 103.365C57.8031 104.315 60.2948 104.804 62.8111 104.804C65.3274 104.804 67.8191 104.315 70.1438 103.365C72.4686 102.415 74.5809 101.022 76.3602 99.266C78.1395 97.5102 79.5509 95.4256 80.5139 93.1315C81.4768 90.8373 81.9725 88.3785 81.9725 85.8953Z" fill="#E5B56C"/>
<path d="M53.4069 93.954C53.1082 93.2709 53.1571 92.1081 53.7625 91.508C55.9434 89.3523 58.128 87.1911 60.3162 85.0246C60.3813 84.9585 60.4139 84.88 60.4139 84.7889C60.4266 80.7952 60.4247 76.8088 60.4085 72.8294C60.403 71.8006 60.5161 71.0541 60.7478 70.5897C61.8636 68.3473 65.2192 69.3359 65.2164 71.8783C65.211 76.681 65.2038 81.482 65.1947 86.2811C65.1929 86.7205 64.9278 87.2001 64.3993 87.7198C62.1695 89.9077 59.9415 92.0974 57.7153 94.2889C57.1959 94.8015 56.7488 95.1248 56.3742 95.2588C55.1824 95.6794 53.8901 95.0685 53.4069 93.954Z" fill="#E5B56C"/>
<path d="M122.813 83.5495L117.834 83.5581C116.582 83.5602 115.569 84.5636 115.571 85.799L115.572 86.0294C115.574 87.2649 116.59 88.2647 117.842 88.2626L122.821 88.254C124.073 88.2518 125.087 87.2485 125.084 86.013L125.084 85.7826C125.082 84.5472 124.065 83.5474 122.813 83.5495Z" fill="#E5B56C"/>
<path d="M19.4141 10.9347C19.4177 13.8014 19.4213 16.6662 19.4249 19.5293L19.9249 19.5286C19.9213 16.6656 19.9177 13.8007 19.9141 10.9341L19.4141 10.9347ZM86.5169 27.4914C86.5187 29.565 86.5205 31.6467 86.5223 33.7364L87.0223 33.7359C87.0205 31.6462 87.0187 29.5646 87.0169 27.491L86.5169 27.4914ZM53.4777 33.7364C53.4795 31.5359 53.4813 29.3346 53.4831 27.1324L52.9831 27.132C52.9813 29.3342 52.9795 31.5355 52.9777 33.736L53.4777 33.7364ZM139.5 23.8905H140V23.8431L139.991 23.7966L139.5 23.8905ZM139.5 95.8857L139.991 95.9798L140 95.9332V95.8857H139.5ZM136.544 99.7141L136.359 99.2493L136.358 99.2497L136.544 99.7141ZM133.582 100.092L133.582 99.5918H133.582L133.582 100.092ZM93.2282 100.092L93.2278 100.592H93.2283L93.2282 100.092ZM93.0327 100.212L92.5843 99.9913L92.5839 99.9921L93.0327 100.212ZM61.1822 118.961L61.2061 118.461H61.206L61.1822 118.961ZM32.6139 100.223L32.1621 100.437L32.1644 100.442L32.6139 100.223ZM32.4103 100.097L32.4093 100.597H32.4103V100.097ZM12.2336 100.095L12.234 100.595H12.2344L12.2336 100.095ZM8.07441 99.7301L7.94641 100.213L7.94723 100.214L8.07441 99.7301ZM0.5 91.0204H0V91.0576L0.0055038 91.0944L0.5 91.0204ZM0.5 14.2538L0.00292638 14.1998L0 14.2267V14.2538H0.5ZM10.002 5.51463L9.996 5.01467L9.9956 5.01467L10.002 5.51463ZM14.0498 5.49856L14.052 4.99856L14.0518 4.99856L14.0498 5.49856ZM16.7646 5.89506L16.5721 6.35652L16.5723 6.3566L16.7646 5.89506ZM19.6641 10.9344L19.1641 10.935V10.9351L19.6641 10.9344ZM19.6749 19.5289H20.1749V19.5283L19.6749 19.5289ZM29.2611 19.5182L28.7611 19.5155V19.5182H29.2611ZM32.375 10.546L32.5386 11.0184L32.5387 11.0184L32.375 10.546ZM35.9884 10.2138L35.9879 10.7138H35.988L35.9884 10.2138ZM89.8184 10.2164L89.82 10.7164H89.8202L89.8184 10.2164ZM93.8146 10.7871L93.5808 11.229L93.581 11.2291L93.8146 10.7871ZM96.3476 15.6845L95.8476 15.6875L95.8476 15.6886L96.3476 15.6845ZM96.3557 19.5718L95.8557 19.5697V19.5718H96.3557ZM105.958 19.5691H106.458V19.5679L105.958 19.5691ZM105.961 8.32232L106.461 8.32377V8.32348L105.961 8.32232ZM111.217 0.31383L111.351 0.795468L111.352 0.795331L111.217 0.31383ZM114.453 0.0298459L114.448 0.529822L114.449 0.52983L114.453 0.0298459ZM119.589 0.244173L119.466 0.728848L119.467 0.728973L119.589 0.244173ZM125.114 8.55272L125.614 8.55346V8.55345L125.114 8.55272ZM125.122 19.545H125.622V19.5435L125.122 19.545ZM125.266 19.6897L125.268 19.1897H125.266V19.6897ZM133.761 19.6924L133.759 19.1924H133.759L133.761 19.6924ZM136.5 20.0487L136.317 20.514L136.318 20.5143L136.5 20.0487ZM110.848 14.9531V14.4531V14.9531ZM120.214 14.9531V14.4531V14.9531ZM120.339 14.8298H119.839H120.339ZM120.339 8.04101H119.839H120.339ZM117.781 4.98639V5.48639V4.98639ZM111.375 6.10986L111.767 6.42029L111.375 6.10986ZM110.723 8.04101H111.223H110.723ZM110.723 14.8298H111.223H110.723ZM5.50074 82.3241L5.26113 81.8853L5.26088 81.8854L5.50074 82.3241ZM14.7068 81.1801L14.7111 81.6801L14.7144 81.6801L14.7068 81.1801ZM14.7231 10.2272L14.7139 10.7271L14.7147 10.7271L14.7231 10.2272ZM10.6454 10.2298L10.655 10.7297L10.6552 10.7297L10.6454 10.2298ZM8.06355 10.6799L8.27073 11.135L8.27182 11.1345L8.06355 10.6799ZM5.29984 15.7327L5.79984 15.7327V15.7327H5.29984ZM5.29984 82.2062H5.79984V82.2062L5.29984 82.2062ZM67.6218 26.5535L68.1218 26.5566L68.1218 26.5551L67.6218 26.5535ZM69.1584 24.5763L68.9842 24.1077L68.9829 24.1082L69.1584 24.5763ZM72.4053 27.0759L72.9053 27.078L72.9053 27.0774L72.4053 27.0759ZM72.3891 33.6933H72.8891V33.6926L72.3891 33.6933ZM81.9752 33.7094L82.4751 33.7179L82.4751 33.7151L81.9752 33.7094ZM81.9752 27.0733L82.4751 27.0675L82.4751 27.0674L81.9752 27.0733ZM86.3949 25.5247L85.9702 25.7885L85.971 25.7899L86.3949 25.5247ZM86.7669 27.4912H86.2669V27.4916L86.7669 27.4912ZM86.7723 33.7362H87.2723V33.7357L86.7723 33.7362ZM86.9053 33.8674V34.3674H86.9056L86.9053 33.8674ZM91.4283 33.8648V33.3648H91.428L91.4283 33.8648ZM91.5749 33.7228H92.0749H91.5749ZM91.5749 15.0817H91.0749H91.5749ZM34.1722 14.9531V14.4531V14.9531ZM34.0473 15.0763L34.5473 15.0764V15.0763H34.0473ZM34.0446 33.7254L33.5446 33.7254V33.7254H34.0446ZM38.706 33.8674V34.3674H38.7061L38.706 33.8674ZM38.8445 33.7308L39.3444 33.7406L39.3445 33.7324L38.8445 33.7308ZM38.8417 26.7357L38.3417 26.7374V26.7376L38.8417 26.7357ZM43.3185 25.6507L43.7618 25.4194L43.7615 25.4188L43.3185 25.6507ZM43.6443 27.6118L44.1443 27.6135L44.1443 27.6128L43.6443 27.6118ZM43.6443 33.7147L43.1442 33.7165L43.1444 33.7236L43.6443 33.7147ZM53.2277 33.7362L52.7277 33.7357V33.7362H53.2277ZM53.2331 27.1322L53.7331 27.1326V27.1322H53.2331ZM54.3272 24.8014L54.5936 25.2245L54.5941 25.2242L54.3272 24.8014ZM57.8131 25.8945L57.3456 26.0719L57.3459 26.0726L57.8131 25.8945ZM58.0194 27.877L57.5194 27.8741L57.5194 27.8747L58.0194 27.877ZM58.0167 33.6585H58.5167L58.5167 33.6566L58.0167 33.6585ZM67.6109 33.7388H68.1109V33.7373L67.6109 33.7388ZM120.165 55.3618L120.441 54.9451L120.44 54.9444L120.165 55.3618ZM120.17 19.6951L120.17 20.1951H120.17V19.6951ZM110.872 19.6924L110.872 19.1924H110.872V19.6924ZM110.899 55.3591L110.628 54.9386L110.624 54.9414L110.899 55.3591ZM19.2786 83.0528L19.7309 83.2659L19.7313 83.2651L19.2786 83.0528ZM10.9929 85.9141L10.9908 85.4141H10.9905L10.9929 85.9141ZM8.62824 86.1364L8.77723 86.6137L8.77772 86.6136L8.62824 86.1364ZM5.39215 89.7371L4.90028 89.6473L4.90025 89.6475L5.39215 89.7371ZM8.70426 94.9774L8.53282 95.4471L8.53341 95.4473L8.70426 94.9774ZM12.5729 95.3739L12.5724 95.8739H12.5725L12.5729 95.3739ZM30.5017 95.3606V94.8606H30.5005L30.5017 95.3606ZM30.6158 95.2105L30.1345 95.3463L30.1355 95.3496L30.6158 95.2105ZM34.0582 68.8001L33.6315 68.5395L34.0582 68.8001ZM70.3584 53.6552L70.4761 53.1692L70.476 53.1692L70.3584 53.6552ZM93.0952 71.6399L92.651 71.8696L92.6523 71.872L93.0952 71.6399ZM111.578 71.5542L111.132 71.7807L111.133 71.7831L111.578 71.5542ZM106.292 61.1539L106.738 60.9274L106.737 60.9258L106.292 61.1539ZM105.953 59.7501L106.453 59.7501V59.7501H105.953ZM105.953 24.5308H106.453H105.953ZM105.839 24.4156V24.9156V24.4156ZM96.353 24.5897H95.853V24.5916L96.353 24.5897ZM96.3476 33.2539L95.8476 33.2514V33.2515L96.3476 33.2539ZM93.4562 38.1995L93.2708 37.7352L93.2705 37.7353L93.4562 38.1995ZM90.0627 38.6014L90.0626 39.1014H90.0627V38.6014ZM29.6167 35.6249L29.1513 35.8076L29.1515 35.8081L29.6167 35.6249ZM29.2611 32.6779L29.761 32.6813L29.761 32.6809L29.2611 32.6779ZM29.2529 24.5871H28.7529L28.7529 24.5911L29.2529 24.5871ZM19.6749 24.5817L20.1749 24.5819V24.5817H19.6749ZM109.569 83.8994L109.325 84.3361L109.326 84.3363L109.569 83.8994ZM108.144 88.2824L108.145 87.7824H108.145L108.144 88.2824ZM96.4154 88.2851V88.7851H96.417L96.4154 88.2851ZM96.2607 88.4244L96.7587 88.4695L96.7592 88.4632L96.2607 88.4244ZM94.9847 95.2641L94.5039 95.1266L94.5022 95.1328L94.9847 95.2641ZM95.0634 95.3686V94.8686L95.0576 94.8686L95.0634 95.3686ZM125.117 59.7555H124.617V59.7555L125.117 59.7555ZM124.796 61.087L124.351 60.8594L124.35 60.8613L124.796 61.087ZM117.635 75.2245L117.189 74.9983L117.189 74.9985L117.635 75.2245ZM114.988 76.4435L114.987 76.9435H114.988V76.4435ZM95.0987 76.4462V76.9462H95.0993L95.0987 76.4462ZM94.9874 76.5962L95.4671 76.455L95.4653 76.4492L94.9874 76.5962ZM96.2227 83.385L96.7214 83.3489L96.7213 83.3482L96.2227 83.385ZM96.3856 83.5351L96.386 83.0351H96.3856V83.5351ZM107.628 83.5377V83.0377H107.628L107.628 83.5377ZM91.5586 85.9007H92.0586H91.5586ZM62.8057 57.5265V57.0265V57.5265ZM34.0528 85.9007H34.5528H34.0528ZM62.8057 114.275V114.775V114.275ZM111.51 60.6503L111.338 60.1809L111.279 60.2024L111.228 60.2375L111.51 60.6503ZM111.477 60.7762L111.923 60.5504L111.923 60.5497L111.477 60.7762ZM115.444 68.6125L114.998 68.8383L114.999 68.841L115.444 68.6125ZM115.623 68.6125L116.068 68.841L116.069 68.8382L115.623 68.6125ZM119.589 60.7708L119.144 60.5443L119.143 60.5452L119.589 60.7708ZM119.557 60.6449L119.839 60.2322L119.786 60.1962L119.726 60.1746L119.557 60.6449ZM115.481 59.7555L115.48 59.2555L115.481 59.7555ZM115.767 0.0155749L115.777 0.515477L115.767 0.0155749ZM90.2295 10.2136L90.2338 10.7136L90.2295 10.2136ZM12.9873 81.1652L12.9786 81.6651H12.9786L12.9873 81.1652ZM12.3242 85.9339L12.312 86.4337H12.312L12.3242 85.9339ZM86.7669 85.9061H86.2669H86.7669ZM62.8057 109.552V109.052V109.552ZM38.8445 85.9061H38.3445H38.8445ZM62.8057 62.2604V62.7604V62.2604ZM43.6497 85.8953H43.1497H43.6497ZM53.4069 93.954L53.8656 93.7551L53.865 93.7538L53.4069 93.954ZM53.7625 91.508L53.411 91.1524L53.4105 91.1529L53.7625 91.508ZM60.3162 85.0246L60.668 85.38L60.6722 85.3757L60.3162 85.0246ZM60.4139 84.7889L59.9139 84.7873V84.7889H60.4139ZM60.4085 72.8294L60.9085 72.8274L60.9084 72.8268L60.4085 72.8294ZM60.7478 70.5897L61.1952 70.8129L61.1955 70.8124L60.7478 70.5897ZM65.2164 71.8783L65.7164 71.8789V71.8789L65.2164 71.8783ZM65.1947 86.2811L65.6947 86.2832V86.2821L65.1947 86.2811ZM64.3993 87.7198L64.7495 88.0767L64.7499 88.0763L64.3993 87.7198ZM57.7153 94.2889L57.3646 93.9326L57.3641 93.933L57.7153 94.2889ZM56.3742 95.2588L56.5406 95.7303L56.5425 95.7296L56.3742 95.2588ZM117.834 83.5581L117.833 83.0581L117.834 83.5581ZM122.813 83.5495L122.814 84.0495L122.813 83.5495ZM125.084 85.7826L125.584 85.7818V85.7818L125.084 85.7826ZM125.084 86.013L124.584 86.0139V86.0139L125.084 86.013ZM122.821 88.254L122.822 88.754L122.821 88.254ZM117.842 88.2626L117.842 87.7626L117.842 88.2626ZM115.572 86.0294L115.072 86.0303V86.0303L115.572 86.0294ZM115.571 85.799L116.071 85.7982V85.7981L115.571 85.799ZM139 23.8905V95.8857H140V23.8905H139ZM139.009 95.7915C138.669 97.5661 137.781 98.6856 136.359 99.2493L136.728 100.179C138.513 99.4709 139.596 98.0381 139.991 95.9798L139.009 95.7915ZM136.358 99.2497C135.815 99.4665 134.907 99.5936 133.582 99.5918L133.581 100.592C134.935 100.594 136.001 100.469 136.729 100.178L136.358 99.2497ZM133.582 99.5918C120.125 99.59 106.674 99.59 93.2281 99.5918L93.2283 100.592C106.674 100.59 120.125 100.59 133.582 100.592L133.582 99.5918ZM93.2286 99.5918C93.0953 99.5917 92.9643 99.6286 92.8504 99.6988L93.3754 100.55C93.3307 100.578 93.2796 100.592 93.2278 100.592L93.2286 99.5918ZM92.8504 99.6988C92.7365 99.7691 92.644 99.8702 92.5843 99.9913L93.4812 100.433C93.4572 100.482 93.4202 100.522 93.3754 100.55L92.8504 99.6988ZM92.5839 99.9921C86.7885 111.8 74.5753 119.1 61.2061 118.461L61.1583 119.46C74.9267 120.118 87.5109 112.598 93.4816 100.433L92.5839 99.9921ZM61.206 118.461C49.0783 117.883 38.3122 110.783 33.0634 100.004L32.1644 100.442C37.5741 111.551 48.6679 118.865 61.1584 119.46L61.206 118.461ZM33.0656 100.009C33.0114 99.8944 32.9247 99.7829 32.7961 99.7034C32.6685 99.6245 32.5322 99.5972 32.4103 99.5972V100.597C32.3842 100.597 32.3299 100.591 32.2701 100.554C32.2094 100.516 32.1766 100.468 32.1621 100.437L33.0656 100.009ZM32.4112 99.5972C25.6869 99.5847 18.9607 99.5838 12.2328 99.5945L12.2344 100.595C18.9612 100.584 25.6862 100.585 32.4093 100.597L32.4112 99.5972ZM12.2331 99.5945C10.402 99.5963 9.06789 99.4745 8.2016 99.2466L7.94723 100.214C8.94151 100.475 10.3802 100.596 12.234 100.595L12.2331 99.5945ZM8.20241 99.2468C4.23199 98.1954 1.61344 95.0834 0.994496 90.9464L0.0055038 91.0944C0.67883 95.5949 3.56055 99.052 7.94641 100.213L8.20241 99.2468ZM1 91.0204V14.2538H0V91.0204H1ZM0.997074 14.3078C1.51366 9.55411 5.21186 6.07557 10.0083 6.01459L9.9956 5.01467C4.67654 5.08229 0.572277 8.96053 0.00292638 14.1998L0.997074 14.3078ZM10.0079 6.0146C11.3554 5.99856 12.7021 5.99321 14.0478 5.99856L14.0518 4.99856C12.7007 4.9932 11.3488 4.99856 9.996 5.01467L10.0079 6.0146ZM14.0475 5.99855C15.2137 6.00381 16.0412 6.13505 16.5721 6.35652L16.9571 5.43361C16.2464 5.13713 15.2641 5.00403 14.052 4.99857L14.0475 5.99855ZM16.5723 6.3566C17.5732 6.77363 18.2044 7.37504 18.5955 8.11817C18.9934 8.87407 19.1628 9.81499 19.1641 10.935L20.1641 10.9338C20.1627 9.72574 19.9819 8.6051 19.4804 7.65241C18.9723 6.68695 18.1551 5.93275 16.9569 5.43353L16.5723 6.3566ZM19.1749 19.5289C19.1749 19.6631 19.2095 19.8551 19.3658 20.0094C19.5209 20.1625 19.7117 20.1951 19.8433 20.1951V19.1951C19.8626 19.1951 19.9692 19.1999 20.0682 19.2976C20.1684 19.3965 20.1749 19.5055 20.1749 19.5289H19.1749ZM19.8433 20.1951H29.0819V19.1951H19.8433V20.1951ZM29.0819 20.1951C29.217 20.1951 29.4105 20.1616 29.5675 20.0067C29.7256 19.8507 29.7611 19.6559 29.7611 19.5182H28.7611C28.7611 19.4984 28.7666 19.3921 28.8651 19.295C28.9623 19.199 29.0662 19.1951 29.0819 19.1951V20.1951ZM29.761 19.5209C29.7683 18.1841 29.7719 16.8517 29.7719 15.5237H28.7719C28.7719 16.8498 28.7683 18.1804 28.7611 19.5155L29.761 19.5209ZM29.7719 15.5237C29.7719 14.4332 29.9749 13.4773 30.4129 12.7154C30.8451 11.9638 31.523 11.3702 32.5386 11.0184L32.2113 10.0735C30.9764 10.5013 30.1027 11.2487 29.546 12.217C28.9951 13.1751 28.7719 14.3182 28.7719 15.5237H29.7719ZM32.5387 11.0184C33.0931 10.8263 34.2177 10.712 35.9879 10.7138L35.9889 9.71376C34.2299 9.71198 32.9455 9.81911 32.2113 10.0735L32.5387 11.0184ZM35.988 10.7138C64.3107 10.7405 82.2552 10.7414 89.82 10.7164L89.8167 9.71644C82.2544 9.74144 64.3123 9.74055 35.9889 9.71376L35.988 10.7138ZM93.581 11.2291C94.4877 11.7084 95.0348 12.2944 95.3672 12.9974C95.7062 13.7144 95.841 14.5932 95.8476 15.6875L96.8475 15.6814C96.8406 14.5226 96.6998 13.4764 96.2712 12.57C95.836 11.6494 95.1233 10.9133 94.0483 10.345L93.581 11.2291ZM95.8476 15.6886C95.8584 16.9832 95.8611 18.2769 95.8557 19.5697L96.8557 19.5739C96.8611 18.2769 96.8584 16.979 96.8475 15.6803L95.8476 15.6886ZM95.8557 19.5718C95.8557 19.6889 95.8849 19.8687 96.0312 20.0163C96.1782 20.1646 96.359 20.1951 96.4779 20.1951V19.1951C96.5153 19.1951 96.635 19.205 96.7413 19.3122C96.8469 19.4187 96.8557 19.5369 96.8557 19.5718H95.8557ZM96.4779 20.1951H105.833V19.1951H96.4779V20.1951ZM105.833 20.1951C106 20.1951 106.16 20.1281 106.277 20.0103L105.567 19.3061C105.637 19.2355 105.732 19.1951 105.833 19.1951V20.1951ZM106.277 20.0103C106.393 19.8926 106.458 19.7338 106.458 19.5691H105.458C105.458 19.4713 105.497 19.3766 105.567 19.3061L106.277 20.0103ZM106.458 19.5679C106.449 15.8056 106.45 12.0575 106.461 8.32377L105.461 8.32086C105.45 12.0564 105.449 15.8062 105.458 19.5703L106.458 19.5679ZM106.461 8.32348C106.469 4.94323 108.175 1.68093 111.351 0.795467L111.083 -0.167808C107.32 0.881036 105.469 4.67683 105.461 8.32116L106.461 8.32348ZM111.352 0.795331C112.01 0.611183 113.031 0.515663 114.448 0.529821L114.458 -0.470129C113.015 -0.484549 111.879 -0.390745 111.082 -0.167671L111.352 0.795331ZM119.467 0.728973C122.948 1.60748 124.619 4.94606 124.614 8.55199L125.614 8.55345C125.62 4.69544 123.81 0.793733 119.712 -0.240628L119.467 0.728973ZM124.614 8.55198C124.609 12.2177 124.611 15.8826 124.622 19.5465L125.622 19.5435C125.611 15.8811 125.609 12.2177 125.614 8.55346L124.614 8.55198ZM124.622 19.545C124.622 19.6696 124.653 19.8551 124.804 20.0061C124.954 20.1577 125.14 20.1897 125.266 20.1897V19.1897C125.296 19.1897 125.41 19.1976 125.513 19.3009C125.615 19.4038 125.622 19.5169 125.622 19.545H124.622ZM125.264 20.1897C128.107 20.2004 130.94 20.2013 133.762 20.1924L133.759 19.1924C130.939 19.2013 128.108 19.2004 125.268 19.1897L125.264 20.1897ZM133.762 20.1924C134.956 20.1889 135.793 20.3079 136.317 20.514L136.683 19.5833C135.98 19.3072 134.991 19.1887 133.759 19.1924L133.762 20.1924ZM136.318 20.5143C137.77 21.0829 138.669 22.2081 139.009 23.9844L139.991 23.7966C139.596 21.7293 138.496 20.2933 136.682 19.5831L136.318 20.5143ZM110.848 15.4531H120.214V14.4531H110.848V15.4531ZM120.214 15.4531C120.295 15.4531 120.375 15.4373 120.451 15.4065L120.072 14.4809C120.117 14.4624 120.165 14.4531 120.214 14.4531V15.4531ZM120.451 15.4065C120.526 15.3757 120.595 15.3304 120.653 15.2729L119.951 14.5611C119.986 14.5264 120.027 14.4993 120.072 14.4809L120.451 15.4065ZM120.653 15.2729C120.712 15.2153 120.758 15.1466 120.79 15.0705L119.868 14.6835C119.887 14.6373 119.916 14.5958 119.951 14.5611L120.653 15.2729ZM120.79 15.0705C120.822 14.9945 120.839 14.9128 120.839 14.8298H119.839C119.839 14.7793 119.849 14.7295 119.868 14.6835L120.79 15.0705ZM120.839 14.8298V8.04101H119.839V14.8298H120.839ZM120.839 8.04101C120.839 7.28021 120.703 6.6344 120.143 5.9212L119.357 6.53874C119.745 7.03325 119.839 7.44326 119.839 8.04101H120.839ZM120.143 5.9212C119.877 5.58154 119.516 5.23412 119.122 4.96754C118.738 4.70761 118.264 4.48639 117.781 4.48639V5.48639C117.976 5.48639 118.25 5.58503 118.562 5.79593C118.864 6.00017 119.149 6.27453 119.357 6.53874L120.143 5.9212ZM117.781 4.48639H113.28V5.48639H117.781V4.48639ZM113.28 4.48639C112.386 4.48639 111.564 5.06556 110.983 5.79943L111.767 6.42029C112.253 5.80641 112.817 5.48639 113.28 5.48639V4.48639ZM110.983 5.79943C110.405 6.5293 110.223 7.27006 110.223 8.04101H111.223C111.223 7.45342 111.353 6.94313 111.767 6.42029L110.983 5.79943ZM110.223 8.04101V14.8298H111.223V8.04101H110.223ZM110.223 14.8298C110.223 14.9126 110.239 14.9944 110.271 15.0705L111.193 14.6835C111.213 14.7297 111.223 14.7794 111.223 14.8298H110.223ZM110.271 15.0705C110.303 15.1466 110.35 15.2153 110.408 15.2729L111.11 14.5611C111.146 14.5958 111.174 14.6373 111.193 14.6835L110.271 15.0705ZM110.408 15.2729C110.466 15.3305 110.535 15.3757 110.611 15.4065L110.989 14.4809C111.034 14.4992 111.075 14.5264 111.11 14.5611L110.408 15.2729ZM110.611 15.4065C110.686 15.4373 110.766 15.4531 110.848 15.4531V14.4531C110.896 14.4531 110.944 14.4625 110.989 14.4809L110.611 15.4065ZM14.7144 81.6801C14.8492 81.678 15.0395 81.6417 15.193 81.4878C15.3478 81.3327 15.3832 81.1407 15.3832 81.0033H14.3832C14.3832 80.982 14.3893 80.8775 14.4852 80.7814C14.58 80.6865 14.682 80.6805 14.6992 80.6802L14.7144 81.6801ZM15.3832 81.0033V10.3879H14.3832V81.0033H15.3832ZM15.3832 10.3879C15.3832 10.2558 15.3491 10.068 15.1974 9.91575C15.0468 9.76466 14.8609 9.72939 14.7314 9.72722L14.7147 10.7271C14.692 10.7267 14.5862 10.7191 14.489 10.6216C14.3907 10.5229 14.3832 10.4147 14.3832 10.3879H15.3832ZM14.7323 9.72724C13.3685 9.70212 12.0029 9.70301 10.6355 9.72993L10.6552 10.7297C12.0099 10.7031 13.3628 10.7022 14.7139 10.7271L14.7323 9.72724ZM10.6357 9.72992C9.49371 9.75191 8.5539 9.90527 7.85529 10.2254L8.27182 11.1345C8.78946 10.8973 9.57086 10.7506 10.655 10.7297L10.6357 9.72992ZM7.85638 10.2249C6.68976 10.756 5.90919 11.5169 5.43071 12.4794C4.95922 13.4279 4.79984 14.5344 4.79984 15.7327H5.79984C5.79984 14.6108 5.95132 13.6786 6.32618 12.9245C6.69406 12.1845 7.29534 11.579 8.27073 11.135L7.85638 10.2249ZM4.79984 15.7326C4.79803 37.8887 4.79803 60.0466 4.79984 82.2063L5.79984 82.2062C5.79803 60.0466 5.79803 37.8888 5.79984 15.7327L4.79984 15.7326ZM4.79984 82.2062C4.79984 82.2973 4.80928 82.612 5.09703 82.7808C5.38265 82.9484 5.66115 82.8063 5.74061 82.7628L5.26088 81.8854C5.25435 81.889 5.27972 81.8733 5.32957 81.8649C5.38371 81.8558 5.4905 81.8522 5.60311 81.9183C5.71615 81.9846 5.76558 82.0803 5.78427 82.1336C5.80136 82.1824 5.79984 82.2131 5.79984 82.2062H4.79984ZM68.1218 26.5551C68.1227 26.2702 68.2537 25.9551 68.4928 25.665C68.7312 25.3759 69.0443 25.1531 69.3339 25.0445L68.9829 24.1082C68.5151 24.2836 68.0612 24.6167 67.7213 25.0288C67.3822 25.44 67.1236 25.9715 67.1218 26.5519L68.1218 26.5551ZM69.3326 25.045C70.0489 24.7789 70.6756 24.923 71.1288 25.2903C71.5923 25.666 71.9077 26.3049 71.9053 27.0744L72.9053 27.0774C72.9085 26.0359 72.4799 25.0982 71.7584 24.5134C71.0266 23.9202 70.0271 23.7201 68.9842 24.1077L69.3326 25.045ZM71.9054 27.0739C71.8927 30.162 71.8873 32.369 71.8891 33.694L72.8891 33.6926C72.8873 32.3706 72.8927 30.166 72.9053 27.078L71.9054 27.0739ZM71.8891 33.6933C71.8891 33.8321 71.9256 34.0272 72.0854 34.1824C72.2425 34.3352 72.435 34.3674 72.5682 34.3674V33.3674C72.5821 33.3674 72.6849 33.3707 72.7823 33.4653C72.8824 33.5626 72.8891 33.6706 72.8891 33.6933H71.8891ZM72.5682 34.3674H81.8123V33.3674H72.5682V34.3674ZM81.8123 34.3674C81.9418 34.3674 82.1283 34.3352 82.2813 34.1867C82.4355 34.0371 82.4728 33.85 82.4751 33.7179L81.4753 33.7008C81.4757 33.6741 81.485 33.566 81.5849 33.4691C81.6836 33.3733 81.7895 33.3674 81.8123 33.3674V34.3674ZM82.4751 33.7151C82.5005 31.4983 82.5005 29.2825 82.4751 27.0675L81.4752 27.079C81.5005 29.2863 81.5005 31.4945 81.4752 33.7036L82.4751 33.7151ZM82.4751 27.0674C82.4628 26.022 83.0893 25.2763 83.8388 25.0037C84.5739 24.7363 85.4299 24.9185 85.9702 25.7885L86.8197 25.261C86.0107 23.9583 84.6419 23.6475 83.497 24.0639C82.3664 24.4752 81.4577 25.5901 81.4752 27.0792L82.4751 27.0674ZM85.971 25.7899C86.1408 26.0613 86.2669 26.5961 86.2669 27.4912H87.2669C87.2669 26.5574 87.145 25.7812 86.8189 25.2596L85.971 25.7899ZM86.2723 33.7362C86.2723 33.8587 86.3039 34.042 86.4544 34.1905C86.6036 34.3378 86.7856 34.3674 86.9053 34.3674V33.3674C86.9364 33.3674 87.0519 33.3752 87.1568 33.4787C87.2629 33.5834 87.2723 33.7012 87.2723 33.7362H86.2723ZM86.9056 34.3674L91.4286 34.3648L91.428 33.3648L86.905 33.3674L86.9056 34.3674ZM91.4283 34.3648C91.5947 34.3648 91.7574 34.3009 91.8798 34.1823L91.1841 33.464C91.2515 33.3987 91.3396 33.3648 91.4283 33.3648V34.3648ZM91.8798 34.1823C92.0027 34.0633 92.0749 33.8983 92.0749 33.7228H91.0749C91.0749 33.6225 91.1162 33.5298 91.1841 33.464L91.8798 34.1823ZM92.0749 33.7228V15.0817H91.0749V33.7228H92.0749ZM92.0749 15.0817C92.0749 14.9982 92.0582 14.9157 92.026 14.8389L91.1039 15.226C91.0848 15.1804 91.0749 15.1313 91.0749 15.0817H92.0749ZM92.026 14.8389C91.9938 14.7621 91.9467 14.6929 91.8879 14.6348L91.1855 15.3466C91.1509 15.3125 91.123 15.2716 91.1039 15.226L92.026 14.8389ZM91.8879 14.6348C91.829 14.5767 91.7595 14.5311 91.6836 14.5L91.3052 15.4257C91.2609 15.4076 91.2202 15.3808 91.1855 15.3466L91.8879 14.6348ZM91.6836 14.5C91.6076 14.469 91.5264 14.4531 91.4445 14.4531V15.4531C91.3969 15.4531 91.3496 15.4438 91.3052 15.4257L91.6836 14.5ZM91.4445 14.4531H34.1722V15.4531H91.4445V14.4531ZM34.1722 14.4531C34.0086 14.4531 33.8504 14.5171 33.7327 14.6333L34.4351 15.345C34.3643 15.415 34.2696 15.4531 34.1722 15.4531V14.4531ZM33.7327 14.6333C33.6148 14.7496 33.5473 14.9089 33.5473 15.0763H34.5473C34.5473 15.1784 34.5062 15.2749 34.4351 15.345L33.7327 14.6333ZM33.5473 15.0762L33.5446 33.7254L34.5446 33.7255L34.5473 15.0764L33.5473 15.0762ZM33.5446 33.7254C33.5446 33.8515 33.5771 34.0376 33.7294 34.1878C33.8804 34.3369 34.0651 34.3674 34.1885 34.3674V33.3674C34.216 33.3674 34.3287 33.3743 34.4318 33.476C34.5361 33.579 34.5446 33.694 34.5446 33.7254H33.5446ZM34.1885 34.3674H38.706V33.3674H34.1885V34.3674ZM38.7061 34.3674C38.8742 34.3674 39.035 34.301 39.1542 34.1834L38.4517 33.4717C38.5191 33.4052 38.6103 33.3675 38.7059 33.3674L38.7061 34.3674ZM39.1542 34.1834C39.2731 34.066 39.3411 33.907 39.3444 33.7406L38.3446 33.721C38.3464 33.6276 38.3845 33.538 38.4517 33.4717L39.1542 34.1834ZM39.3445 33.7324C39.3517 31.4022 39.3508 29.0693 39.3417 26.7338L38.3417 26.7376C38.3508 29.0709 38.3517 31.4014 38.3445 33.7292L39.3445 33.7324ZM39.3417 26.734C39.3386 25.8322 39.973 25.1965 40.7801 24.9979C41.5855 24.7998 42.4482 25.0658 42.8755 25.8825L43.7615 25.4188C43.0785 24.1136 41.6987 23.7421 40.5412 24.0269C39.3855 24.3112 38.3367 25.2789 38.3417 26.7374L39.3417 26.734ZM42.8752 25.882C43.0367 26.1914 43.1461 26.7448 43.1443 27.6107L44.1443 27.6128C44.1461 26.7033 44.0383 25.9494 43.7618 25.4194L42.8752 25.882ZM43.1443 27.61C43.1371 29.6383 43.1371 31.6738 43.1443 33.7165L44.1443 33.7129C44.1371 31.6727 44.1371 29.6395 44.1443 27.6135L43.1443 27.61ZM43.1444 33.7236C43.1467 33.854 43.1837 34.0396 43.3369 34.1882C43.489 34.3357 43.674 34.3674 43.8018 34.3674V33.3674C43.8263 33.3674 43.9335 33.3737 44.0331 33.4703C44.1339 33.568 44.1437 33.6773 44.1442 33.7058L43.1444 33.7236ZM43.8018 34.3674H53.0947V33.3674H43.8018V34.3674ZM53.0947 34.3674C53.1768 34.3674 53.2584 34.3515 53.3348 34.3203L52.9564 33.3946C53.0005 33.3766 53.0474 33.3674 53.0947 33.3674V34.3674ZM53.3348 34.3203C53.4111 34.2891 53.4809 34.2432 53.5399 34.1849L52.8375 33.4731C52.8719 33.4392 52.9123 33.4126 52.9564 33.3946L53.3348 34.3203ZM53.5399 34.1849C53.599 34.1265 53.6463 34.057 53.6786 33.9799L52.7565 33.5929C52.7755 33.5477 52.8031 33.507 52.8375 33.4731L53.5399 34.1849ZM53.6786 33.9799C53.7109 33.9029 53.7277 33.82 53.7277 33.7362H52.7277C52.7277 33.6868 52.7376 33.6381 52.7565 33.5929L53.6786 33.9799ZM53.7331 27.1322C53.7331 26.6455 53.79 26.2743 53.9184 25.9773C54.0418 25.692 54.2443 25.4445 54.5936 25.2245L54.0608 24.3783C53.555 24.6968 53.2104 25.095 53.0005 25.5805C52.7957 26.0544 52.7331 26.5794 52.7331 27.1322H53.7331ZM54.5941 25.2242C55.5876 24.5972 56.9416 25.0073 57.3456 26.0719L58.2805 25.7171C57.6312 24.0061 55.5373 23.4464 54.0603 24.3786L54.5941 25.2242ZM57.3459 26.0726C57.4523 26.3517 57.5248 26.9278 57.5194 27.8741L58.5194 27.8799C58.5248 26.9329 58.4598 26.1874 58.2803 25.7164L57.3459 26.0726ZM57.5194 27.8747C57.5103 29.8318 57.5094 31.7603 57.5167 33.6604L58.5167 33.6566C58.5094 31.7594 58.5103 29.8337 58.5194 27.8793L57.5194 27.8747ZM57.5167 33.6585C57.5167 33.8069 57.5548 34.0097 57.7184 34.1711C57.8808 34.3313 58.0824 34.3674 58.2284 34.3674V33.3674C58.2333 33.3674 58.3291 33.3687 58.4208 33.4593C58.5138 33.5511 58.5167 33.6494 58.5167 33.6585H57.5167ZM58.2284 34.3674H67.4833V33.3674H58.2284V34.3674ZM67.4833 34.3674C67.651 34.3674 67.8111 34.3003 67.9285 34.1819L67.2186 33.4776C67.2882 33.4075 67.3833 33.3674 67.4833 33.3674V34.3674ZM67.9285 34.1819C68.0458 34.0637 68.1109 33.9043 68.1109 33.7388H67.1109C67.1109 33.6416 67.1492 33.5475 67.2186 33.4776L67.9285 34.1819ZM68.1109 33.7373C68.1037 31.3205 68.1073 28.9269 68.1218 26.5566L67.1218 26.5505C67.1073 28.9239 67.1037 31.3205 67.1109 33.7403L68.1109 33.7373ZM115.623 54.5945C117.047 54.5945 118.906 55.1305 119.89 55.7791L120.44 54.9444C119.273 54.1748 117.218 53.5945 115.623 53.5945V54.5945ZM119.889 55.7784C119.939 55.8121 120.014 55.8553 120.107 55.8803C120.202 55.906 120.358 55.9226 120.519 55.8393C120.682 55.755 120.759 55.616 120.792 55.5188C120.825 55.4254 120.83 55.3372 120.83 55.276H119.83C119.83 55.2753 119.83 55.2677 119.832 55.2549C119.834 55.2426 119.838 55.2198 119.848 55.1907C119.868 55.1332 119.924 55.0212 120.059 54.9512C120.193 54.8822 120.314 54.9003 120.368 54.9148C120.396 54.9224 120.415 54.9313 120.425 54.9363C120.431 54.939 120.435 54.9412 120.437 54.9426C120.44 54.9441 120.441 54.945 120.441 54.9451L119.889 55.7784ZM120.83 55.276V19.8531H119.83V55.276H120.83ZM120.83 19.8531C120.83 19.7217 120.797 19.5316 120.642 19.3787C120.488 19.227 120.299 19.1951 120.17 19.1951V20.1951C120.148 20.1951 120.04 20.1895 119.939 20.0905C119.838 19.9902 119.83 19.8792 119.83 19.8531H120.83ZM120.17 19.1951L110.872 19.1924L110.872 20.1924L120.17 20.1951L120.17 19.1951ZM110.872 19.1924C110.751 19.1924 110.569 19.2223 110.419 19.37C110.268 19.5189 110.236 19.7029 110.236 19.8263H111.236C111.236 19.8604 111.227 19.9775 111.121 20.0817C111.017 20.1848 110.902 20.1924 110.872 20.1924V19.1924ZM110.236 19.8263V55.2733H111.236V19.8263H110.236ZM110.236 55.2733C110.236 55.3341 110.242 55.4216 110.274 55.5143C110.307 55.6107 110.383 55.7489 110.544 55.8337C110.704 55.9178 110.859 55.9027 110.955 55.8774C111.048 55.8529 111.123 55.8101 111.174 55.7768L110.624 54.9414C110.625 54.9412 110.63 54.9373 110.641 54.932C110.652 54.9268 110.672 54.9179 110.701 54.9104C110.756 54.8959 110.877 54.8789 111.01 54.9488C111.144 55.0192 111.199 55.1307 111.219 55.1878C111.229 55.2168 111.233 55.2395 111.235 55.2519C111.236 55.2647 111.236 55.2724 111.236 55.2733H110.236ZM111.17 55.7795C112.111 55.1736 113.246 54.5945 115.623 54.5945V53.5945C113.027 53.5945 111.707 54.2443 110.628 54.9387L111.17 55.7795ZM10.9905 85.4141C9.86915 85.4195 9.01353 85.4918 8.47877 85.6593L8.77772 86.6136C9.15515 86.4953 9.87594 86.4194 10.9953 86.4141L10.9905 85.4141ZM8.47926 85.6592C6.66111 86.2267 5.24179 87.7774 4.90028 89.6473L5.88401 89.827C6.15607 88.3373 7.29955 87.075 8.77723 86.6137L8.47926 85.6592ZM4.90025 89.6475C4.43948 92.1757 6.30484 94.6339 8.53282 95.4471L8.8757 94.5078C6.9934 93.8207 5.53037 91.7673 5.88405 89.8268L4.90025 89.6475ZM8.53341 95.4473C9.34681 95.7431 10.7167 95.8722 12.5724 95.8739L12.5734 94.8739C10.7152 94.8722 9.506 94.7369 8.8751 94.5075L8.53341 95.4473ZM12.5725 95.8739C18.5402 95.8793 24.5171 95.8748 30.5029 95.8606L30.5005 94.8606C24.5158 94.8748 18.54 94.8793 12.5734 94.8739L12.5725 95.8739ZM30.5017 95.8606C30.6069 95.8606 30.8448 95.8391 31.0071 95.6256C31.1706 95.4104 31.1257 95.174 31.096 95.0715L30.1355 95.3496C30.1348 95.3471 30.0853 95.1857 30.2109 95.0205C30.3351 94.857 30.5015 94.8606 30.5017 94.8606V95.8606ZM31.097 95.0747C28.5781 86.149 29.6745 76.9382 34.4849 69.0606L33.6315 68.5395C28.6685 76.6668 27.5441 86.1668 30.1346 95.3463L31.097 95.0747ZM34.4849 69.0606C41.7564 57.153 56.3893 50.7885 70.2407 54.1411L70.476 53.1692C56.1908 49.7116 41.1233 56.2711 33.6315 68.5395L34.4849 69.0606ZM70.2406 54.1411C80.3377 56.5872 87.7989 62.4869 92.651 71.8696L93.5393 71.4102C88.5565 61.7749 80.8598 55.6848 70.4761 53.1692L70.2406 54.1411ZM92.6523 71.872C92.7019 71.9667 92.7793 72.0604 92.892 72.1276C93.0042 72.1945 93.1219 72.2176 93.2255 72.2176V71.2176C93.2693 71.2176 93.3355 71.2277 93.4042 71.2687C93.4735 71.3101 93.5156 71.3649 93.538 71.4078L92.6523 71.872ZM93.2255 72.2176H111.477V71.2176H93.2255V72.2176ZM111.477 72.2176C111.559 72.2176 111.854 72.2093 112.021 71.9386C112.188 71.6663 112.06 71.3981 112.022 71.3252L111.133 71.7831C111.133 71.7821 111.116 71.7499 111.108 71.6942C111.099 71.6337 111.101 71.5257 111.169 71.4149C111.237 71.3044 111.332 71.2549 111.389 71.2352C111.441 71.217 111.477 71.2176 111.477 71.2176V72.2176ZM112.024 71.3276L106.738 60.9274L105.846 61.3805L111.132 71.7807L112.024 71.3276ZM106.737 60.9258C106.55 60.5611 106.453 60.1584 106.453 59.7501L105.453 59.7501C105.453 60.3175 105.588 60.8765 105.847 61.3821L106.737 60.9258ZM106.453 59.7501V24.5308H105.453V59.7501H106.453ZM106.453 24.5308C106.453 24.3692 106.389 24.2133 106.275 24.0976L105.564 24.8011C105.492 24.7286 105.453 24.6313 105.453 24.5308H106.453ZM106.275 24.0976C106.16 23.9817 106.003 23.9156 105.839 23.9156V24.9156C105.735 24.9156 105.636 24.8738 105.564 24.8011L106.275 24.0976ZM105.839 23.9156H96.5295V24.9156H105.839V23.9156ZM96.5295 23.9156C96.3952 23.9156 96.2024 23.9488 96.0459 24.1032C95.8882 24.2589 95.853 24.4529 95.853 24.5897H96.853C96.853 24.6105 96.8472 24.7175 96.7483 24.815C96.6507 24.9114 96.5461 24.9156 96.5295 24.9156V23.9156ZM95.853 24.5916C95.8638 27.4854 95.862 30.372 95.8476 33.2514L96.8475 33.2564C96.862 30.3741 96.8639 27.4845 96.853 24.5879L95.853 24.5916ZM95.8476 33.2515C95.8424 34.3372 95.6649 35.2694 95.2643 36.0183C94.87 36.7553 94.2429 37.3468 93.2708 37.7352L93.6417 38.6638C94.8224 38.1922 95.6356 37.4442 96.146 36.49C96.6501 35.5477 96.8419 34.4372 96.8475 33.2563L95.8476 33.2515ZM93.2705 37.7353C92.697 37.9647 91.6501 38.1014 90.0627 38.1014V39.1014C91.6607 39.1014 92.8762 38.9701 93.642 38.6637L93.2705 37.7353ZM90.0628 38.1014C71.5982 38.0978 53.1327 38.096 34.6663 38.096V39.096C53.1326 39.096 71.5981 39.0978 90.0626 39.1014L90.0628 38.1014ZM34.6663 38.096C33.5517 38.096 32.5948 37.9077 31.8286 37.491C31.0733 37.0802 30.4713 36.4307 30.0819 35.4418L29.1515 35.8081C29.6227 37.0052 30.3795 37.8413 31.3508 38.3695C32.3112 38.8918 33.4489 39.096 34.6663 39.096V38.096ZM30.0821 35.4422C29.8724 34.9081 29.7521 34.0056 29.761 32.6813L28.7611 32.6745C28.7519 34.0257 28.8687 35.0879 29.1513 35.8076L30.0821 35.4422ZM29.761 32.6809C29.7773 29.9852 29.7746 27.2859 29.7529 24.583L28.7529 24.5911C28.7746 27.2893 28.7773 29.9839 28.7611 32.6749L29.761 32.6809ZM29.7529 24.5871C29.7529 24.4532 29.7192 24.2608 29.5641 24.1054C29.4088 23.9497 29.2163 23.9156 29.0819 23.9156V24.9156C29.0615 24.9156 28.9545 24.9101 28.8562 24.8116C28.7581 24.7133 28.7529 24.6067 28.7529 24.5871H29.7529ZM29.0819 23.9156H19.8433V24.9156H29.0819V23.9156ZM19.8433 23.9156C19.7117 23.9156 19.5209 23.9482 19.3658 24.1012C19.2095 24.2555 19.1749 24.4476 19.1749 24.5817H20.1749C20.1749 24.6051 20.1684 24.7141 20.0682 24.813C19.9692 24.9107 19.8626 24.9156 19.8433 24.9156V23.9156ZM19.1749 24.5816C19.1695 43.4352 19.1668 62.2818 19.1668 81.1212H20.1668C20.1668 62.2819 20.1695 43.4354 20.1749 24.5819L19.1749 24.5816ZM19.1668 81.1212C19.1668 81.7986 19.0478 82.3674 18.8259 82.8405L19.7313 83.2651C20.027 82.6345 20.1668 81.9155 20.1668 81.1212H19.1668ZM109.326 84.3363C110.203 84.8245 110.409 85.6606 110.161 86.3966C109.908 87.1471 109.181 87.7857 108.145 87.7824L108.142 88.7824C109.633 88.7871 110.727 87.8505 111.109 86.7156C111.496 85.5661 111.15 84.2066 109.812 83.4625L109.326 84.3363ZM108.145 87.7824C104.24 87.7717 100.33 87.7726 96.4138 87.7851L96.417 88.7851C100.331 88.7726 104.239 88.7717 108.142 88.7824L108.145 87.7824ZM96.4154 87.7851C96.2913 87.7851 96.1179 87.8154 95.9702 87.9483C95.8204 88.0833 95.7723 88.256 95.7622 88.3855L96.7592 88.4632C96.7563 88.4999 96.7377 88.603 96.6394 88.6915C96.5433 88.778 96.4436 88.7851 96.4154 88.7851V87.7851ZM95.7627 88.3793C95.5556 90.6681 95.136 92.9171 94.504 95.1266L95.4654 95.4016C96.1148 93.1317 96.5459 90.8208 96.7587 88.4695L95.7627 88.3793ZM94.5022 95.1328C94.479 95.2181 94.4754 95.3078 94.4919 95.395L95.4745 95.209C95.4862 95.2711 95.4836 95.3348 95.4672 95.3954L94.5022 95.1328ZM94.4919 95.395C94.5085 95.4825 94.5449 95.5655 94.5991 95.6374L95.3977 95.0356C95.4366 95.0872 95.4627 95.1466 95.4745 95.209L94.4919 95.395ZM94.5991 95.6374C94.6533 95.7093 94.7239 95.7683 94.8059 95.8087L95.2484 94.912C95.3079 94.9413 95.3588 94.9839 95.3977 95.0356L94.5991 95.6374ZM94.8059 95.8087C94.8878 95.8492 94.9781 95.8696 95.0693 95.8686L95.0576 94.8686C95.1236 94.8679 95.189 94.8827 95.2484 94.912L94.8059 95.8087ZM95.0634 95.8686H134.535V94.8686H95.0634V95.8686ZM134.535 95.8686C134.668 95.8686 134.86 95.8347 135.015 95.6795C135.169 95.5244 135.203 95.3328 135.203 95.1998H134.203C134.203 95.1793 134.208 95.0721 134.307 94.9733C134.405 94.8743 134.513 94.8686 134.535 94.8686V95.8686ZM135.203 95.1998V24.5817H134.203V95.1998H135.203ZM135.203 24.5817C135.203 24.4455 135.167 24.2524 135.008 24.0985C134.853 23.9472 134.662 23.9156 134.532 23.9156V24.9156C134.515 24.9156 134.411 24.9117 134.312 24.8158C134.21 24.7172 134.203 24.6072 134.203 24.5817H135.203ZM134.532 23.9156H125.271V24.9156H134.532V23.9156ZM125.271 23.9156C125.142 23.9156 124.954 23.9484 124.801 24.1016C124.649 24.2544 124.617 24.4426 124.617 24.571H125.617C125.617 24.5958 125.61 24.7063 125.51 24.8073C125.409 24.9087 125.298 24.9156 125.271 24.9156V23.9156ZM124.617 24.571V59.7555H125.617V24.571H124.617ZM124.617 59.7555C124.617 60.1397 124.526 60.5178 124.351 60.8594L125.242 61.3145C125.488 60.8318 125.617 60.2978 125.617 59.7555L124.617 59.7555ZM124.35 60.8613C122.001 65.5048 119.614 70.2172 117.189 74.9983L118.081 75.4507C120.506 70.6693 122.893 65.9566 125.243 61.3127L124.35 60.8613ZM117.189 74.9985C116.839 75.6878 116.063 75.9435 114.988 75.9435V76.9435C116.138 76.9435 117.458 76.6795 118.081 75.4505L117.189 74.9985ZM114.988 75.9435C108.367 75.9381 101.737 75.939 95.0982 75.9462L95.0993 76.9462C101.738 76.939 108.367 76.9381 114.987 76.9435L114.988 75.9435ZM95.0987 75.9462C94.9952 75.9462 94.753 75.967 94.5906 76.1858C94.4278 76.4053 94.4789 76.6437 94.5095 76.7432L95.4653 76.4492C95.4683 76.4588 95.479 76.496 95.4766 76.5517C95.4741 76.612 95.4554 76.6984 95.3937 76.7816C95.3321 76.8647 95.2551 76.9074 95.1987 76.9272C95.1467 76.9455 95.1085 76.9462 95.0987 76.9462V75.9462ZM94.5078 76.7374C95.1511 78.9235 95.5565 81.1514 95.724 83.4218L96.7213 83.3482C96.5486 81.007 96.1305 78.7091 95.4671 76.455L94.5078 76.7374ZM95.724 83.4211C95.7334 83.5518 95.7801 83.7272 95.9301 83.8653C96.0793 84.0027 96.2567 84.0351 96.3856 84.0351V83.0351C96.4131 83.0351 96.5127 83.0424 96.6076 83.1298C96.7033 83.2179 96.7191 83.3183 96.7214 83.3489L95.724 83.4211ZM96.3851 84.0351C100.143 84.0386 103.89 84.0395 107.628 84.0377L107.628 83.0377C103.89 83.0395 100.143 83.0386 96.386 83.0351L96.3851 84.0351ZM107.628 84.0377C108.459 84.0377 109.004 84.1568 109.325 84.3361L109.812 83.4627C109.269 83.1598 108.52 83.0377 107.628 83.0377V84.0377ZM92.0586 85.9007C92.0586 78.2406 88.9749 70.8956 83.4882 65.4812L82.7858 66.193C88.0836 71.4209 91.0586 78.5101 91.0586 85.9007H92.0586ZM83.4882 65.4812C78.0018 60.067 70.5619 57.0265 62.8057 57.0265V58.0265C70.3009 58.0265 77.4879 60.9648 82.7858 66.193L83.4882 65.4812ZM62.8057 57.0265C55.0494 57.0265 47.6096 60.067 42.1231 65.4812L42.8255 66.193C48.1234 60.9648 55.3104 58.0265 62.8057 58.0265V57.0265ZM42.1231 65.4812C36.6364 70.8956 33.5528 78.2406 33.5528 85.9007H34.5528C34.5528 78.5101 37.5278 71.4209 42.8255 66.193L42.1231 65.4812ZM33.5528 85.9007C33.5528 89.6934 34.3098 93.4489 35.7804 96.9526L36.7025 96.5655C35.2832 93.1842 34.5528 89.5603 34.5528 85.9007H33.5528ZM35.7804 96.9526C37.251 100.456 39.4064 103.639 42.1231 106.32L42.8255 105.608C40.2023 103.02 38.1218 99.9469 36.7025 96.5655L35.7804 96.9526ZM42.1231 106.32C47.6096 111.734 55.0494 114.775 62.8057 114.775V113.775C55.3104 113.775 48.1234 110.837 42.8255 105.608L42.1231 106.32ZM62.8057 114.775C66.6463 114.775 70.4495 114.028 73.9981 112.578L73.6197 111.652C70.1914 113.054 66.5168 113.775 62.8057 113.775V114.775ZM73.9981 112.578C77.5468 111.127 80.7716 109.001 83.4882 106.32L82.7858 105.608C80.1626 108.197 77.048 110.251 73.6197 111.652L73.9981 112.578ZM83.4882 106.32C86.2049 103.639 88.3603 100.456 89.8309 96.9526L88.9089 96.5655C87.4895 99.9469 85.4091 103.02 82.7858 105.608L83.4882 106.32ZM89.8309 96.9526C91.3016 93.4489 92.0586 89.6934 92.0586 85.9007H91.0586C91.0586 89.5603 90.3282 93.1842 88.9089 96.5655L89.8309 96.9526ZM111.228 60.2375C111.109 60.3188 111.022 60.4408 110.986 60.582L111.954 60.8325C111.929 60.9274 111.871 61.0089 111.792 61.063L111.228 60.2375ZM110.986 60.582C110.949 60.7234 110.966 60.873 111.032 61.0027L111.923 60.5497C111.967 60.6367 111.979 60.7373 111.954 60.8325L110.986 60.582ZM111.031 61.002L114.998 68.8383L115.89 68.3867L111.923 60.5504L111.031 61.002ZM114.999 68.841C115.05 68.9401 115.127 69.0225 115.222 69.0798L115.74 68.2246C115.803 68.2626 115.854 68.3176 115.888 68.384L114.999 68.841ZM115.222 69.0798C115.316 69.137 115.424 69.1668 115.533 69.1668V68.1668C115.606 68.1668 115.677 68.1865 115.74 68.2246L115.222 69.0798ZM115.533 69.1668C115.643 69.1668 115.751 69.137 115.845 69.0798L115.327 68.2246C115.39 68.1866 115.461 68.1668 115.533 68.1668V69.1668ZM115.845 69.0798C115.94 69.0225 116.017 68.9401 116.068 68.841L115.178 68.384C115.212 68.3176 115.264 68.2626 115.327 68.2246L115.845 69.0798ZM116.069 68.8382L120.036 60.9965L119.143 60.5452L115.177 68.3868L116.069 68.8382ZM120.035 60.9974C120.101 60.8676 120.118 60.718 120.081 60.5766L119.113 60.8271C119.088 60.732 119.099 60.6314 119.144 60.5443L120.035 60.9974ZM120.081 60.5766C120.044 60.4353 119.958 60.3134 119.839 60.2322L119.275 61.0577C119.196 61.0036 119.137 60.9221 119.113 60.8271L120.081 60.5766ZM119.557 60.6449C119.726 60.1746 119.726 60.1745 119.726 60.1745C119.726 60.1745 119.726 60.1745 119.726 60.1745C119.726 60.1744 119.726 60.1743 119.726 60.1743C119.725 60.1741 119.725 60.1739 119.724 60.1736C119.722 60.1731 119.72 60.1724 119.718 60.1714C119.712 60.1696 119.705 60.1669 119.695 60.1634C119.675 60.1565 119.647 60.1465 119.61 60.1339C119.537 60.1087 119.432 60.073 119.3 60.0303C119.038 59.9449 118.671 59.8312 118.252 59.7173C117.428 59.4931 116.354 59.2549 115.48 59.2555L115.481 60.2555C116.213 60.255 117.178 60.4615 117.99 60.6822C118.389 60.7909 118.74 60.8997 118.991 60.9813C119.116 61.022 119.216 61.0559 119.285 61.0794C119.319 61.0911 119.345 61.1003 119.362 61.1064C119.371 61.1095 119.377 61.1118 119.382 61.1133C119.384 61.114 119.385 61.1146 119.386 61.1149C119.387 61.1151 119.387 61.1152 119.387 61.1152C119.387 61.1153 119.387 61.1153 119.387 61.1153C119.387 61.1153 119.387 61.1153 119.387 61.1153C119.387 61.1153 119.387 61.1153 119.557 60.6449ZM115.48 59.2555C114.639 59.256 113.591 59.4967 112.785 59.7217C112.375 59.8361 112.015 59.9504 111.757 60.0361C111.628 60.079 111.524 60.1148 111.452 60.1401C111.416 60.1528 111.388 60.1628 111.368 60.1697C111.359 60.1732 111.351 60.1759 111.346 60.1778C111.344 60.1787 111.342 60.1795 111.34 60.18C111.339 60.1802 111.339 60.1804 111.338 60.1806C111.338 60.1807 111.338 60.1807 111.338 60.1808C111.338 60.1808 111.338 60.1808 111.338 60.1809C111.338 60.1809 111.338 60.1809 111.51 60.6503C111.682 61.1196 111.682 61.1197 111.682 61.1197C111.682 61.1197 111.682 61.1197 111.682 61.1197C111.682 61.1197 111.682 61.1197 111.682 61.1196C111.683 61.1196 111.683 61.1194 111.683 61.1193C111.684 61.1189 111.686 61.1184 111.688 61.1176C111.692 61.1161 111.698 61.1138 111.707 61.1107C111.724 61.1046 111.75 61.0954 111.783 61.0836C111.85 61.06 111.949 61.026 112.072 60.9851C112.319 60.9032 112.663 60.794 113.054 60.6848C113.849 60.4627 114.786 60.2559 115.481 60.2555L115.48 59.2555ZM119.712 -0.240503C118.52 -0.54275 117.063 -0.510213 115.757 -0.484327L115.777 0.515477C117.124 0.488787 118.432 0.466541 119.466 0.728848L119.712 -0.240503ZM115.757 -0.484327C115.307 -0.475408 114.872 -0.466818 114.457 -0.470138L114.449 0.52983C114.88 0.533281 115.33 0.52434 115.777 0.515477L115.757 -0.484327ZM94.0484 10.3451C92.7956 9.68233 91.5074 9.70266 90.2252 9.71362L90.2338 10.7136C91.5555 10.7023 92.5861 10.7028 93.5808 11.229L94.0484 10.3451ZM90.2252 9.71362C90.0896 9.71478 89.9538 9.71594 89.8165 9.71644L89.8202 10.7164C89.9603 10.7159 90.0985 10.7147 90.2338 10.7136L90.2252 9.71362ZM20.1749 19.5283L20.1641 10.9338L19.1641 10.9351L19.1749 19.5296L20.1749 19.5283ZM12.9959 80.6652C10.455 80.6214 7.68368 80.5625 5.26113 81.8853L5.74036 82.763C7.89151 81.5884 10.3848 81.6204 12.9786 81.6651L12.9959 80.6652ZM14.7024 80.6802C14.1433 80.685 13.5751 80.6752 12.9959 80.6652L12.9786 81.6651C13.5555 81.675 14.1368 81.6851 14.7111 81.6801L14.7024 80.6802ZM52.7331 27.1318L52.7277 33.7357L53.7277 33.7366L53.7331 27.1326L52.7331 27.1318ZM87.2723 33.7357L87.2669 27.4908L86.2669 27.4916L86.2723 33.7366L87.2723 33.7357ZM12.312 86.4337C13.6815 86.467 15.1471 86.507 16.4493 86.1297C17.7918 85.7407 18.9556 84.9121 19.7309 83.2659L18.8262 82.8398C18.1813 84.2091 17.2563 84.8547 16.1709 85.1692C15.0452 85.4955 13.7437 85.4682 12.3363 85.434L12.312 86.4337ZM10.995 86.4141C11.4273 86.4123 11.8657 86.4229 12.312 86.4337L12.3363 85.434C11.8925 85.4232 11.4398 85.4122 10.9908 85.4141L10.995 86.4141ZM86.2669 85.9061C86.2669 92.0425 83.7967 97.929 79.3976 102.27L80.1 102.982C84.6881 98.4543 87.2669 92.312 87.2669 85.9061H86.2669ZM79.3976 102.27C74.9983 106.612 69.0301 109.052 62.8057 109.052V110.052C69.2911 110.052 75.5121 107.509 80.1 102.982L79.3976 102.27ZM62.8057 109.052C56.5812 109.052 50.6131 106.612 46.2137 102.27L45.5113 102.982C50.0992 107.509 56.3203 110.052 62.8057 110.052V109.052ZM46.2137 102.27C41.8146 97.929 39.3445 92.0425 39.3445 85.9061H38.3445C38.3445 92.312 40.9232 98.4543 45.5113 102.982L46.2137 102.27ZM39.3445 85.9061C39.3445 79.7696 41.8146 73.8831 46.2137 69.5419L45.5113 68.8302C40.9232 73.3578 38.3445 79.5001 38.3445 85.9061H39.3445ZM46.2137 69.5419C50.6131 65.2005 56.5812 62.7604 62.8057 62.7604V61.7604C56.3203 61.7604 50.0992 64.3027 45.5113 68.8302L46.2137 69.5419ZM62.8057 62.7604C69.0301 62.7604 74.9983 65.2005 79.3976 69.5419L80.1 68.8302C75.5121 64.3027 69.2911 61.7604 62.8057 61.7604V62.7604ZM79.3976 69.5419C83.7967 73.8831 86.2669 79.7696 86.2669 85.9061H87.2669C87.2669 79.5001 84.6881 73.3578 80.1 68.8302L79.3976 69.5419ZM82.4725 85.8953C82.4725 83.3456 81.9635 80.8209 80.9749 78.4656L80.0529 78.8527C80.9901 81.0857 81.4725 83.4788 81.4725 85.8953H82.4725ZM80.9749 78.4656C79.9863 76.1104 78.5375 73.9707 76.7114 72.1687L76.009 72.8805C77.7416 74.5903 79.1156 76.6197 80.0529 78.8527L80.9749 78.4656ZM76.7114 72.1687C74.8854 70.3668 72.718 68.9377 70.333 67.9629L69.9546 68.8885C72.2192 69.8142 74.2764 71.1708 76.009 72.8805L76.7114 72.1687ZM70.333 67.9629C67.9481 66.988 65.3922 66.4863 62.8111 66.4863V67.4863C65.2627 67.4863 67.6901 67.9628 69.9546 68.8885L70.333 67.9629ZM62.8111 66.4863C57.5987 66.4863 52.5985 68.5296 48.9108 72.1687L49.6132 72.8805C53.1124 69.4274 57.8597 67.4863 62.8111 67.4863V66.4863ZM48.9108 72.1687C45.2228 75.8081 43.1497 80.7456 43.1497 85.8953H44.1497C44.1497 81.0151 46.1142 76.3334 49.6132 72.8805L48.9108 72.1687ZM43.1497 85.8953C43.1497 91.0451 45.2228 95.9825 48.9108 99.6219L49.6132 98.9101C46.1142 95.4572 44.1497 90.7755 44.1497 85.8953H43.1497ZM48.9108 99.6219C50.7368 101.424 52.9042 102.853 55.2892 103.828L55.6675 102.902C53.403 101.976 51.3457 100.62 49.6132 98.9101L48.9108 99.6219ZM55.2892 103.828C57.6741 104.803 60.23 105.304 62.8111 105.304V104.304C60.3595 104.304 57.9321 103.828 55.6675 102.902L55.2892 103.828ZM62.8111 105.304C65.3922 105.304 67.9481 104.803 70.333 103.828L69.9546 102.902C67.69 103.828 65.2627 104.304 62.8111 104.304V105.304ZM70.333 103.828C72.718 102.853 74.8854 101.424 76.7114 99.6219L76.009 98.9101C74.2764 100.62 72.2192 101.976 69.9546 102.902L70.333 103.828ZM76.7114 99.6219C78.5375 97.8199 79.9863 95.6803 80.9749 93.325L80.0529 92.938C79.1156 95.171 77.7416 97.2004 76.009 98.9101L76.7114 99.6219ZM80.9749 93.325C81.9635 90.9697 82.4725 88.4451 82.4725 85.8953H81.4725C81.4725 88.3119 80.9901 90.705 80.0529 92.938L80.9749 93.325ZM53.865 93.7538C53.7563 93.5052 53.7001 93.1341 53.7426 92.7556C53.7852 92.3756 53.9187 92.0573 54.1145 91.8631L53.4105 91.1529C53.001 91.5589 52.8073 92.122 52.7488 92.6442C52.6901 93.1678 52.7588 93.7197 52.9487 94.1543L53.865 93.7538ZM54.114 91.8636C56.295 89.7078 58.4797 87.5465 60.6679 85.3799L59.9644 84.6693C57.7763 86.8357 55.5919 88.9967 53.411 91.1524L54.114 91.8636ZM60.6722 85.3757C60.8276 85.218 60.9139 85.0141 60.9139 84.7889H59.9139C59.9139 84.7734 59.917 84.7503 59.9276 84.7246C59.9381 84.6992 59.9516 84.6822 59.9601 84.6736L60.6722 85.3757ZM60.9139 84.7905C60.9266 80.7956 60.9247 76.8079 60.9085 72.8274L59.9085 72.8315C59.9247 76.8096 59.9266 80.7949 59.9139 84.7873L60.9139 84.7905ZM60.9084 72.8268C60.9031 71.8139 61.0186 71.167 61.1952 70.8129L60.3004 70.3665C60.0137 70.9411 59.9029 71.7874 59.9085 72.8321L60.9084 72.8268ZM61.1955 70.8124C61.6295 69.9402 62.4795 69.6921 63.2618 69.9198C64.0513 70.1496 64.7175 70.8542 64.7164 71.8778L65.7164 71.8789C65.7181 70.36 64.7079 69.2991 63.5413 68.9596C62.3676 68.618 60.982 68.9968 60.3002 70.367L61.1955 70.8124ZM64.7164 71.8778C64.711 76.6804 64.7038 81.4812 64.6947 86.2802L65.6947 86.2821C65.7038 81.4828 65.711 76.6817 65.7164 71.8789L64.7164 71.8778ZM64.6947 86.2791C64.6937 86.5183 64.5436 86.8766 64.0487 87.3633L64.7499 88.0763C65.3119 87.5235 65.6921 86.9227 65.6947 86.2832L64.6947 86.2791ZM64.0491 87.3629C61.8191 89.551 59.5909 91.7409 57.3646 93.9326L58.0661 94.6452C60.2921 92.4539 62.5199 90.2644 64.7495 88.0767L64.0491 87.3629ZM57.3641 93.933C56.8603 94.4302 56.4763 94.6913 56.2059 94.7879L56.5425 95.7296C57.0214 95.5583 57.5315 95.1728 58.0665 94.6448L57.3641 93.933ZM56.2078 94.7873C55.2734 95.117 54.2486 94.6383 53.8656 93.7551L52.9481 94.1529C53.5317 95.4988 55.0914 96.2417 56.5406 95.7302L56.2078 94.7873ZM117.835 84.0581L122.814 84.0495L122.812 83.0495L117.833 83.0581L117.835 84.0581ZM122.814 84.0495C123.796 84.0478 124.582 84.8304 124.584 85.7835L125.584 85.7818C125.581 84.2639 124.334 83.0469 122.812 83.0495L122.814 84.0495ZM124.584 85.7835L124.584 86.0139L125.584 86.0122L125.584 85.7818L124.584 85.7835ZM124.584 86.0139C124.586 86.967 123.803 87.7523 122.821 87.754L122.822 88.754C124.344 88.7514 125.587 87.53 125.584 86.0122L124.584 86.0139ZM122.821 87.754L117.842 87.7626L117.843 88.7626L122.822 88.754L122.821 87.754ZM117.842 87.7626C116.859 87.7643 116.073 86.9817 116.072 86.0286L115.072 86.0303C115.074 87.5482 116.321 88.7652 117.843 88.7626L117.842 87.7626ZM116.072 86.0286L116.071 85.7982L115.071 85.7999L115.072 86.0303L116.072 86.0286ZM116.071 85.7981C116.069 84.845 116.853 84.0598 117.835 84.0581L117.833 83.0581C116.311 83.0607 115.068 84.2821 115.071 85.7999L116.071 85.7981Z" fill="#F9F1E8" mask="url(#path-1-inside-1_133_473)"/>
</g>
</svg>
