<svg width="107" height="119" viewBox="0 0 107 119" fill="none" xmlns="http://www.w3.org/2000/svg">
<g id="Vector">
<path d="M12.5694 0H44.5876C47.0111 0.419909 48.5638 1.72922 49.2456 3.92793C49.5834 5.01566 49.4909 6.36836 49.4816 7.57695C49.4816 7.66062 49.5225 7.70246 49.6043 7.70246C60.8455 7.70401 72.0867 7.70401 83.3279 7.70246C84.363 7.70246 85.1304 7.81015 85.6302 8.02553C87.3102 8.75533 87.8077 10.1545 87.81 11.9906C87.8131 19.518 87.8131 27.0392 87.81 34.5542C87.81 34.6301 87.8478 34.6673 87.9234 34.6657C89.1336 34.6518 90.4803 34.5588 91.584 34.9284C93.3966 35.5373 94.5891 36.7134 95.1614 38.4565C95.3836 39.1321 95.4939 40.1966 95.4923 41.65C95.4892 49.5384 95.4892 57.4322 95.4923 65.3315C95.4923 65.4105 95.5316 65.45 95.6103 65.45C96.9015 65.4314 98.3292 65.4012 99.5325 65.6731C104.038 66.6958 107.004 70.5238 106.99 75.1304C106.978 79.4023 106.981 83.6765 107 87.9531C107.007 90.0604 106.901 91.5773 106.68 92.5039C105.926 95.6648 103.995 97.8698 100.886 99.1186C99.2548 99.7741 97.4962 99.8066 95.7237 99.7276C95.5679 99.7214 95.49 99.7965 95.49 99.953C95.4854 103.893 95.4877 107.865 95.4969 111.869C95.5 113.38 95.3897 114.481 95.166 115.172C94.4796 117.303 92.8899 118.579 90.397 119H24.0975C21.9664 118.377 22.3065 115.514 24.4562 115.514C45.9914 115.514 67.5258 115.514 89.0595 115.514C89.9789 115.514 90.6253 115.411 90.9986 115.205C91.6774 114.831 92.0168 114.179 92.0168 113.248C92.0168 108.793 92.016 104.326 92.0144 99.8484C92.0144 99.8347 92.0118 99.8211 92.0067 99.8084C92.0016 99.7957 91.9941 99.7842 91.9846 99.7745C91.9752 99.7648 91.9639 99.7571 91.9516 99.7518C91.9392 99.7466 91.926 99.7438 91.9126 99.7438C85.2669 99.7392 78.6128 99.7408 71.9501 99.7485C70.6204 99.75 69.6277 99.6416 68.9721 99.4231C66.3318 98.5492 65.1795 96.3226 65.1818 93.6219C65.1864 89.2136 65.1826 84.8045 65.1702 80.3947C65.1641 78.8236 65.2728 77.6878 65.4965 76.9874C66.058 75.221 67.2374 74.045 69.0345 73.4593C69.6747 73.2516 70.5903 73.1478 71.7812 73.1478C78.4886 73.1556 85.1914 73.1563 91.8895 73.1501C91.9728 73.1501 92.0144 73.1083 92.0144 73.0246C92.0175 67.462 92.0183 61.8939 92.0168 56.3205C92.0144 54.0799 91.186 53.5314 88.9646 53.5314C62.7923 53.5299 36.6199 53.5291 10.4475 53.5291C7.63605 53.5291 5.71778 53.0666 3.59357 51.4443C3.5149 51.3823 3.47556 51.4016 3.47556 51.5024C3.4771 70.1054 3.47556 88.7085 3.47093 107.312C3.47093 109.323 3.5928 110.712 3.83654 111.479C4.43354 113.357 5.72395 114.607 7.70779 115.23C8.33255 115.427 9.17329 115.523 10.23 115.518C12.402 115.511 14.5741 115.509 16.7461 115.514C17.9632 115.516 19.0716 115.76 19.1781 117.115C19.2537 118.08 18.7654 118.709 17.7133 119H8.81617C3.80414 118.526 0.0439652 114.635 0.0393373 109.529C0.019283 88.5721 0.00617055 67.6154 0 46.6587C0 44.3918 0.0887015 42.8493 0.266105 42.0312C1.06211 38.3589 3.76943 35.7325 7.55969 34.84C7.63991 34.8214 7.68002 34.7711 7.68002 34.689C7.67848 29.5307 7.67925 24.3756 7.68233 19.2236C7.68233 18.5294 7.77952 18.0228 7.97389 17.7036C8.60097 16.6763 10.4197 16.7623 10.9404 17.857C11.0808 18.1529 11.151 18.655 11.151 19.3631C11.1479 29.5586 11.1479 39.755 11.151 49.9521C11.151 50.0296 11.1903 50.0683 11.269 50.0683L15.1957 50.066C15.2929 50.066 15.3415 50.0172 15.3415 49.9196V3.66297C15.3415 3.58704 15.3045 3.54521 15.2305 3.53746C13.0877 3.31434 11.1671 3.26553 11.1556 5.88725C11.1479 7.64436 11.1463 9.40069 11.151 11.1562C11.1525 11.7327 11.1008 12.151 10.9959 12.4113C10.429 13.8105 8.43437 13.8198 7.83043 12.4322C7.72707 12.1936 7.67693 11.8396 7.68002 11.3701C7.68773 9.88103 7.68542 8.39275 7.67308 6.90525C7.65919 5.49678 7.75329 4.46637 7.95538 3.81404C8.60483 1.71915 10.1428 0.447799 12.5694 0ZM23.01 3.56535C23.01 3.54439 23.0017 3.52429 22.9869 3.50947C22.9722 3.49465 22.9522 3.48633 22.9313 3.48633H18.8911C18.8703 3.48633 18.8503 3.49465 18.8355 3.50947C18.8207 3.52429 18.8125 3.54439 18.8125 3.56535V49.9893C18.8125 50.0103 18.8207 50.0304 18.8355 50.0452C18.8503 50.06 18.8703 50.0683 18.8911 50.0683H22.9313C22.9522 50.0683 22.9722 50.06 22.9869 50.0452C23.0017 50.0304 23.01 50.0103 23.01 49.9893V3.56535ZM46.0269 5.63623C46.0269 4.17662 45.0735 3.49795 43.7106 3.4933C38.0137 3.47626 32.3074 3.47703 26.592 3.49563C26.5179 3.49563 26.4809 3.53281 26.4809 3.60719V49.9312C26.4809 50.0226 26.5256 50.0683 26.6151 50.0683H45.9181C45.9427 50.0683 45.9662 50.0583 45.9836 50.0404C46.0009 50.0225 46.0107 49.9983 46.0107 49.973C46.0122 35.1941 46.0176 20.4152 46.0269 5.63623ZM55.771 19.4979C56.9279 19.0772 57.3699 18.4682 57.7702 17.2852C58.314 15.6792 59.5057 15.3979 61.1555 15.3979C65.2929 15.3995 69.431 15.3995 73.5699 15.3979C74.4723 15.3979 75.182 15.7838 75.6987 16.5554C76.2749 17.4177 76.1592 18.352 77.2491 19.0818C77.2892 19.1097 77.7019 19.2817 78.4871 19.5978C79.6008 20.0472 80.1577 20.9133 80.1577 22.1963C80.1516 31.4405 80.1516 40.687 80.1577 49.9358C80.1577 50.0242 80.2009 50.0683 80.2873 50.0683H84.2002C84.2943 50.0668 84.3414 50.0195 84.3414 49.9265V11.3817C84.3414 11.3305 84.3211 11.2815 84.2851 11.2453C84.2491 11.2091 84.2002 11.1888 84.1493 11.1888H49.6529C49.6081 11.1888 49.5651 11.2064 49.5334 11.2378C49.5017 11.2692 49.4839 11.3118 49.4839 11.3561V49.9219C49.4839 50.0195 49.5325 50.0683 49.6297 50.0683H53.5519C53.629 50.0683 53.6676 50.0296 53.6676 49.9521C53.6799 35.934 53.6815 26.7208 53.6722 22.3125C53.6691 21.3193 54.0093 20.5461 54.6927 19.9929C54.8454 19.869 55.2048 19.704 55.771 19.4979ZM72.9266 18.9587C72.9081 18.9106 72.8734 18.8866 72.8225 18.8866H61.0236C60.9588 18.8866 60.9141 18.9168 60.8894 18.9772C60.1937 20.7266 58.975 21.9507 57.2334 22.6495C57.2074 22.6598 57.1851 22.6777 57.1694 22.7009C57.1537 22.7242 57.1454 22.7516 57.1454 22.7797V49.9056C57.1454 50.0141 57.1994 50.0683 57.3074 50.0683H76.5827C76.6091 50.0683 76.6344 50.0575 76.653 50.0384C76.6717 50.0192 76.6822 49.9932 76.6822 49.9661V22.8331C76.6823 22.7899 76.6695 22.7475 76.6456 22.7115C76.6217 22.6755 76.5877 22.6475 76.548 22.6309C74.8202 21.9213 73.6131 20.6972 72.9266 18.9587ZM91.9936 50.4193C91.9964 50.42 91.9993 50.4201 92.0021 50.4195C92.0049 50.4189 92.0076 50.4176 92.0098 50.4158C92.0121 50.414 92.0139 50.4117 92.0151 50.4091C92.0163 50.4064 92.0168 50.4036 92.0168 50.4007C92.0121 47.029 92.0121 43.6512 92.0168 40.2671C92.0214 38.0521 89.8116 38.0289 87.9072 38.1939C87.8439 38.2001 87.8123 38.2349 87.8123 38.2985V49.9684C87.8123 50.0505 87.8524 50.0885 87.9326 50.0823C89.2192 49.9831 90.5728 50.0954 91.9936 50.4193ZM7.55738 38.4333C2.09182 40.3694 2.17512 47.7278 7.5782 49.6871C7.64608 49.7104 7.68002 49.6864 7.68002 49.6151V38.5216C7.68008 38.5068 7.67661 38.4921 7.66989 38.4789C7.66317 38.4657 7.6534 38.4543 7.64139 38.4456C7.62939 38.437 7.6155 38.4314 7.60088 38.4292C7.58626 38.4271 7.57135 38.4285 7.55738 38.4333ZM70.9667 76.6155C69.6963 76.6132 68.7175 77.3872 68.7083 78.7329C68.6728 83.6153 68.6535 88.497 68.6504 93.3778C68.6504 95.0908 69.0947 96.2622 70.9667 96.2598C79.5438 96.2567 88.1216 96.2552 96.7002 96.2552C97.8202 96.2536 98.6308 96.1862 99.1322 96.053C101.812 95.3325 103.515 92.8921 103.512 90.1216C103.509 85.7412 103.512 81.3593 103.522 76.9758C103.526 75.0436 103.408 73.7087 103.168 72.9712C102.532 71.0173 101.094 69.7134 98.8522 69.0595C98.3277 68.9061 97.2409 68.8751 95.5918 68.9665C95.5224 68.9712 95.4877 69.0084 95.4877 69.0781V73.0316C95.4877 73.1075 95.5247 73.147 95.5988 73.1501C97.3828 73.2245 98.1302 75.493 96.5382 76.3924C96.2451 76.5567 95.8032 76.6388 95.2123 76.6388C87.1304 76.6388 79.0486 76.631 70.9667 76.6155Z" fill="#E5B56C"/>
<path d="M41.8064 19.1218C41.8047 20.0847 41.4223 21.0074 40.7433 21.687C40.0643 22.3667 39.1443 22.7476 38.1857 22.7459L34.2797 22.739C33.3211 22.7374 32.4025 22.3533 31.7258 21.6712C31.0492 20.9892 30.67 20.0651 30.6717 19.1023L30.6852 11.3208C30.6869 10.358 31.0693 9.43522 31.7483 8.75557C32.4273 8.07592 33.3473 7.69504 34.3059 7.69672L38.2118 7.70358C39.1704 7.70526 40.0891 8.08936 40.7658 8.77138C41.4424 9.45341 41.8216 10.3775 41.8199 11.3403L41.8064 19.1218ZM38.3399 11.3306C38.3399 11.3119 38.3363 11.2935 38.3292 11.2763C38.3221 11.2591 38.3117 11.2435 38.2986 11.2303C38.2855 11.2171 38.2699 11.2067 38.2528 11.1996C38.2357 11.1925 38.2173 11.1888 38.1988 11.1888H34.2882C34.2508 11.1888 34.2149 11.2037 34.1884 11.2303C34.1619 11.2569 34.147 11.293 34.147 11.3306V19.0981C34.147 19.1357 34.1619 19.1718 34.1884 19.1984C34.2149 19.2249 34.2508 19.2399 34.2882 19.2399H38.1988C38.2173 19.2399 38.2357 19.2362 38.2528 19.2291C38.2699 19.222 38.2855 19.2115 38.2986 19.1984C38.3117 19.1852 38.3221 19.1696 38.3292 19.1524C38.3363 19.1352 38.3399 19.1167 38.3399 19.0981V11.3306Z" fill="#E5B56C"/>
<path d="M67.0046 23.1308L66.838 23.1305C65.9306 23.1289 65.1938 23.8664 65.1922 24.7778L65.1853 28.7615C65.1837 29.6729 65.918 30.413 66.8253 30.4146L66.9919 30.4149C67.8993 30.4165 68.6361 29.6789 68.6377 28.7676L68.6446 24.7838C68.6462 23.8725 67.9119 23.1324 67.0046 23.1308Z" fill="#E5B56C"/>
<path d="M72.4754 40.2462C72.4754 41.7281 71.8893 43.1492 70.8461 44.1971C69.8029 45.2449 68.388 45.8336 66.9127 45.8336C66.1821 45.8336 65.4588 45.6891 64.7839 45.4083C64.109 45.1275 63.4957 44.7159 62.9792 44.1971C62.4626 43.6782 62.0529 43.0623 61.7733 42.3844C61.4938 41.7065 61.3499 40.9799 61.3499 40.2462C61.3499 39.5124 61.4938 38.7859 61.7733 38.108C62.0529 37.4301 62.4626 36.8141 62.9792 36.2953C63.4957 35.7764 64.109 35.3649 64.7839 35.0841C65.4588 34.8033 66.1821 34.6587 66.9127 34.6587C68.388 34.6587 69.8029 35.2474 70.8461 36.2953C71.8893 37.3431 72.4754 38.7643 72.4754 40.2462ZM69.0022 40.2485C69.0022 39.6919 68.782 39.158 68.3902 38.7644C67.9983 38.3708 67.4668 38.1497 66.9127 38.1497C66.3585 38.1497 65.827 38.3708 65.4352 38.7644C65.0433 39.158 64.8232 39.6919 64.8232 40.2485C64.8232 40.8051 65.0433 41.339 65.4352 41.7326C65.827 42.1261 66.3585 42.3473 66.9127 42.3473C67.4668 42.3473 67.9983 42.1261 68.3902 41.7326C68.782 41.339 69.0022 40.8051 69.0022 40.2485Z" fill="#E5B56C"/>
<path d="M83.9758 86.4516C83.9758 87.1854 83.8319 87.912 83.5523 88.5899C83.2728 89.2677 82.863 89.8837 82.3465 90.4025C81.8299 90.9214 81.2167 91.333 80.5418 91.6137C79.8669 91.8945 79.1435 92.0391 78.413 92.0391C77.6825 92.0391 76.9591 91.8945 76.2842 91.6137C75.6093 91.333 74.9961 90.9214 74.4796 90.4025C73.963 89.8837 73.5533 89.2677 73.2737 88.5899C72.9941 87.912 72.8503 87.1854 72.8503 86.4516C72.8503 84.9698 73.4363 83.5486 74.4796 82.5007C75.5228 81.4529 76.9377 80.8642 78.413 80.8642C79.1435 80.8642 79.8669 81.0087 80.5418 81.2895C81.2167 81.5703 81.8299 81.9819 82.3465 82.5007C82.863 83.0196 83.2728 83.6355 83.5523 84.3134C83.8319 84.9913 83.9758 85.7179 83.9758 86.4516ZM80.5025 86.4516C80.5025 85.895 80.2824 85.3612 79.8905 84.9676C79.4987 84.574 78.9672 84.3529 78.413 84.3529C77.8588 84.3529 77.3274 84.574 76.9355 84.9676C76.5436 85.3612 76.3235 85.895 76.3235 86.4516C76.3235 87.0083 76.5436 87.5421 76.9355 87.9357C77.3274 88.3293 77.8588 88.5504 78.413 88.5504C78.9672 88.5504 79.4987 88.3293 79.8905 87.9357C80.2824 87.5421 80.5025 87.0083 80.5025 86.4516Z" fill="#E5B56C"/>
<path d="M30.3071 107.688C30.3054 108.65 29.9235 109.571 29.2453 110.25C28.5672 110.929 27.6484 111.309 26.691 111.308L15.1074 111.287C14.15 111.286 13.2325 110.902 12.5567 110.221C11.8809 109.54 11.5022 108.617 11.5039 107.655L11.5107 103.723C11.5124 102.761 11.8943 101.84 12.5725 101.161C13.2506 100.482 14.1694 100.102 15.1268 100.103L26.7105 100.124C27.6678 100.125 28.5853 100.509 29.2611 101.19C29.9369 101.871 30.3156 102.794 30.3139 103.756L30.3071 107.688ZM26.8373 103.742C26.8373 103.704 26.8224 103.668 26.7959 103.641C26.7694 103.615 26.7335 103.6 26.6961 103.6H15.1171C15.0796 103.6 15.0437 103.615 15.0173 103.641C14.9908 103.668 14.9759 103.704 14.9759 103.742V107.669C14.9759 107.707 14.9908 107.743 15.0173 107.77C15.0437 107.796 15.0796 107.811 15.1171 107.811H26.6961C26.7335 107.811 26.7694 107.796 26.7959 107.77C26.8224 107.743 26.8373 107.707 26.8373 107.669V103.742Z" fill="#E5B56C"/>
</g>
</svg>
